<svg width="87" height="87" viewBox="0 0 87 87" fill="none" xmlns="http://www.w3.org/2000/svg">
<g clip-path="url(#clip0_263_56)">
<path d="M87 0H0V87H87V0Z" fill="url(#paint0_linear_263_56)"/>
<g filter="url(#filter0_d_263_56)">
<path d="M36.7395 17.86C36.5995 18.07 36.4795 18.29 36.3895 18.52C36.6095 17.73 36.5495 16.5 35.8195 16.14C35.7995 16.12 35.7695 16.11 35.7395 16.1C35.0595 15.83 33.1295 16.89 32.4795 17.16C30.2895 18.06 28.1995 19.21 26.2795 20.59C22.4295 23.33 19.1995 26.96 16.9895 31.15C16.0795 32.89 15.3195 34.81 15.5195 36.76C15.5895 37.4 16.0895 38.21 16.6695 37.92C16.8295 37.85 16.9395 37.7 17.0395 37.57C17.9295 36.4 18.8095 35.23 19.6895 34.06C16.8195 38.39 15.4195 43.67 15.7795 48.85C15.7895 49.02 15.8095 49.19 15.8295 49.36C18.0195 54.63 20.9495 44.27 20.5595 40.01C20.3195 37.36 20.4795 34.48 20.6495 32.67C20.5595 35.4 21.4095 38.16 23.2795 40.13C23.8195 40.7 24.4695 41.2 25.2195 41.43C25.9395 41.64 26.6995 41.59 27.4495 41.52C29.0695 41.38 30.7095 41.21 32.1895 40.54C33.0695 40.14 33.8495 39.59 34.6195 39L34.6395 39.59C34.8295 39.37 35.0295 39.17 35.2395 38.98C36.2495 38.04 37.5195 37.4 38.8795 37.17C38.9095 36.84 38.9395 36.51 38.9495 36.18C39.3695 30.01 38.6195 23.75 36.7395 17.86ZM34.2195 37.13C34.1195 37.23 34.0095 37.34 33.8995 37.42C33.6695 37.64 33.4195 37.83 33.1595 38.01C31.8495 38.94 30.2495 39.43 28.6595 39.42C28.1595 39.42 27.6495 39.37 27.1595 39.26C26.7595 39.17 26.3695 39.05 26.0395 38.81C25.3295 38.29 25.1095 37.29 25.2695 36.42C25.4295 35.56 25.8995 34.8 26.3595 34.06C26.3695 34.05 26.3695 34.04 26.3795 34.03C26.3695 34.04 26.3495 34.05 26.3395 34.05C25.2895 34.73 23.8195 35.35 22.9495 34.48C22.3195 33.84 22.4495 32.83 22.7495 31.97C22.7795 31.88 22.8195 31.8 22.8495 31.72C24.8695 26.71 29.5895 23.35 34.2595 20.62C35.0195 20.17 35.8095 19.7 36.2295 18.93C35.9595 19.73 35.8595 20.6 35.7695 21.45C35.3995 24.91 35.0295 28.38 34.6695 31.84C34.5395 33.03 34.4195 34.24 34.6295 35.41C34.6895 35.75 34.7795 36.11 34.6795 36.44C34.5995 36.71 34.4095 36.93 34.2195 37.13Z" fill="#A9EFFF"/>
<path d="M68.4397 54.55C66.0997 59.16 61.9597 62.81 57.1297 64.67C52.2997 66.52 46.8297 66.59 41.9197 64.98C36.9397 63.34 32.6597 60.09 27.8297 58.05C23.9297 56.4 19.1797 55.61 15.1797 57.38C16.9397 56.6 18.5997 55.79 20.5297 55.49C26.0997 54.64 31.6597 57.16 37.2997 57.13C40.1997 57.12 43.0497 56.43 45.7997 55.53C46.9397 55.16 48.0797 54.75 49.1097 54.14C52.2597 52.28 54.1397 48.51 53.8397 44.86C53.5297 41.21 51.0997 37.84 47.7797 36.3C45.0297 35.03 41.7497 35.03 38.9497 36.18C38.3597 36.41 37.7997 36.7 37.2597 37.04C36.3297 37.62 35.4897 38.33 34.6197 39C33.8497 39.59 33.0697 40.14 32.1897 40.54C30.7097 41.21 29.0697 41.38 27.4497 41.52C26.6997 41.59 25.9397 41.64 25.2197 41.43C24.4697 41.2 23.8197 40.7 23.2797 40.13C21.4097 38.16 20.5597 35.4 20.6497 32.67C20.6497 32.11 20.7197 31.55 20.8197 30.99C20.8297 30.91 20.8397 30.86 20.8397 30.86C21.4497 27.6 23.2897 24.67 25.5897 22.27C28.3697 19.36 31.9297 17.13 35.8197 16.14C36.6197 15.93 37.4397 15.78 38.2697 15.68C42.6397 15.17 47.0197 16.25 51.2397 17.49C53.9397 18.29 56.6497 19.16 59.0897 20.57C65.6597 24.38 69.5497 31.8 70.5997 39.32C71.3197 44.48 70.8097 49.91 68.4397 54.55Z" fill="#6EB4D3"/>
<path d="M36.5396 14.95C36.5396 14.95 23.6196 22.24 22.5596 32.69C22.5596 32.69 25.7496 25.57 31.6096 22.72C31.6096 22.72 34.1596 17.08 36.5396 14.96V14.95Z" fill="#7BCCE4"/>
<path d="M32.6901 43.39C32.5401 43.74 32.3901 44.1 32.2201 44.44C31.9101 45.08 31.1501 45.77 30.6101 45.31C30.4501 45.18 30.3701 44.98 30.3101 44.78C30.0401 43.91 30.0301 42.96 30.2901 42.08C28.4801 44.12 27.7501 46.86 26.6601 49.36C26.5001 49.72 26.3301 50.1 26.0101 50.33C25.5801 50.65 24.9701 50.62 24.4901 50.37C24.4201 50.33 24.3401 50.28 24.2701 50.23C23.7601 49.87 23.4501 49.3 23.2201 48.72C22.5001 46.9 22.4501 44.82 23.0801 42.97C21.6201 44.82 20.5301 46.95 19.8901 49.22C19.5801 50.34 19.1201 51.73 17.9701 51.86C17.2701 51.95 16.6101 51.47 16.2601 50.87C16.0001 50.41 15.8901 49.9 15.8301 49.38C18.0201 54.62 20.9501 44.27 20.5601 40.01C20.3201 37.36 20.4801 34.48 20.6501 32.67C20.5601 35.4 21.4101 38.16 23.2801 40.13C23.8201 40.7 24.4701 41.2 25.2201 41.43C25.9401 41.64 26.7001 41.59 27.4501 41.52C29.0701 41.38 30.7101 41.21 32.1901 40.54C32.2901 40.5 32.3801 40.45 32.4801 40.39C32.4801 41.39 32.5501 42.39 32.6901 43.39Z" fill="#7BCCE4"/>
<path d="M62.7392 52.45C60.2592 57.81 54.6092 61.08 49.2492 60.4C52.3092 59.14 54.9692 56.93 56.7092 54.11C59.0392 50.34 59.6592 45.55 58.3692 41.31C57.6692 39 56.2992 36.74 54.0892 35.77C50.9692 34.4 49.6592 36.48 47.6992 38.01C48.9892 34.37 52.4392 31.49 55.8992 32.21C57.4792 32.53 58.8892 33.55 60.0492 34.78C64.2292 39.19 65.3792 46.76 62.7392 52.45Z" fill="#429CBC"/>
<path d="M24.9095 28.66C22.6495 31.9 21.1395 35.75 21.1795 39.7C23.1795 35.14 26.7595 31.28 31.1695 28.96C31.4195 28.83 31.6895 28.69 31.8695 28.47C32.0195 28.29 32.0895 28.06 32.1595 27.84C32.6795 26.23 33.0395 24.56 33.2195 22.87C33.4295 20.94 32.7595 20.69 31.3195 21.89C28.9295 23.89 26.6995 26.1 24.9095 28.66Z" fill="#429CBC"/>
<path d="M79.5698 48.75C79.1498 53.43 78.3298 58.11 76.5298 62.35C72.0898 72.78 61.3998 79.44 51.0998 78.18C44.5598 77.38 38.7798 73.84 32.9698 70.21C28.6198 67.5 24.2598 64.73 19.5598 63.05C16.9298 62.1 13.3898 61.28 10.8998 63.06C10.8098 63.11 10.7198 63.18 10.6298 63.25C9.20978 64.39 5.11978 68.58 5.11978 70.81C4.63978 65.34 7.63978 59.95 11.8098 56.99C16.0198 54 21.1998 53.17 26.1898 53.4C31.1898 53.64 36.1498 54.88 40.7598 57.05C43.2198 58.21 45.6198 59.65 48.2498 60.23C48.5798 60.31 48.9198 60.36 49.2498 60.4C54.6098 61.08 60.2598 57.81 62.7398 52.45C65.3798 46.76 64.2298 39.19 60.0498 34.78C58.8898 33.55 57.4798 32.53 55.8998 32.21C52.4398 31.49 48.9898 34.37 47.6998 38.01C47.6298 37.95 47.5598 37.89 47.4798 37.84C47.3698 37.74 47.2598 37.65 47.1398 37.56C43.0898 34.18 37.9298 33.01 33.1998 30.9C32.8198 30.74 32.4598 30.57 32.0898 30.39C31.7998 30.25 31.4898 30.08 31.3298 29.79C31.1498 29.48 31.1598 29.09 31.1798 28.73C31.4398 24.45 32.8998 20.27 35.3098 16.92C39.7098 10.82 47.0998 7.84001 54.0898 8.60001C61.0798 9.35001 67.5798 13.55 72.2398 19.4C74.8198 22.64 76.8998 26.4 78.1798 30.49C79.9798 36.31 80.1198 42.63 79.5698 48.75Z" fill="#7BCCE4"/>
<path d="M76.0494 43.92C76.0494 43.92 76.0594 43.93 76.0494 43.94C76.2494 51.73 74.5294 59.5 70.6194 66.23C69.8094 67.63 68.8994 68.98 67.7594 70.13C66.6194 71.27 65.2694 72.17 63.9194 73.06C62.2394 74.18 60.4294 75 58.4594 75.43C56.9494 75.76 54.3094 76.12 52.7694 75.96C46.5094 75.3 41.4994 73.62 35.6494 71.31C34.7494 70.96 33.8594 70.58 32.9694 70.21C29.4894 68.04 26.0094 65.84 22.3494 64.18C21.4294 63.77 20.4994 63.39 19.5594 63.05C16.9294 62.1 13.3894 61.28 10.8994 63.06C13.3694 60.6 16.6994 59.02 20.1494 58.46C24.5494 57.74 29.1094 58.59 33.1994 60.36C36.7694 61.9 39.9994 64.12 43.4594 65.89C46.9194 67.67 50.7594 69.02 54.6294 68.62C55.0194 68.58 55.3994 68.52 55.7794 68.44C59.7094 67.68 63.2094 65.12 65.5894 61.86C68.1994 58.29 69.5694 53.95 70.2894 49.59C71.2694 43.7 71.0494 37.41 68.3194 32.11C65.5894 26.8 59.9594 22.73 53.9994 23.09C52.5394 23.18 51.0394 23.55 49.9194 24.49C49.1594 25.13 48.6094 25.99 48.1794 26.89C46.5294 30.26 46.2894 34.3 47.5194 37.84H47.4794C44.0594 37.49 40.6894 36.7 37.4894 35.46C36.0594 34.91 34.5994 34.22 33.6994 32.99C33.2994 32.44 33.1894 31.7 33.1994 30.9C33.2294 29.6 33.5994 28.12 33.6594 27.02C33.7194 25.78 34.0794 24.6 34.6294 23.5C35.4594 21.81 36.7394 20.31 38.1394 19.04C43.9894 13.73 52.7994 11.53 60.1694 14.39C61.7694 15.01 63.2794 15.85 64.7194 16.77C66.1694 17.69 67.2694 18.72 68.4094 20C69.6894 21.45 70.8994 23.18 71.6994 24.95C74.3894 30.88 75.8894 37.41 76.0494 43.92Z" fill="#6EB4D3"/>
<path d="M76.0497 43.92C75.4797 40.85 74.6997 37.81 73.7397 34.84C72.8197 31.99 71.7197 29.18 70.0597 26.69C68.4097 24.2 66.1597 22.03 63.4097 20.85C61.7097 20.12 59.8697 19.78 58.0197 19.61C53.8097 19.23 49.4497 19.74 45.6697 21.62C42.8297 23.03 39.7997 25.49 38.5297 28.49C38.1497 29.39 38.3497 31.23 37.5397 31.85C36.3497 32.77 34.7497 31.33 34.3297 30.27C33.9797 29.37 33.9897 28.36 34.0497 27.4C34.1397 26.09 34.3297 24.78 34.6297 23.5C35.4597 21.81 36.7397 20.31 38.1397 19.04C43.9897 13.73 52.7997 11.53 60.1697 14.39C61.7697 15.01 63.2797 15.85 64.7197 16.77C66.1697 17.69 67.2697 18.72 68.4097 20C69.6897 21.45 70.8997 23.18 71.6997 24.95C74.3897 30.88 75.8897 37.41 76.0497 43.92Z" fill="#429CBC"/>
<path d="M54.6294 68.62C55.0194 68.58 55.3994 68.52 55.7794 68.44C54.7994 68.84 53.7494 69.07 52.6994 69.16C50.0594 69.37 47.4194 68.7 44.8994 67.89C38.9494 65.97 33.0394 63.15 26.7994 63.48C25.2994 63.56 23.8194 63.83 22.3494 64.18C21.4294 63.77 20.4994 63.39 19.5594 63.05C16.9294 62.1 13.3894 61.28 10.8994 63.06C13.3694 60.6 16.6994 59.02 20.1494 58.46C24.5494 57.74 29.1094 58.59 33.1994 60.36C36.7694 61.9 39.9994 64.12 43.4594 65.89C46.9194 67.67 50.7594 69.02 54.6294 68.62Z" fill="#429CBC"/>
<path d="M60.8696 35.72C60.0996 34.78 59.1396 34.11 58.1096 33.8C57.4096 33.57 56.6796 33.51 55.9496 33.63C53.2496 34.11 51.4796 36.79 50.7496 39.43C50.0196 42.08 49.9996 44.9 49.0996 47.48C48.8896 48.07 48.5796 48.71 47.9896 48.92C47.3496 49.14 46.6496 48.76 46.1596 48.29C45.9396 48.07 45.7396 47.84 45.5796 47.59C44.3996 45.92 44.2996 43.61 44.2696 41.51C43.7396 41.99 43.5596 42.75 43.1896 43.36C42.8196 43.98 41.9796 44.48 41.3996 44.06C41.1496 43.87 41.0196 43.57 40.9196 43.28C40.2796 41.41 40.2796 39.31 40.9296 37.44C38.4196 39.58 37.6496 43.07 36.8996 46.29C36.7796 46.79 36.6496 47.31 36.2696 47.66C35.6296 48.24 34.5396 48.02 33.9396 47.4C33.3296 46.77 33.0996 45.89 32.9396 45.04C32.8396 44.49 32.7496 43.94 32.6896 43.39C32.5496 42.39 32.4796 41.39 32.4796 40.39C32.4396 37.94 32.7596 35.5 33.4196 33.14C32.7496 34.63 32.0796 36.11 31.4096 37.6C31.3196 37.8 31.2196 38.01 31.0296 38.12C30.5096 38.44 29.9296 37.79 29.7196 37.22C28.6896 34.47 29.0296 31.39 29.7296 28.54C31.7496 20.31 35.9096 12.57 45.1596 9.64001C39.6596 13.08 35.8596 19.67 35.9596 26.16C37.1696 22.86 39.7396 20.09 42.9396 18.64C43.6696 18.32 44.7196 18.15 45.0996 18.85C45.3096 19.24 45.1996 19.72 45.0596 20.14C43.7396 24.31 41.1996 28.38 41.8296 32.7C41.9096 33.25 42.0896 33.85 42.5796 34.09C43.2496 34.41 43.9996 33.86 44.5196 33.33C46.5796 31.24 48.3096 28.77 50.7296 27.1C53.1496 25.43 56.5896 24.73 58.9696 26.46C55.8896 26.06 50.4796 29.99 53.5796 30.08C58.7896 30.23 60.7596 35.4 60.8696 35.72Z" fill="#A9EFFF"/>
<path d="M58.1101 33.79C57.4101 33.57 56.6801 33.51 55.9501 33.63C53.2501 34.11 51.4801 36.79 50.7501 39.43C50.0201 42.08 50.0001 44.9 49.1001 47.48C48.8901 48.07 48.5801 48.71 47.9901 48.92C47.3501 49.14 46.6501 48.76 46.1601 48.29C45.9401 48.07 45.7401 47.84 45.5801 47.59C49.0701 50.3 46.8601 45.12 49.5001 37.94C52.1501 30.73 58.1101 33.79 58.1101 33.79Z" fill="#7BCCE4"/>
<path d="M5.12971 33.38C4.62971 34.28 4.20971 35.35 4.50971 36.34C4.76971 37.18 5.50971 37.81 6.32971 38.11C6.87971 38.31 7.49971 38.39 8.04971 38.18C8.59971 37.97 9.00971 37.5 9.36971 37.03C10.9897 34.9 11.9797 32.35 13.5597 30.19C14.8697 28.41 16.5197 27.07 18.3797 25.91C16.5097 25.91 14.2397 26.45 12.4897 27.12C10.5397 27.86 8.74971 29.02 7.28971 30.51C6.43971 31.37 5.70971 32.34 5.11971 33.39L5.12971 33.38Z" fill="#A9EFFF"/>
<path d="M18.6201 10.84C17.3501 11.74 16.1001 12.92 15.8701 14.46C15.6701 15.77 16.2801 17.1 17.2001 18.05C17.8201 18.68 18.6201 19.18 19.5001 19.25C20.3901 19.32 21.2501 18.95 22.0401 18.54C25.6201 16.68 28.6101 13.86 32.1601 11.95C35.0901 10.37 38.2001 9.63001 41.4801 9.25001C38.9301 8.04001 35.5001 7.31001 32.6901 7.08001C29.5601 6.82001 26.3701 7.25001 23.4201 8.32001C21.7101 8.94001 20.0901 9.78001 18.6101 10.83L18.6201 10.84Z" fill="#A9EFFF"/>
<path d="M81.2694 74.76C82.0894 73.89 82.7994 72.81 82.5294 71.54C82.2994 70.47 81.3794 69.47 80.2994 68.82C79.5794 68.38 78.7394 68.07 77.9594 68.12C77.1794 68.17 76.5494 68.56 75.9994 68.98C73.4894 70.88 71.7694 73.48 69.2994 75.42C67.2594 77.02 64.8194 77.97 62.1094 78.65C64.6594 79.33 67.8294 79.52 70.3094 79.39C73.0794 79.24 75.6794 78.54 77.8894 77.33C79.1694 76.64 80.3094 75.78 81.2594 74.76H81.2694Z" fill="#A9EFFF"/>
<path d="M31.3302 25.08C30.5202 27.88 29.7102 30.76 30.0102 33.66C30.0502 34 30.1002 34.35 30.2902 34.63C30.4802 34.91 30.8302 35.11 31.1602 35.01C31.4602 34.92 31.6502 34.62 31.7702 34.34C32.4402 32.81 32.2102 31.06 32.1002 29.4C31.9602 27.18 32.2302 25.06 32.4102 22.86C31.6902 23.04 31.5102 24.43 31.3302 25.08Z" fill="#CFF8FF"/>
<path d="M17.7495 13.22C17.4595 13.65 17.1895 14.16 17.2995 14.67C17.4495 15.39 18.2995 15.77 19.0195 15.65C19.7395 15.53 20.3395 15.04 20.8795 14.55C23.1495 12.46 25.0595 10.17 27.6295 8.42001C26.8395 8.19001 25.7395 8.66001 24.9195 8.75001C23.9695 8.85001 23.1395 9.04001 22.2495 9.44001C20.4395 10.25 18.8595 11.57 17.7495 13.22Z" fill="#CFF8FF"/>
<path d="M77.9396 71.72C78.3696 71.13 79.0296 70.56 79.7496 70.68C80.3696 70.78 80.8296 71.38 80.8896 72.01C80.9496 72.64 80.6696 73.25 80.2696 73.74C79.8696 74.23 79.3496 74.59 78.8396 74.95C77.5496 75.85 76.2896 76.88 74.9396 77.67C74.8196 77.09 76.0896 75.55 76.3596 74.91C76.8396 73.82 77.2396 72.69 77.9396 71.72Z" fill="#CFF8FF"/>
</g>
</g>
<defs>
<filter id="filter0_d_263_56" x="0.40918" y="7.0062" width="86.1787" height="80.4221" filterUnits="userSpaceOnUse" color-interpolation-filters="sRGB">
<feFlood flood-opacity="0" result="BackgroundImageFix"/>
<feColorMatrix in="SourceAlpha" type="matrix" values="0 0 0 0 0 0 0 0 0 0 0 0 0 0 0 0 0 0 127 0" result="hardAlpha"/>
<feOffset dy="4"/>
<feGaussianBlur stdDeviation="2"/>
<feComposite in2="hardAlpha" operator="out"/>
<feColorMatrix type="matrix" values="0 0 0 0 0 0 0 0 0 0 0 0 0 0 0 0 0 0 0.25 0"/>
<feBlend mode="normal" in2="BackgroundImageFix" result="effect1_dropShadow_263_56"/>
<feBlend mode="normal" in="SourceGraphic" in2="effect1_dropShadow_263_56" result="shape"/>
</filter>
<linearGradient id="paint0_linear_263_56" x1="53.37" y1="-15.49" x2="36.9" y2="82.98" gradientUnits="userSpaceOnUse">
<stop offset="0.06" stop-color="#A9EFFF"/>
<stop offset="0.99" stop-color="#3E6EA3"/>
</linearGradient>
<clipPath id="clip0_263_56">
<rect width="87" height="87" rx="7" fill="white"/>
</clipPath>
</defs>
</svg>
