<svg width="61" height="59" viewBox="0 0 61 59" fill="none" xmlns="http://www.w3.org/2000/svg">
<g filter="url(#filter0_d_371_959)">
<path d="M17.7852 30.57L19.5352 31.03L21.9052 31.65L22.6052 33.45L25.3152 34.71C25.2852 34.09 25.4652 33.69 25.7252 33.44C26.2352 32.94 27.0352 33 27.0352 33C27.0352 33 29.8252 26.24 38.8852 21.15C47.9352 16.06 54.4652 14.9 56.6852 0.0100098C56.6852 0.0100098 45.6452 6.47001 34.2652 15.36C30.4952 18.3 26.6952 21.51 23.2452 24.84C21.2952 26.72 19.4552 28.64 17.7952 30.57H17.7852Z" fill="#B4D0D6"/>
<path d="M18.6154 29.62C20.0854 27.96 21.6354 26.37 23.2354 24.84C23.2354 24.84 29.6154 18.71 34.2554 15.36C30.1054 19.27 26.9054 23.08 24.9354 25.62C23.1354 27.94 23.3854 31.24 25.5154 33.25C25.6354 33.36 25.7154 33.43 25.7154 33.43C25.4554 33.68 25.2754 34.08 25.3054 34.7L22.5954 33.44L21.8954 31.64C20.8854 31.38 18.7754 30.82 17.7754 30.56C18.0454 30.24 18.3254 29.93 18.6054 29.61L18.6154 29.62Z" fill="#C5E2E4"/>
<path d="M53.3854 4.44001C53.3854 4.44001 51.8054 10.41 47.1154 13.19C42.4254 15.97 28.7154 22.1 25.3154 31.36L27.0254 32.99C27.0254 32.99 27.6354 31.52 29.2054 29.42C30.9954 27.04 34.0454 23.85 38.8654 21.14C44.5454 17.95 49.2354 16.3 52.4854 11.83C52.5954 11.69 52.6954 11.54 52.7954 11.39C54.5654 8.79001 55.8754 5.26001 56.6554 0.0400105C56.6554 0.0200105 56.6554 0.0100098 56.6554 0.0100098C56.6554 0.0100098 45.8354 6.34001 34.5754 15.1C34.4654 15.19 34.3454 15.28 34.2354 15.36L35.8354 16.35L46.2954 9.25001L53.3654 4.44001H53.3854Z" fill="#A5BBCA"/>
<path d="M17.435 30.22C14.685 33.05 1.57499 46.74 4.39499 49.55C4.46499 49.62 4.53499 49.69 4.60499 49.75C5.99499 51 7.55499 51.12 8.76499 50.92C9.45499 50.81 10.025 50.6 10.395 50.43C10.655 50.31 10.835 50.06 10.845 49.77C10.895 48.43 11.435 44.35 15.815 42.1C16.085 41.96 16.235 41.68 16.215 41.38C16.135 40.27 16.365 37.66 20.145 37.92C20.145 37.92 18.805 33.77 23.505 33.59C23.505 33.59 21.545 31.39 22.665 28.7C22.665 28.7 21.865 28.27 20.675 28.42C20.555 28.44 20.425 28.46 20.295 28.49C19.455 28.67 18.465 29.15 17.435 30.21V30.22Z" fill="#904A19"/>
<path d="M22.0855 33.09C22.0855 33.09 17.9355 33.08 19.0255 37.3C19.0255 37.3 13.8355 37.07 14.9855 41.69C14.9855 41.69 8.98547 42.88 9.72547 49.75C9.72547 49.75 7.58547 51.23 4.60547 49.75C6.84547 51.77 9.53547 50.83 10.4855 50.39C10.6955 50.29 10.8355 50.08 10.8455 49.85C10.8855 48.6 11.3555 44.35 15.8855 42.07C16.1155 41.96 16.2455 41.72 16.2255 41.47C16.1355 40.41 16.2755 37.67 20.1455 37.93C20.1455 37.93 18.8055 33.78 23.5055 33.6C23.5055 33.6 21.5455 31.4 22.6655 28.71C22.6655 28.71 21.8655 28.28 20.6755 28.43C20.6755 28.46 20.3255 30.67 22.0855 33.09Z" fill="#844013"/>
<path d="M23.9052 33.5C24.1352 33.6 24.3552 33.72 24.5652 33.88C24.6752 33.96 24.7752 34.05 24.8752 34.15C26.0752 35.35 26.0752 37.29 24.8752 38.48C23.6752 39.67 21.7352 39.68 20.5452 38.48C20.2552 38.19 20.0352 37.86 19.8952 37.51C19.4252 36.39 19.6352 35.05 20.5452 34.14C21.4552 33.23 22.7952 33.01 23.9152 33.49L23.9052 33.5ZM21.1152 37.91C21.2252 38.02 21.3552 38.12 21.4852 38.21C22.3552 38.78 23.5352 38.68 24.3052 37.91C25.0752 37.14 25.1752 35.87 24.5252 34.99C24.4552 34.9 24.3852 34.81 24.3052 34.73C23.4252 33.85 22.0052 33.85 21.1252 34.73C20.2452 35.61 20.2452 37.03 21.1252 37.91H21.1152Z" fill="#7085A6"/>
<path d="M17.435 30.22C14.685 33.05 1.57499 46.74 4.39499 49.55C3.51499 46.44 12.245 37.3 15.375 33.42C18.475 29.58 20.255 28.52 20.295 28.5C19.455 28.68 18.465 29.16 17.435 30.22Z" fill="#9D511E"/>
<path d="M21.1153 37.91C20.2353 37.03 20.2353 35.61 21.1153 34.73C21.9953 33.85 23.4153 33.85 24.2953 34.73C24.2953 34.73 23.0153 33.22 21.2153 34.22C19.4253 35.23 20.1853 37.35 21.1053 37.91H21.1153Z" fill="#617998"/>
<path d="M19.885 37.52C20.035 37.87 20.255 38.2 20.535 38.49C21.735 39.69 23.675 39.69 24.865 38.49C26.055 37.29 26.065 35.35 24.865 34.16C24.765 34.06 24.665 33.97 24.555 33.89C24.555 33.89 26.135 35.3 25.315 37.5C24.495 39.71 21.005 39.58 20.135 37.94C20.045 37.76 19.955 37.63 19.875 37.53L19.885 37.52Z" fill="#617998"/>
<path d="M20.535 34.15C19.625 35.06 19.405 36.4 19.885 37.52C19.695 36.84 19.345 35.67 20.585 34.33C21.805 33 23.865 33.49 23.905 33.5C22.785 33.03 21.445 33.24 20.535 34.15Z" fill="#7D96B7"/>
<path d="M21.4746 38.21C21.9646 38.63 23.6946 39.1 24.6446 37.8C25.7046 36.35 24.5646 35.05 24.5146 34.99C25.1646 35.87 25.0846 37.12 24.2946 37.91C23.5046 38.7 22.3546 38.77 21.4746 38.21Z" fill="#7D96B7"/>
<path d="M53.2251 4.94L56.6751 0L52.9951 4.71L53.2251 4.94Z" fill="#B4D0D6"/>
<path d="M34.2549 15.36L35.8549 16.35L44.2149 10.67L35.9349 15.97L34.5949 15.09C34.4849 15.18 34.3649 15.27 34.2549 15.35V15.36Z" fill="#8B99AD"/>
<path d="M55.4853 1.52002L52.8553 4.57002L44.9053 10.2L52.9953 4.71002L55.4853 1.52002Z" fill="#D7EEFE"/>
<path d="M40.0848 19.69C36.1648 21.74 31.7148 25.5 29.7748 28.29C29.5048 28.68 29.3248 29.06 29.2148 29.42C31.0048 27.04 34.0548 23.85 38.8748 21.14C44.5548 17.95 49.2448 16.3 52.4948 11.83C52.6048 11.69 52.7048 11.54 52.8048 11.39C54.5748 8.78998 55.8848 5.25998 56.6648 0.039978C56.5748 0.599978 55.3148 7.89998 51.9248 11.77C48.3948 15.8 43.9948 17.65 40.0748 19.7L40.0848 19.69Z" fill="#D7EEFE"/>
<path d="M27.0252 32.99C27.0252 32.99 29.8152 26.23 38.8752 21.14C44.5552 17.95 49.2452 16.3 52.4952 11.83C51.7052 12.85 49.3052 15.29 44.0552 18.01C37.3152 21.49 31.3852 24.46 27.0152 32.49L25.3252 31.35L27.0352 32.98L27.0252 32.99Z" fill="#8B99AD"/>
<path d="M55.2947 1.97997L53.2247 4.93997C53.2247 4.93997 51.7047 10.19 47.3447 13.04C47.3447 13.04 51.7247 10.77 53.4347 5.01997L55.2947 1.96997V1.97997Z" fill="#D7EEFE"/>
<path d="M18.7447 31.53C19.1447 31.93 16.9347 34.98 14.9447 37.13C13.0247 39.21 9.99467 43.36 9.19467 46.1C8.39467 48.84 7.13467 49.34 6.41467 48.65C5.40467 47.66 7.94467 43.85 10.9847 39.8C14.0247 35.75 18.2047 31.01 18.7347 31.54L18.7447 31.53Z" fill="#9D511E"/>
<path d="M16.5852 35.14C16.7452 35.3 16.9752 35.34 17.1852 35.26C17.2552 35.23 17.3152 35.19 17.3652 35.14C17.5752 34.93 17.5752 34.58 17.3652 34.37C17.3152 34.32 17.2552 34.28 17.1852 34.25C16.9852 34.17 16.7452 34.21 16.5852 34.37C16.3752 34.58 16.3752 34.93 16.5852 35.14Z" fill="#844013"/>
<path d="M16.6448 34.43C16.4648 34.61 16.4648 34.9 16.6448 35.08C16.7848 35.22 16.9848 35.25 17.1448 35.18C17.1948 35.16 17.2548 35.12 17.2948 35.08C17.4748 34.9 17.4748 34.61 17.2948 34.43C17.2548 34.39 17.1948 34.35 17.1448 34.33C16.9748 34.26 16.7748 34.29 16.6448 34.43Z" fill="#A5BBCA"/>
<path d="M16.9954 34.43C16.8154 34.61 16.8154 34.9 16.9954 35.08C17.0354 35.12 17.0954 35.16 17.1454 35.18C17.1954 35.16 17.2554 35.12 17.2954 35.08C17.4754 34.9 17.4754 34.61 17.2954 34.43C17.2554 34.39 17.1954 34.35 17.1454 34.33C17.0954 34.35 17.0354 34.39 16.9954 34.43Z" fill="#B4D0D6"/>
<path d="M12.4153 39.97C12.5753 40.13 12.8053 40.17 13.0153 40.09C13.0853 40.06 13.1453 40.02 13.1953 39.97C13.4053 39.76 13.4053 39.41 13.1953 39.2C13.1453 39.15 13.0853 39.11 13.0153 39.08C12.8153 39 12.5753 39.04 12.4153 39.2C12.2053 39.41 12.2053 39.76 12.4153 39.97Z" fill="#844013"/>
<path d="M12.4748 39.25C12.2948 39.43 12.2948 39.72 12.4748 39.9C12.6148 40.04 12.8148 40.07 12.9748 40C13.0248 39.98 13.0848 39.94 13.1248 39.9C13.3048 39.72 13.3048 39.43 13.1248 39.25C13.0848 39.21 13.0248 39.17 12.9748 39.15C12.8048 39.08 12.6048 39.11 12.4748 39.25Z" fill="#A5BBCA"/>
<path d="M12.8254 39.25C12.6454 39.43 12.6454 39.72 12.8254 39.9C12.8654 39.94 12.9254 39.98 12.9754 40C13.0254 39.98 13.0854 39.94 13.1254 39.9C13.3054 39.72 13.3054 39.43 13.1254 39.25C13.0854 39.21 13.0254 39.17 12.9754 39.15C12.9254 39.17 12.8654 39.21 12.8254 39.25Z" fill="#B4D0D6"/>
<path d="M8.42508 45.52C8.58508 45.68 8.81508 45.72 9.02508 45.64C9.09508 45.61 9.15508 45.57 9.20508 45.52C9.41508 45.31 9.41508 44.96 9.20508 44.75C9.15508 44.7 9.09508 44.66 9.02508 44.63C8.82508 44.55 8.58508 44.59 8.42508 44.75C8.21508 44.96 8.21508 45.31 8.42508 45.52Z" fill="#844013"/>
<path d="M8.48461 44.8C8.30461 44.98 8.30461 45.27 8.48461 45.45C8.62461 45.59 8.82461 45.62 8.98461 45.55C9.03461 45.53 9.09461 45.49 9.13461 45.45C9.31461 45.27 9.31461 44.98 9.13461 44.8C9.09461 44.76 9.03461 44.72 8.98461 44.7C8.81461 44.63 8.61461 44.66 8.48461 44.8Z" fill="#A5BBCA"/>
<path d="M8.8352 44.8C8.6552 44.98 8.6552 45.27 8.8352 45.45C8.8752 45.49 8.93519 45.53 8.98519 45.55C9.03519 45.53 9.09519 45.49 9.13519 45.45C9.31519 45.27 9.31519 44.98 9.13519 44.8C9.09519 44.76 9.03519 44.72 8.98519 44.7C8.93519 44.72 8.8752 44.76 8.8352 44.8Z" fill="#B4D0D6"/>
</g>
<defs>
<filter id="filter0_d_371_959" x="0" y="0" width="60.6855" height="58.9975" filterUnits="userSpaceOnUse" color-interpolation-filters="sRGB">
<feFlood flood-opacity="0" result="BackgroundImageFix"/>
<feColorMatrix in="SourceAlpha" type="matrix" values="0 0 0 0 0 0 0 0 0 0 0 0 0 0 0 0 0 0 127 0" result="hardAlpha"/>
<feOffset dy="4"/>
<feGaussianBlur stdDeviation="2"/>
<feComposite in2="hardAlpha" operator="out"/>
<feColorMatrix type="matrix" values="0 0 0 0 0 0 0 0 0 0 0 0 0 0 0 0 0 0 0.25 0"/>
<feBlend mode="normal" in2="BackgroundImageFix" result="effect1_dropShadow_371_959"/>
<feBlend mode="normal" in="SourceGraphic" in2="effect1_dropShadow_371_959" result="shape"/>
</filter>
</defs>
</svg>
