<svg width="87" height="75" viewBox="0 0 87 75" fill="none" xmlns="http://www.w3.org/2000/svg">
<g filter="url(#filter0_d_371_942)">
<path fill-rule="evenodd" clip-rule="evenodd" d="M62.1098 36.1001C62.1098 36.1001 58.0698 25.2801 49.7698 18.2801C46.9998 14.7801 45.1098 13.8301 41.4698 11.2801L39.7998 8.5201L44.7098 0.350098C44.7098 0.350098 69.0298 13.5301 81.8998 8.5801C82.2098 8.4601 82.5198 8.3301 82.8198 8.1901C82.8198 8.1901 82.7498 8.5001 82.5798 9.0601C81.4598 12.9001 76.1698 28.4801 62.1198 36.1001" fill="#6B8385"/>
<path fill-rule="evenodd" clip-rule="evenodd" d="M39.7998 8.52009C39.7998 8.52009 59.4898 18.6801 62.9898 33.1201C62.9898 33.1201 76.5898 22.7701 78.5098 9.45009C79.6998 9.27009 80.8298 8.99009 81.8898 8.58009C82.1998 8.46009 82.5098 8.33009 82.8098 8.19009C82.8098 8.19009 82.7398 8.50009 82.5698 9.06009C81.4498 12.9001 76.1598 28.4801 62.1098 36.1001C62.1098 36.1001 58.0698 25.2801 49.7698 18.2801C46.9998 14.7801 45.1098 13.8301 41.4698 11.2801L39.7998 8.52009Z" fill="#C3E3E5"/>
<path fill-rule="evenodd" clip-rule="evenodd" d="M28.3398 34.0901C28.3398 34.0901 29.9398 38.9401 34.6098 40.1301C33.7398 41.0401 32.8498 41.8801 31.9698 42.6201C31.9698 42.6201 17.5598 52.9401 15.6398 65.9901C15.6398 65.9901 9.97977 67.2301 4.00977 61.4601C4.00977 61.4601 10.0598 46.5001 28.3398 34.0801" fill="#403B3B"/>
<path fill-rule="evenodd" clip-rule="evenodd" d="M34.6001 40.1301C29.9301 38.9401 28.3301 34.0901 28.3301 34.0901C28.3301 34.0901 36.6801 30.7301 41.4601 11.2901C45.1101 13.8401 46.9901 14.7901 49.7601 18.2901C49.7601 18.2901 42.4601 31.9801 34.5901 40.1401" fill="#8D5631"/>
<path fill-rule="evenodd" clip-rule="evenodd" d="M34.6196 33.6801C38.9096 29.9301 44.8896 21.2701 44.8896 21.2701C47.0896 17.0401 45.1796 14.1901 43.4596 12.6501C45.8996 14.3101 47.5596 15.4801 49.7796 18.2901C49.7796 18.2901 42.4796 31.9801 34.6096 40.1401C32.5196 39.6101 31.0496 38.3401 30.0596 37.1101C33.4096 40.0701 39.3196 30.9801 39.3196 30.9801C38.1896 32.5901 34.6196 33.7001 34.6196 33.7001" fill="#6E3915"/>
<path fill-rule="evenodd" clip-rule="evenodd" d="M30.05 37.1001C31.04 38.3401 32.52 39.6001 34.6 40.1301C33.73 41.0401 32.84 41.8801 31.96 42.6201C31.96 42.6201 17.55 52.9401 15.63 65.9901C15.63 65.9901 9.97 67.2301 4 61.4601C14.29 65.0501 14.68 59.3301 14.68 59.3301C17.46 49.5201 31 40.2801 30.04 37.0901" fill="#302C2C"/>
<path fill-rule="evenodd" clip-rule="evenodd" d="M39.7998 8.52011C39.7998 8.52011 59.6398 11.5901 65.1598 25.4401C65.1598 25.4401 68.6698 25.6701 73.5598 21.6201C68.9698 28.5701 62.9898 33.1201 62.9898 33.1201C59.4898 18.6801 39.7998 8.52011 39.7998 8.52011Z" fill="#4D6566"/>
<path fill-rule="evenodd" clip-rule="evenodd" d="M39.8 8.52011C39.8 8.52011 59.49 18.6801 62.99 33.1201C62.99 33.1201 68.97 28.5701 73.56 21.6201C76.02 19.5901 78.82 16.4701 81.7 11.7001C79.54 17.6501 73.92 29.6801 62.11 36.1001C62.11 36.1001 58.07 25.2801 49.77 18.2801C47.55 15.4701 45.9 14.3101 43.45 12.6401C42.84 12.2301 42.19 11.7801 41.46 11.2801L39.79 8.52011H39.8Z" fill="white"/>
<path fill-rule="evenodd" clip-rule="evenodd" d="M44.7898 4.8101L43.3098 9.3001C41.1798 8.7301 39.7998 8.5201 39.7998 8.5201L44.7098 0.350098C44.7098 0.350098 58.5898 7.8701 70.9198 9.4201C70.9198 9.4201 55.9098 7.7801 44.7998 4.8101" fill="#B4D3D5"/>
<path fill-rule="evenodd" clip-rule="evenodd" d="M41.4698 11.2901C41.4698 11.2901 42.0098 25.5901 29.1798 35.8501C28.5898 34.8601 28.3398 34.1001 28.3398 34.1001C28.3398 34.1001 36.6898 30.7401 41.4698 11.3001" fill="#F4A62A"/>
<path fill-rule="evenodd" clip-rule="evenodd" d="M4.00977 61.4701C4.00977 61.4701 10.0598 46.5101 28.3398 34.0901C28.3398 34.0901 28.5898 34.8501 29.1798 35.8401C29.1798 35.8401 9.25977 49.9401 4.00977 61.4601" fill="#605959"/>
</g>
<defs>
<filter id="filter0_d_371_942" x="0" y="0.350098" width="86.8193" height="73.7521" filterUnits="userSpaceOnUse" color-interpolation-filters="sRGB">
<feFlood flood-opacity="0" result="BackgroundImageFix"/>
<feColorMatrix in="SourceAlpha" type="matrix" values="0 0 0 0 0 0 0 0 0 0 0 0 0 0 0 0 0 0 127 0" result="hardAlpha"/>
<feOffset dy="4"/>
<feGaussianBlur stdDeviation="2"/>
<feComposite in2="hardAlpha" operator="out"/>
<feColorMatrix type="matrix" values="0 0 0 0 0 0 0 0 0 0 0 0 0 0 0 0 0 0 0.25 0"/>
<feBlend mode="normal" in2="BackgroundImageFix" result="effect1_dropShadow_371_942"/>
<feBlend mode="normal" in="SourceGraphic" in2="effect1_dropShadow_371_942" result="shape"/>
</filter>
</defs>
</svg>
