<svg width="732" height="259" viewBox="0 0 732 259" fill="none" xmlns="http://www.w3.org/2000/svg">
<path d="M719.318 213.626C721.237 201.443 725.115 194.051 727.449 182.821C728.027 180.037 728.502 177.041 728.794 173.828C728.947 172.156 729.086 170.355 729.089 168.613C729.095 166.465 729.035 164.293 728.928 162.174C728.601 155.606 727.697 149.709 727.042 143.458C726.183 139.986 725.394 136.349 724.84 132.276C724.774 131.799 724.793 131.21 724.949 130.928C725.448 130.045 725.942 129.133 726.439 128.238C726.442 128.138 726.442 128.038 726.445 127.938C726.494 126.437 726.475 124.083 726.813 122.959C728.038 118.915 729.313 114.966 730.397 110.505C730.454 110.27 730.498 110.011 730.552 109.775C730.227 94.6786 728.945 80.3943 726.9 67.5284C726.303 67.0222 725.708 66.5102 725.121 65.9157C724.406 65.1918 723.691 64.3619 723.036 63.1731C722.315 61.8665 721.777 59.8124 721.425 57.4111C720.675 52.2847 721.035 46.4933 720.588 41.1433C720.517 40.3017 720.424 39.4953 720.317 38.7067C714.048 18.8899 705.446 6.6067 695.986 6.6067H660.271C659.035 7.8309 657.812 9.20813 656.592 10.3911C655.41 11.5388 654.21 12.5923 652.979 13.0161C651.789 13.4281 650.574 12.7042 649.422 11.7684C647.943 10.5677 646.527 8.73728 645.157 6.6067C641.011 0.1561 625.697 6.6067 620.855 6.6067C605.694 6.6067 590.533 6.6067 575.373 6.6067C574.18 8.08398 572.963 9.33761 571.713 10.2146C570.948 10.7502 570.173 11.0915 569.406 11.6036C568.544 12.1803 567.673 12.6394 566.797 13.022C563.211 14.5699 559.578 14.6994 555.965 14.6464C539.611 14.3992 524.819 30.7906 509.09 12.0332C507.633 10.2911 506.2 8.33118 504.614 7.3836C503.195 6.53607 501.713 6.53607 500.25 6.54784C481.481 6.65378 462.712 6.61847 443.946 6.61847C434.27 6.61847 423.19 3.02826 413.61 6.61847C409.434 8.26055 405.289 10.397 401.162 13.2692C388.779 21.8739 374.89 20.4084 361.697 19.2195C348.214 18.0071 333.93 25.4877 320.747 19.9552C317.893 18.7545 315.068 16.9536 312.27 14.7759C309.205 12.3922 306.173 9.57303 303.144 6.61847C295.682 -0.609027 281.228 6.61847 273.108 6.61847C266.995 6.61847 258.447 2.88701 252.5 6.61847C249.994 8.18992 247.475 9.54361 244.932 10.4382C241.749 11.5565 238.48 12.1333 235.286 11.1209C233.551 10.5677 231.812 10.0321 230.074 9.48475C227.17 8.5666 224.268 7.61902 221.367 6.62435H179.651C179.427 6.83035 179.198 7.01869 178.977 7.26C178.21 8.10164 177.475 9.20224 176.79 10.5912C176.381 11.4211 175.991 12.3569 175.628 13.381C175.371 14.1049 175.169 15.129 174.806 15.1467C173.327 15.2232 171.815 13.5929 170.521 11.3976C169.738 10.0674 169.001 8.43711 168.313 6.61258C141.785 6.61258 115.254 6.90098 88.7258 6.38893C86.2367 6.34185 83.5075 6.48899 81.6216 10.2911C79.9076 13.7459 78.9251 20.0611 76.6734 20.5496C75.1287 20.8851 73.8186 18.1542 72.5796 15.9648C63.0845 -0.767941 47.2876 6.6067 36.1032 6.6067C28.9171 6.6067 13.8434 18.4426 14.3865 40.39C14.4848 44.3098 15.1917 48.1766 14.9051 52.0434C14.4711 57.9231 6.06779 67.4283 4.26649 76.5157C1.81835 88.8577 1.45264 103.984 1.45264 117.379V141.028C1.45264 190.007 11.5372 231.807 25.3936 246.321C26.4689 245.002 27.5361 243.631 28.6141 242.348C30.3636 240.27 32.1812 238.381 34.059 238.063C34.8859 237.928 35.8248 237.993 36.6135 238.905C37.4569 239.888 38.1283 242.001 38.7041 244.131C39.3619 246.568 39.9405 249.211 40.5382 251.788C54.1462 251.788 67.7543 251.788 81.3623 251.788C90.7891 251.788 100.216 251.788 109.648 251.788C118.48 251.788 123.008 244.296 130.546 237.775C138.344 231.03 147.489 243.684 155.066 248.716C166.49 256.303 178.589 255.314 190.456 254.266C198.455 253.56 206.452 252.854 214.451 252.147C220.237 251.635 225.592 253.919 231.053 249.87C238.556 244.302 244.596 236.751 252.767 236.233C261.768 235.662 270.619 240.959 279.47 244.855C290.985 249.917 302.685 252.624 314.399 252.954C323.881 253.219 335.693 255.679 345.008 251.794C348.135 250.494 351.249 248.863 354.361 247.292C359.877 244.502 365.461 241.63 371.064 241.954C373.979 242.118 376.91 243.142 379.803 244.202C382.961 245.361 386.105 246.862 389.238 248.551C391.124 249.57 393.007 250.67 394.89 251.788C413.165 251.788 431.443 251.788 449.718 251.788C461.729 251.788 474.966 252.012 487.403 249.57C499.947 247.103 512.111 238.099 524.649 236.733C531.437 235.991 538.38 235.297 544.887 239.905C548.732 242.63 552.324 247.145 556.213 249.487C560.253 251.918 564.475 251.93 568.648 251.924C603.945 251.871 639.245 251.818 674.542 251.765C681.008 251.753 682.717 237.392 688.928 237.027C701.453 236.286 707.553 253.183 717.61 227.369C718.071 222.667 718.62 218.064 719.318 213.626Z" fill="#807E77"/>
<path d="M178.094 258.392C170.242 258.392 162.355 257.085 154.672 251.982C152.68 250.658 150.649 248.881 148.498 246.997C142.527 241.771 136.353 236.374 131.053 240.959C129.184 242.577 127.5 244.255 125.87 245.885C120.87 250.876 116.553 255.184 109.653 255.184H40.5403C40.008 255.184 39.5195 254.501 39.263 253.407L38.8563 251.647C38.3951 249.634 37.9584 247.727 37.4753 245.938C37.0959 244.531 36.5283 242.595 35.9688 241.942C35.5621 241.471 34.9726 241.312 34.162 241.441C32.6309 241.694 31.0998 243.195 29.2685 245.367C28.5943 246.167 27.9257 247.003 27.257 247.839C26.8613 248.333 26.4628 248.828 26.067 249.316C25.674 249.799 25.2046 249.834 24.8007 249.41C9.96722 233.878 0 190.313 0 141.016V117.367C0 103.807 0.349345 88.1807 2.95032 75.0735C4.03383 69.6058 6.79856 64.6796 9.47049 59.9182C10.9961 57.199 13.2996 53.0968 13.477 51.4429C13.6053 49.6949 13.4334 47.6644 13.2532 45.522C13.1195 43.9447 12.9803 42.3144 12.9394 40.5781C12.7729 33.7803 13.8482 27.4474 16.1408 21.7619C21.2417 9.10202 31.0698 3.19878 36.1052 3.19878C38.5779 3.19878 41.2826 2.83387 44.1456 2.44542C54.2356 1.07997 65.6684 -0.473827 73.455 13.2455L73.8698 13.9871C74.8278 15.7056 75.7312 17.3242 76.5418 17.1594C77.3305 16.9887 77.9528 15.2583 78.8807 12.4391C79.4184 10.8088 79.9724 9.11968 80.6738 7.70714C83.0729 2.87507 86.479 2.93982 88.736 2.98102C108.212 3.35769 128.021 3.29884 147.177 3.24587C154.222 3.22232 161.269 3.20467 168.313 3.20467C168.728 3.20467 169.126 3.62254 169.402 4.35236C170.051 6.07683 170.714 7.5188 171.372 8.63118C172.131 9.92012 173.225 11.4092 174.344 11.6917C174.399 11.5151 174.454 11.3503 174.511 11.1855C174.926 10.0261 175.371 8.95488 175.837 8.00731C176.604 6.45351 177.453 5.15868 178.359 4.16402C178.558 3.94625 178.76 3.7638 178.962 3.58135L179.121 3.44009C179.29 3.28707 179.467 3.20467 179.647 3.20467H221.364C221.435 3.20467 221.506 3.21644 221.574 3.23998C224.355 4.19344 227.278 5.15279 230.264 6.09449L235.477 7.73657C238.102 8.57232 241.036 8.35456 244.71 7.06561C246.961 6.27106 249.314 5.08805 252.117 3.32827C256.394 0.638553 261.656 1.5567 266.743 2.43954C269.033 2.83976 271.194 3.21055 273.099 3.21055C275.553 3.21055 278.67 2.51605 281.967 1.78035C289.581 0.0853051 298.214 -1.83339 303.689 3.46952C306.336 6.04741 309.478 9.01962 312.72 11.5387C315.692 13.8517 318.4 15.5055 320.995 16.5944C328.727 19.8432 337.07 18.4719 345.141 17.1476C350.613 16.2471 356.271 15.3172 361.745 15.8116L362.605 15.8881C375.512 17.0534 388.858 18.2541 400.741 9.99663C404.715 7.23629 408.844 5.0292 413.364 3.25175C419.958 0.779804 427.16 1.62145 434.128 2.42777C437.559 2.82799 440.798 3.20467 443.939 3.20467H454.758C469.665 3.21055 485.08 3.21644 500.241 3.12815C501.704 3.12227 503.361 3.1105 504.965 4.06985C506.437 4.9468 507.736 6.53591 508.991 8.07204C509.242 8.3781 509.493 8.68414 509.744 8.98431C519.938 21.1439 529.772 17.9304 540.181 14.5285C545.271 12.8629 550.53 11.1325 555.97 11.2267C559.359 11.2797 562.967 11.1973 566.529 9.66116C567.419 9.27859 568.227 8.83717 569.002 8.31924C569.381 8.06616 569.761 7.84839 570.143 7.63651C570.527 7.42463 570.91 7.21275 571.289 6.94201C572.359 6.18866 573.47 5.08806 574.687 3.58135C574.897 3.32238 575.129 3.18701 575.366 3.18701H620.849C622.135 3.18701 624.283 2.68674 626.769 2.10995C635.396 0.102966 642.795 -1.15655 645.953 3.75791C647.389 5.98855 648.677 7.55411 649.891 8.54289C650.784 9.26682 651.824 9.9672 652.76 9.63761C653.843 9.26093 654.973 8.26038 656.032 7.23629C656.673 6.61242 657.318 5.93558 657.962 5.25285C658.54 4.64663 659.119 4.03453 659.7 3.45774C659.88 3.28118 660.071 3.18701 660.268 3.18701H695.983C705.595 3.18701 714.651 15.0759 721.482 36.6642C721.578 36.9644 721.651 37.3057 721.701 37.6648C721.832 38.6477 721.933 39.5658 722.009 40.4722C722.219 42.9736 722.268 45.4691 722.315 47.8821C722.375 50.9191 722.429 53.7854 722.795 56.2926C723.073 58.1937 723.461 59.6356 723.919 60.4655C724.487 61.4955 725.134 62.2076 725.691 62.7727C726.247 63.3377 726.834 63.8438 727.388 64.3147C727.789 64.6561 728.106 65.3918 728.256 66.3276C730.412 79.8879 731.671 94.443 731.998 109.592C732.012 110.193 731.954 110.793 731.837 111.329L731.799 111.511C731.752 111.741 731.706 111.964 731.654 112.176C730.726 115.996 729.67 119.445 728.649 122.776L728.024 124.824C727.956 125.289 727.929 126.531 727.915 127.214C727.907 127.561 727.899 127.891 727.89 128.185L727.885 128.456C727.858 129.433 727.65 130.333 727.32 130.928L726.752 131.958C726.638 132.164 726.526 132.37 726.411 132.576C726.845 135.407 727.437 138.291 728.292 141.751C728.36 142.028 728.412 142.334 728.445 142.646C728.641 144.518 728.859 146.36 729.08 148.196C729.594 152.498 730.123 156.948 730.363 161.78C730.481 164.146 730.538 166.453 730.535 168.631C730.532 170.708 730.369 172.786 730.208 174.54C729.913 177.777 729.422 181.067 728.747 184.316C727.656 189.566 726.258 193.986 724.907 198.253C723.243 203.509 721.673 208.47 720.674 214.809C720.058 218.729 719.517 223.084 719.018 228.134C718.96 228.705 718.843 229.229 718.677 229.664C711.25 248.728 705.538 246.097 698.928 243.048C695.896 241.647 692.757 240.205 688.96 240.429C686.387 240.582 684.736 243.566 682.825 247.027C680.715 250.841 678.327 255.167 674.539 255.172L568.644 255.331C564.444 255.337 560.091 255.343 555.85 252.789C553.628 251.453 551.51 249.446 549.46 247.498C547.831 245.95 546.144 244.355 544.466 243.166C538.129 238.675 531.311 239.423 524.717 240.135C518.077 240.859 511.379 243.831 504.9 246.703C499.245 249.21 493.399 251.806 487.526 252.959C475.984 255.231 463.508 255.208 452.509 255.196H394.889C394.769 255.196 394.649 255.161 394.532 255.09C392.993 254.172 390.962 252.971 388.912 251.871C385.487 250.023 382.433 248.61 379.578 247.562C376.541 246.45 373.801 245.514 371.028 245.349C365.687 245.037 360.223 247.804 354.936 250.476L353.356 251.276C350.711 252.618 347.976 254.007 345.264 255.137C338.088 258.127 329.385 257.427 321.702 256.814C319.128 256.609 316.699 256.414 314.382 256.35C302.594 256.02 290.758 253.277 279.202 248.192C277.499 247.445 275.796 246.644 274.093 245.844C267.125 242.565 259.917 239.175 252.808 239.629C247.057 239.993 242.333 244.049 237.327 248.339C235.46 249.94 233.528 251.594 231.489 253.107C227.477 256.085 223.498 255.837 219.65 255.602C217.974 255.496 216.238 255.39 214.503 255.543L190.507 257.662C186.41 258.021 182.256 258.386 178.094 258.392ZM135.403 232.442C140.158 232.442 145.051 236.721 149.514 240.623C151.61 242.454 153.586 244.184 155.463 245.432C166.776 252.948 178.788 251.882 190.401 250.858L214.396 248.739C216.225 248.581 218.007 248.686 219.729 248.792C223.504 249.028 227.068 249.246 230.613 246.615C232.589 245.149 234.492 243.519 236.328 241.942C241.56 237.451 246.503 233.213 252.728 232.819C260.168 232.342 267.537 235.815 274.666 239.164C276.358 239.958 278.048 240.753 279.74 241.494C291.129 246.503 302.796 249.204 314.418 249.534C316.767 249.599 319.213 249.793 321.803 250.005C329.71 250.641 337.884 251.294 344.756 248.433C347.414 247.327 350.122 245.95 352.742 244.62L354.327 243.819C359.78 241.065 365.419 238.21 371.104 238.54C374.049 238.71 377.007 239.723 380.031 240.829C382.954 241.9 386.074 243.342 389.567 245.226C391.568 246.303 393.541 247.468 395.075 248.38H452.515C463.997 248.398 475.866 248.416 487.285 246.167C493.009 245.043 498.781 242.483 504.362 240.005C510.94 237.086 517.741 234.073 524.586 233.325C531.106 232.613 538.494 231.813 545.312 236.639C547.116 237.916 548.865 239.576 550.558 241.176C552.61 243.119 554.548 244.955 556.581 246.185C560.467 248.522 564.627 248.516 568.653 248.51L674.547 248.351C677.345 248.345 679.067 245.232 681.059 241.624C683.082 237.963 685.374 233.82 688.898 233.608C693.016 233.366 696.463 234.95 699.501 236.35C705.868 239.287 710.104 241.241 716.288 225.703C716.791 220.742 717.336 216.392 717.961 212.437C719.102 205.186 720.874 199.595 722.588 194.186C723.919 189.984 725.175 186.011 726.149 181.326C726.731 178.536 727.132 175.847 727.38 173.116C727.508 171.697 727.639 170.055 727.642 168.59C727.645 166.683 727.596 164.658 727.489 162.563C727.274 158.266 726.796 154.258 726.291 150.021C726.086 148.302 725.876 146.536 725.682 144.741C724.64 140.486 723.952 136.943 723.455 133.306C723.193 131.387 723.442 129.339 724.072 128.214C724.375 127.673 724.678 127.126 724.978 126.578L725.025 126.49C725.066 124.707 725.142 122.588 725.631 120.981C725.852 120.257 726.073 119.533 726.294 118.809C727.295 115.543 728.243 112.459 729.08 109.039C728.753 95.4553 727.639 82.3893 725.767 70.1708C725.366 69.8177 724.954 69.4469 724.544 69.029C723.862 68.3404 722.975 67.3575 722.145 65.8567C721.237 64.2087 720.513 61.6662 720.049 58.5056C719.547 55.0743 719.479 51.5783 719.413 48.2C719.37 45.934 719.329 43.7917 719.16 41.7847C719.119 41.2903 719.067 40.7841 718.999 40.2485C712.749 20.7319 704.583 9.99075 695.983 9.99075H660.565C660.093 10.4675 659.624 10.9619 659.154 11.4563C658.483 12.1625 657.814 12.8688 657.146 13.5162C655.915 14.711 654.586 15.8822 653.188 16.3648C651.624 16.9063 650.099 15.8999 648.947 14.9699C647.495 13.7928 645.994 11.9801 644.351 9.42573C641.799 5.45296 632.574 7.6012 627.061 8.88425C624.498 9.4787 622.282 9.99663 620.855 9.99663H575.727C574.466 11.5092 573.284 12.651 572.13 13.4632C571.682 13.7811 571.245 14.0224 570.822 14.2578C570.484 14.4461 570.143 14.6345 569.807 14.864C568.942 15.4408 568.044 15.9293 567.061 16.3531C563.249 17.9951 559.329 18.0834 555.956 18.0305C550.732 17.9481 545.574 19.6372 540.588 21.2675C530.192 24.6635 519.441 28.1772 508.432 15.0465C508.172 14.7345 507.913 14.4167 507.651 14.0989C506.491 12.6805 505.397 11.3385 504.253 10.6558C503.003 9.90835 501.606 9.92012 500.252 9.926C485.088 10.0143 469.674 10.0025 454.764 10.0025H443.945C440.733 10.0025 437.305 9.60229 433.989 9.21973C427.171 8.42518 420.124 7.60708 413.839 9.96132C409.447 11.6858 405.433 13.8281 401.573 16.512C389.229 25.0932 375.64 23.8631 362.499 22.6801L361.639 22.6036C356.322 22.1268 350.744 23.045 345.348 23.9278C337.1 25.2815 328.574 26.6823 320.487 23.2863C317.753 22.1386 314.914 20.4082 311.808 17.9893C308.476 15.3996 305.275 12.3685 302.581 9.74355C297.772 5.08806 289.524 6.92436 282.245 8.54289C278.877 9.29036 275.695 10.0025 273.102 10.0025C271.088 10.0025 268.875 9.61995 266.53 9.21385C261.683 8.37221 256.672 7.50114 252.87 9.89069C249.999 11.6917 247.472 12.9688 245.144 13.7869C241.189 15.1818 237.993 15.3937 235.089 14.4756L229.879 12.8335C226.921 11.8977 224.022 10.9501 221.263 10.0025H179.92C179.811 10.1026 179.702 10.1967 179.595 10.3203C178.932 11.0502 178.31 11.9977 177.745 13.1454C177.396 13.8517 177.06 14.658 176.746 15.5409C176.705 15.6527 176.67 15.7822 176.631 15.9058C176.375 16.7415 175.843 18.4836 174.841 18.5366C173.206 18.6308 171.419 17.1005 169.675 14.146C169.001 13.0042 168.332 11.6152 167.68 10.0084C160.848 10.0084 154.017 10.0319 147.188 10.0496C128.026 10.1026 108.209 10.1614 88.7197 9.78475C86.3097 9.73767 84.0254 9.93777 82.5761 12.8629C82.0985 13.8281 81.6564 15.1701 81.1869 16.5944C80.1253 19.8197 78.9217 23.4746 76.8147 23.9337C74.8687 24.3516 73.3376 21.5971 72.104 19.3841L71.711 18.6838C64.776 6.46528 53.9081 7.94256 44.3175 9.24328C41.4109 9.63761 38.668 10.0084 36.1107 10.0084C31.4 10.0084 22.5763 15.7174 18.2587 26.4351C16.5365 30.708 15.7232 35.3341 15.8433 40.1897C15.876 41.4551 15.9879 42.7911 16.108 44.2036C16.3236 46.7403 16.5665 49.6125 16.3455 52.62C16.0398 56.7753 13.9192 60.5538 11.2363 65.3388C8.95739 69.3998 6.37279 74.0083 5.59223 77.9457C3.23143 89.8522 2.91211 104.56 2.91211 117.373V141.022C2.91211 186.964 11.905 227.481 25.3574 242.518C25.5376 242.295 25.7177 242.071 25.8978 241.842C26.5856 240.982 27.2734 240.123 27.9639 239.305C29.8198 237.104 31.8285 235.02 33.9628 234.667C34.817 234.526 36.0916 234.49 37.2652 235.856C38.4578 237.239 39.2848 239.899 39.9371 242.312C40.4693 244.29 40.9496 246.373 41.4109 248.386H109.656C115.963 248.386 120.027 244.325 124.735 239.629C126.397 237.969 128.114 236.256 130.051 234.579C131.79 233.066 133.589 232.442 135.403 232.442Z" fill="#636568"/>
<path opacity="0.52" d="M725.12 65.9098C724.405 65.1859 723.69 64.356 723.035 63.1671C722.314 61.8605 721.774 59.8065 721.425 57.4052C720.674 52.2788 721.034 46.4874 720.587 41.1374C720.516 40.2958 720.423 39.4894 720.317 38.7008C719.195 35.1518 717.991 31.8558 716.728 28.813C709.411 36.9351 702.069 44.9336 694.643 52.473C668.84 78.6698 642.418 96.3501 614.403 103.277C583.999 110.799 553.371 108.186 522.875 106.12C507.277 105.067 491.674 104.131 476.071 104.713C460.588 105.29 445.083 107.533 429.624 109.498C367.856 117.368 306.238 130.628 244.767 146.76C220.078 153.24 195.379 162.533 170.542 165.105C151.086 167.118 131.599 167.13 112.145 169.361C91.3997 171.739 70.4527 175.941 50.2863 188.112C37.4479 195.858 24.5604 207.246 13.8181 225.621C17.1942 234.726 21.1134 241.818 25.3956 246.303C26.4709 244.985 27.538 243.613 28.6161 242.33C30.3655 240.253 32.1832 238.363 34.0609 238.046C34.8879 237.91 35.8268 237.975 36.6155 238.887C37.4589 239.87 38.1303 241.983 38.7061 244.114C39.3639 246.55 39.9425 249.193 40.5402 251.771H109.653C118.485 251.771 123.013 244.278 130.551 237.757C138.348 231.012 147.494 243.666 155.07 248.698C166.495 256.285 178.594 255.296 190.46 254.249C198.46 253.542 206.457 252.836 214.456 252.13C220.242 251.618 225.597 253.901 231.058 249.852C238.561 244.284 244.601 236.733 252.772 236.215C261.773 235.644 270.624 240.941 279.475 244.838C290.99 249.899 302.69 252.606 314.404 252.936C323.885 253.201 335.697 255.661 345.012 251.777C348.14 250.476 351.254 248.846 354.365 247.274C359.881 244.484 365.465 241.612 371.068 241.936C373.983 242.101 376.915 243.125 379.808 244.184C382.965 245.344 386.109 246.844 389.243 248.534C391.128 249.552 393.012 250.652 394.895 251.771H449.723C461.734 251.771 474.971 251.994 487.408 249.552C499.952 247.086 512.116 238.081 524.654 236.715C531.442 235.974 538.385 235.279 544.892 239.888C548.737 242.613 552.329 247.127 556.218 249.469C560.257 251.9 564.479 251.912 568.652 251.906C603.95 251.853 639.25 251.8 674.547 251.747C681.013 251.735 682.721 237.375 688.933 237.01C701.458 236.268 707.557 253.166 717.615 227.351C718.076 222.655 718.624 218.052 719.323 213.614C721.242 201.431 725.12 194.039 727.454 182.809C728.032 180.025 728.507 177.03 728.799 173.816C728.952 172.145 729.091 170.344 729.094 168.602C729.099 166.453 729.039 164.282 728.933 162.163C728.605 155.594 727.702 149.691 727.047 143.447C726.187 139.974 725.399 136.337 724.844 132.264C724.779 131.787 724.798 131.199 724.954 130.916C725.453 130.033 725.947 129.121 726.444 128.226C726.447 128.126 726.446 128.026 726.449 127.926C726.498 126.425 726.479 124.071 726.818 122.947C728.043 118.904 729.318 114.954 730.401 110.493C730.458 110.258 730.502 109.999 730.557 109.763C730.232 94.6668 728.949 80.3825 726.905 67.5166C726.302 67.0163 725.707 66.5043 725.12 65.9098Z" fill="#101010"/>
<path d="M670.795 183.509H66.1928C53.7966 183.509 43.6547 159.755 43.6547 130.721C43.6547 101.688 53.7966 77.9336 66.1928 77.9336H670.795C683.191 77.9336 693.333 101.688 693.333 130.721C693.333 159.755 683.188 183.509 670.795 183.509Z" fill="#E53625"/>
<path d="M670.794 186.911H66.1921C52.9635 186.911 42.202 161.703 42.202 130.721C42.202 99.7397 52.9635 74.5317 66.1921 74.5317H670.794C684.023 74.5317 694.784 99.7397 694.784 130.721C694.784 161.709 684.023 186.911 670.794 186.911ZM66.1921 81.3355C54.5655 81.3355 45.1059 103.489 45.1059 130.721C45.1059 157.954 54.5655 180.107 66.1921 180.107H670.794C682.421 180.107 691.878 157.954 691.878 130.721C691.878 103.489 682.418 81.3355 670.794 81.3355H66.1921Z" fill="#721011"/>
<path opacity="0.52" d="M38.0512 157.59C34.0038 160.215 29.9345 162.634 25.8488 164.9C18.357 169.055 10.8215 172.745 3.297 176.547C4.13215 184.357 5.23476 191.779 6.56664 198.707C10.393 194.404 14.1621 189.825 17.8876 185.076C24.7189 176.365 31.4028 167.036 38.0512 157.59Z" fill="#323232"/>
<path opacity="0.52" d="M33.5593 83.5724C31.4441 80.8179 29.3153 78.1223 27.1865 75.415C22.5413 69.5117 17.8989 63.5202 13.4911 56.6812C10.9175 62.3195 5.65275 69.5294 4.27175 76.5038C4.0807 77.4749 3.9033 78.4637 3.73682 79.4643C9.02883 80.7002 14.3563 80.5649 19.6702 80.8121C24.3126 81.0239 28.9878 81.536 33.5593 83.5724Z" fill="#323232"/>
<path opacity="0.52" d="M68.9077 22.4447C71.536 33.6803 74.5273 44.4568 77.8542 54.6271C80.84 63.7557 84.1097 72.3957 87.6549 80.353C86.5878 75.1972 85.4415 70.1298 84.3089 65.0505C81.2576 51.3901 78.1926 37.6766 75.7827 23.304C75.5999 22.2093 75.4197 21.1028 75.2451 19.9963C74.2925 19.137 73.4219 17.4302 72.584 15.9529C70.5862 12.4392 68.3073 9.99673 65.8564 8.31934C66.8062 13.1043 67.8242 17.8128 68.9077 22.4447Z" fill="#323232"/>
<path opacity="0.52" d="M89.8743 10.1673C92.9065 20.2199 96.1598 29.8899 99.4158 39.5481C102.312 48.1352 105.205 56.734 107.956 65.5742C107.317 60.1536 106.575 54.8036 105.794 49.4889C104.064 37.7177 102.161 26.0466 100.849 13.9635C100.581 11.5033 100.341 9.0196 100.134 6.51234C96.3399 6.47114 92.5435 6.44172 88.7499 6.37109C89.1211 7.64827 89.495 8.91366 89.8743 10.1673Z" fill="#323232"/>
<path opacity="0.52" d="M178.432 40.8082C180.542 51.3022 182.471 61.9845 184.366 72.6963C183.956 67.4699 183.328 62.3024 182.733 57.1996C181.751 48.7714 180.708 40.3786 179.745 31.9328C178.893 24.4522 178.096 16.9245 177.474 9.31445C177.242 9.7029 177.013 10.1149 176.792 10.5622C176.383 11.3921 175.992 12.3279 175.629 13.352C175.373 14.0759 175.171 15.1 174.808 15.1176C174.008 15.1588 173.2 14.688 172.422 13.917C174.622 22.6335 176.595 31.6561 178.432 40.8082Z" fill="#323232"/>
<path opacity="0.52" d="M276.061 51.0959C277.816 38.7421 279.082 26.0527 280.698 13.6047C281.061 10.7973 281.445 8.00165 281.855 5.21777C279.368 5.77102 277.008 6.28306 274.936 6.50083C274.382 26.8002 273.817 47.0996 273.271 67.399C274.366 62.1255 275.269 56.6519 276.061 51.0959Z" fill="#323232"/>
<path opacity="0.52" d="M310.725 57.9937C311.195 72.9607 312.022 87.9925 313.758 102.471C313.774 102.324 313.793 102.171 313.809 102.024C314.696 94.1194 315.31 86.0679 315.856 78.0047C316.429 69.5235 316.921 61.0071 317.491 52.526C318.07 43.9212 318.727 35.3342 319.634 26.8825C319.887 24.5106 320.166 22.1505 320.463 19.8021C317.704 18.6073 314.975 16.8652 312.27 14.7582C311.56 14.2049 310.854 13.6281 310.147 13.0337C310.152 28.0243 310.256 43.0325 310.725 57.9937Z" fill="#323232"/>
<path opacity="0.52" d="M399.328 92.7716C399.832 85.9915 399.931 79.0582 399.903 72.1898C399.843 56.6283 399.095 41.1256 399.117 25.5642C399.123 21.9151 399.166 18.1836 399.287 14.4463C396.841 15.9353 394.341 17.0713 391.806 17.907C393.047 29.0013 394.183 40.1604 395.28 51.3371C396.636 65.1447 397.941 78.9817 399.328 92.7716Z" fill="#323232"/>
<path opacity="0.52" d="M373.119 87.9335C373.46 81.9066 373.643 75.8327 373.76 69.7647C374.025 56.0336 373.978 42.2555 374.571 28.5715C374.693 25.7405 374.846 22.9095 375.035 20.0845C373.957 20.0668 372.879 20.0315 371.803 19.9785C371.751 31.6555 371.721 43.3325 371.896 55.0036C372.06 66.0156 372.404 77.0393 373.119 87.9335Z" fill="#323232"/>
<path opacity="0.52" d="M488.077 78.2932C488.789 71.4836 489.357 64.5915 489.875 57.6819C490.986 42.8914 491.903 28.0009 493.478 13.4281C493.726 11.121 493.996 8.82562 494.283 6.53613C490.746 6.5479 487.209 6.55968 483.669 6.56556C484.182 16.3945 484.698 26.2234 485.257 36.0347C486.062 50.1719 486.968 64.2737 488.077 78.2932Z" fill="#323232"/>
<path opacity="0.52" d="M508.29 83.055C509.117 76.6633 509.867 70.2127 510.571 63.7444C512.092 49.7721 513.421 35.6937 514.9 21.7037C515.039 20.3853 515.181 19.067 515.326 17.7486C513.26 16.3772 511.183 14.5174 509.092 12.0219C508.885 11.7747 508.677 11.5216 508.47 11.2686C507.976 22.1098 507.804 33.0393 507.79 43.9336C507.774 56.9819 508.006 70.0244 508.29 83.055Z" fill="#323232"/>
<path opacity="0.52" d="M568.23 47.3296C571.997 59.6128 575.951 71.59 580.173 83.0257C579.83 75.7452 579.347 68.5059 578.743 61.3196C577.559 47.2119 575.957 33.316 574.199 19.5496C573.76 16.1183 573.312 12.6988 572.859 9.2793C572.48 9.61478 572.098 9.9326 571.713 10.2033C570.949 10.7389 570.174 11.0803 569.407 11.5923C568.544 12.1691 567.674 12.6282 566.797 13.0108C564.142 14.1526 561.465 14.5234 558.787 14.6116C561.814 25.706 564.952 36.6414 568.23 47.3296Z" fill="#323232"/>
<path opacity="0.52" d="M630.68 63.0079C631.016 57.6697 631.199 52.2726 631.313 46.8873C631.581 34.404 631.537 21.8736 632.127 9.43733C632.208 7.73051 632.304 6.02369 632.41 4.32275C630.956 4.58172 629.506 4.90543 628.131 5.21737C628.295 14.3047 628.548 23.3803 628.92 32.4323C629.343 42.6791 629.921 52.8788 630.68 63.0079Z" fill="#323232"/>
<path opacity="0.52" d="M648.085 36.4998C648.502 46.8172 649.16 57.0758 649.987 67.252C650.527 61.1545 650.901 54.9805 651.218 48.7948C651.829 36.8412 652.252 24.8052 653.134 12.9339C653.082 12.9516 653.03 12.9869 652.978 13.0046C651.788 13.4166 650.574 12.6926 649.422 11.7568C648.797 11.2507 648.183 10.6091 647.577 9.89697C647.525 18.7842 647.724 27.6714 648.085 36.4998Z" fill="#323232"/>
<path opacity="0.52" d="M711.894 95.9553C705.336 101.853 698.859 108.262 692.557 115.543C696.07 116.82 699.642 116.92 703.185 116.425C710.246 115.437 717.208 112.241 724.233 110.493C726.324 109.975 728.431 109.586 730.54 109.433C730.322 99.781 729.711 90.47 728.761 81.6416C723.117 86.2618 717.478 90.929 711.894 95.9553Z" fill="#323232"/>
<path opacity="0.52" d="M728.927 162.174C728.679 157.183 728.098 152.575 727.544 147.914C722.483 148.696 717.418 149.426 712.366 150.456C706.512 151.651 700.669 153.269 694.896 155.859C698.452 159.467 702.162 162.192 705.922 164.376C713.428 168.737 721.113 171.056 728.761 173.598C728.777 173.604 728.796 173.61 728.813 173.616C728.957 172.003 729.086 170.285 729.091 168.607C729.094 166.465 729.034 164.293 728.927 162.174Z" fill="#323232"/>
<path opacity="0.52" d="M676.458 212.932C674.698 208.394 672.981 203.644 671.442 198.612C673.783 211.472 675.899 224.562 677.782 237.828C678.295 241.442 678.792 245.073 679.269 248.716C681.87 245.208 683.786 239.682 686.846 237.728C683.352 229.535 679.782 221.513 676.458 212.932Z" fill="#323232"/>
<path opacity="0.52" d="M542.703 208.629C541.554 197.994 540.148 187.524 538.625 177.147C538.866 184.51 539.038 191.891 539.144 199.271C539.327 211.884 539.321 224.509 539.177 237.127C541.106 237.698 543.014 238.575 544.886 239.9C544.993 239.976 545.099 240.064 545.206 240.147C544.704 229.517 543.822 218.994 542.703 208.629Z" fill="#323232"/>
<path opacity="0.52" d="M333.288 197.865C333.255 203.362 333.203 208.865 333.121 214.356C332.919 227.563 332.583 240.759 332.174 253.943C333.877 253.937 335.564 253.86 337.223 253.672C336.535 243.755 335.785 233.861 335.059 223.956C334.418 215.28 333.806 206.587 333.288 197.865Z" fill="#323232"/>
<path opacity="0.52" d="M281.839 226.704C281.11 214.697 280.049 202.761 278.425 191.231C278.171 196.605 277.985 201.996 277.862 207.393C277.598 218.976 277.587 230.588 277.636 242.189C277.639 242.801 277.644 243.413 277.647 244.025C278.255 244.302 278.864 244.578 279.47 244.843C280.562 245.326 281.656 245.761 282.751 246.197C282.529 239.682 282.235 233.178 281.839 226.704Z" fill="#323232"/>
<path opacity="0.52" d="M211.819 197.194C210.345 202.685 208.986 208.347 207.725 214.127C205.034 226.469 202.753 239.335 200.957 252.542C200.921 252.807 200.889 253.072 200.853 253.342C205.04 252.972 209.226 252.607 213.416 252.23C213.416 248.275 213.405 244.314 213.378 240.359C213.277 225.927 212.957 211.408 211.819 197.194Z" fill="#323232"/>
<path opacity="0.52" d="M164.763 228.299C164.146 212.396 163.193 196.541 161.722 180.938C160.374 186.264 159.198 191.826 158.139 197.5C155.753 210.272 153.887 223.65 152.604 237.263C152.326 240.223 152.066 243.225 151.845 246.256C152.945 247.174 154.023 248.016 155.071 248.71C158.485 250.976 161.96 252.466 165.472 253.431C165.32 245.038 165.088 236.657 164.763 228.299Z" fill="#323232"/>
<path opacity="0.52" d="M67.729 200.649C66.8256 204.775 66.0969 209.089 65.5101 213.515C64.2683 222.885 63.5914 232.637 63.1875 242.384C63.0592 245.509 62.9664 248.646 62.89 251.783H72.0958C71.9921 249.24 71.8829 246.698 71.7628 244.155C71.0641 229.388 69.9997 214.58 67.729 200.649Z" fill="#323232"/>
<path opacity="0.52" d="M116.597 244.785C114.989 230.089 113.253 215.439 110.999 201.208C110.396 206.499 109.924 211.867 109.552 217.276C108.769 228.676 108.401 240.241 108.365 251.783H109.653C112.514 251.783 114.921 250.988 117.126 249.705C116.949 248.063 116.774 246.421 116.597 244.785Z" fill="#323232"/>
<path opacity="0.52" d="M401.082 214.863C400.451 205.11 399.712 195.399 398.767 185.788C398.617 192.98 398.453 200.172 398.282 207.359C397.929 222.161 397.572 236.969 397.348 251.789H403.331C403.262 250.741 403.189 249.7 403.123 248.652C402.416 237.393 401.808 226.11 401.082 214.863Z" fill="#323232"/>
<path opacity="0.52" d="M470.097 218.576C468.645 207.847 467.032 197.218 465.056 186.953C464.619 194.669 464.335 202.426 464.172 210.195C463.88 224.021 463.937 237.875 464.136 251.712C467.474 251.642 470.839 251.5 474.199 251.259C472.87 240.335 471.562 229.4 470.097 218.576Z" fill="#323232"/>
<path opacity="0.52" d="M590.495 250.759C589.736 240.371 589.021 229.953 587.962 219.706C586.98 210.166 585.683 200.767 583.781 192.009C583.205 198.977 582.856 206.034 582.67 213.114C582.334 226.027 582.487 238.964 582.547 251.895C585.225 251.889 587.899 251.889 590.577 251.883C590.552 251.512 590.522 251.135 590.495 250.759Z" fill="#323232"/>
<path opacity="0.52" d="M663.319 225.35C661.079 216.175 658.352 207.588 654.954 200.596C655.263 207.735 655.511 214.886 655.732 222.037C656.035 231.948 656.297 241.871 656.611 251.783C660.59 251.777 664.57 251.771 668.551 251.765C667.056 242.707 665.38 233.79 663.319 225.35Z" fill="#323232"/>
<path opacity="0.52" d="M685.7 71.4359C687.861 66.8334 689.982 62.119 692.075 57.3399C696.851 46.4516 701.505 35.2631 706.33 24.4866C707.569 21.7204 708.822 18.9777 710.088 16.2821C708.511 14.0161 706.873 12.1151 705.181 10.6143C702.029 20.914 698.745 30.9902 695.451 41.0427C692.16 51.1012 688.868 61.1655 685.7 71.4359Z" fill="#323232"/>
<path opacity="0.52" d="M227.975 49.2596C228.706 58.3646 229.418 67.4931 230 76.6628C229.94 73.9025 229.874 71.1363 229.814 68.3759C229.642 60.7129 229.487 53.0499 229.462 45.381C229.437 37.6532 229.538 29.9019 229.929 22.2271C230.142 18.0248 230.442 13.8283 230.879 9.71432C230.611 9.63193 230.344 9.54953 230.076 9.46124C228.338 8.908 226.602 8.31944 224.863 7.74854C225.712 21.6562 226.869 35.452 227.975 49.2596Z" fill="#323232"/>
<path d="M701.384 189.124C703.193 180.708 706.851 175.599 709.05 167.842C709.596 165.917 710.044 163.852 710.319 161.627C710.461 160.473 710.595 159.226 710.598 158.025C710.601 156.542 710.546 155.041 710.445 153.575C710.137 149.038 709.285 144.959 708.666 140.645C707.855 138.243 707.113 135.73 706.589 132.917C706.526 132.587 706.545 132.181 706.692 131.987C707.162 131.375 707.628 130.745 708.098 130.127C708.101 130.057 708.101 129.986 708.103 129.921C708.15 128.885 708.131 127.255 708.453 126.478C709.61 123.683 710.811 120.958 711.832 117.873C711.886 117.715 711.927 117.532 711.976 117.367C711.671 106.938 710.461 97.0679 708.532 88.1748C707.97 87.8276 707.407 87.4685 706.853 87.0565C706.179 86.5563 705.505 85.9795 704.888 85.1614C704.209 84.255 703.701 82.8366 703.371 81.1827C702.664 77.6396 703.002 73.6433 702.582 69.9413C702.517 69.3586 702.429 68.7995 702.328 68.258C696.417 54.5681 688.305 46.0752 679.386 46.0752H645.71C644.545 46.9227 643.393 47.8703 642.241 48.6884C641.128 49.483 639.992 50.2069 638.832 50.5012C637.711 50.7837 636.567 50.2834 635.481 49.6419C634.086 48.812 632.749 47.5466 631.458 46.0752H565.661C564.537 47.0934 563.388 47.9586 562.211 48.5707C561.491 48.9415 560.759 49.1769 560.039 49.5301C559.226 49.9303 558.404 50.2481 557.58 50.5071C554.198 51.5782 550.773 51.6665 547.364 51.6253C543.985 51.59 540.601 51.3664 537.225 51.8137C535.754 52.0079 534.297 52.5788 532.839 53.0555C531.439 53.5146 530.039 53.9796 528.636 54.4092C522.962 56.1455 517.179 57.4167 511.48 55.5451C508.683 54.627 505.94 52.8848 503.372 50.1127C502.294 48.9474 501.256 47.5878 500.266 46.0752H413.143C409.204 47.2053 405.296 48.6884 401.404 50.6719C396.21 53.3145 390.973 55.8806 385.675 57.0459C383.047 57.6227 380.405 57.8228 377.766 57.5874C374.761 57.3167 371.814 56.1984 368.825 55.5451C363.015 54.2738 357.177 54.3386 351.352 54.8447C345.635 55.345 339.922 56.1984 334.196 56.2514C331.312 56.2808 328.44 56.169 325.577 55.2862C322.886 54.4563 320.22 53.2144 317.583 51.7077C314.69 50.0598 311.828 48.1057 308.975 46.0693H261.225C258.861 47.1582 256.487 48.0881 254.09 48.7061C251.091 49.4771 248.007 49.8773 244.996 49.1769C243.359 48.7944 241.721 48.4236 240.081 48.0469C237.344 47.4113 234.606 46.7579 231.871 46.0693H192.532C192.319 46.2106 192.106 46.3401 191.896 46.5107C191.173 47.0934 190.48 47.8527 189.836 48.812C189.448 49.3888 189.082 50.0303 188.738 50.7425C188.496 51.2428 188.304 51.949 187.963 51.9667C186.569 52.0197 185.144 50.8896 183.924 49.377C183.184 48.4589 182.491 47.3347 181.842 46.0752H113.995C112.811 46.393 111.637 46.7285 110.453 46.2518C110.327 46.1988 110.202 46.1341 110.079 46.0752H101.763C101.553 46.4107 101.348 46.7579 101.157 47.0934C100.292 48.5943 99.5002 50.307 98.6514 51.849C97.8681 53.2733 97.0357 54.5505 96.0996 55.345C95.682 55.6982 95.1935 56.1101 94.7431 55.9983C94.402 55.9159 94.069 55.6923 93.747 55.4215C91.9702 53.9266 90.3709 51.4134 88.7115 49.3476C88.3731 48.9238 88.0292 48.506 87.6744 48.1587C87.1804 47.6702 86.6345 47.4642 86.1105 47.1994C85.2508 46.7638 84.3856 46.4048 83.5177 46.0752H57.1859C50.6876 46.0752 44.6205 50.5953 39.5168 58.3349C38.728 60.13 37.9666 61.984 37.2488 63.9203C37.0141 64.556 36.6811 65.2328 36.5665 66.0509C36.4464 66.9278 36.501 67.9519 36.5665 68.8348C36.7248 70.983 37.0523 73.0312 37.3034 75.1206C37.4781 76.5861 37.7046 78.1928 37.1205 79.2699C36.2499 80.8767 35.09 80.8296 34.0419 81.0768C33.84 81.1239 33.6189 81.171 33.4278 81.3534C33.2887 81.4888 33.2095 81.7301 33.0512 81.7595C32.8028 81.8066 32.5299 81.683 32.2816 81.6359C31.4164 81.4888 30.5485 81.4064 29.6806 81.4417C26.4164 93.3482 24.5087 107.468 24.5087 122.594V138.932C24.5087 172.774 34.0174 201.655 47.0823 211.678C48.0948 210.766 49.1019 209.818 50.1199 208.935C51.7711 207.499 53.4851 206.193 55.2536 205.975C56.0342 205.881 56.9185 205.928 57.6608 206.557C58.4578 207.234 59.0882 208.694 59.6314 210.165C60.2509 211.849 60.7967 213.673 61.3617 215.456H140.371C143.291 212.378 146.018 208.358 148.981 205.463C150.33 204.144 151.73 203.02 153.182 202.538C153.774 202.343 154.421 202.126 155.013 202.438C155.554 202.726 156.058 203.415 156.52 204.115C157.718 205.934 158.79 208.229 160.084 209.694C160.805 210.513 161.612 210.96 162.366 211.601C163.184 212.308 163.995 213.061 164.8 213.856C165.313 214.362 165.824 214.909 166.331 215.451H244.336C244.38 215.386 244.426 215.333 244.467 215.268C245.46 213.714 246.345 211.819 247.292 210.124C248.19 208.517 249.172 207.081 250.286 206.475C250.905 206.134 251.503 205.58 252.125 205.251C252.745 204.927 253.372 204.698 254.006 204.533C256.71 203.832 259.442 204.445 262.136 205.139C264.778 205.816 267.434 206.693 270.1 206.534C271.465 206.451 272.821 206.04 274.186 205.91C275.305 205.804 276.426 205.804 277.545 205.992C279.715 206.357 281.847 207.452 283.973 208.47C285.373 209.141 286.787 209.618 288.189 210.271C289.62 210.936 291.039 211.701 292.458 212.484C294.338 213.52 296.23 214.574 298.129 215.462H348.451C351.399 214.562 354.336 213.438 357.269 212.349C362.471 210.424 367.736 208.435 373.02 208.659C375.768 208.776 378.533 209.483 381.26 210.212C384.237 211.013 387.201 212.049 390.157 213.22C391.936 213.926 393.71 214.68 395.484 215.456H483.898C488.151 213.385 492.318 210.454 496.576 208.441C498.74 207.417 500.932 206.634 503.14 206.351C505.547 206.04 507.97 206.387 510.383 206.293C515.236 206.104 520.083 205.592 524.933 205.274C529.297 204.992 533.849 204.044 538.098 206.922C541.442 209.188 544.515 213.155 547.853 215.456H663.275C664.766 213.108 666.108 210.254 667.642 208.041C669.168 205.839 670.983 205.327 672.746 205.257C674.973 205.163 677.2 205.839 679.392 206.699C682.768 208.029 686.086 210.018 689.427 211.719C693.226 208.823 696.722 204.321 699.776 198.582C700.208 195.375 700.723 192.197 701.384 189.124Z" fill="#525252"/>
<path d="M30.8896 88.4337C30.996 88.063 31.2034 87.9864 31.3453 88.2984C33.3049 92.5831 37.2269 91.2824 39.6423 90.841C41.9457 90.4231 44.252 89.5049 46.5636 89.1518C45.4829 88.216 44.4266 87.1448 43.4168 85.8441C41.5091 83.3839 38.8371 78.9815 39.3666 73.0253C39.9534 66.4511 43.5041 62.649 45.9004 60.4537C52.2541 54.627 59.5085 53.6617 66.2633 53.5205C69.5139 53.4498 72.8272 53.491 76.0695 54.0149C77.9145 54.315 79.754 54.9683 81.4707 56.6281C82.8135 57.9229 83.7906 60.3419 84.8331 62.6255C86.0449 65.2799 87.2867 67.6341 89.0116 67.3751C90.4609 67.1574 91.9046 66.4099 93.3211 65.686C96.3506 64.1439 99.4264 62.5372 102.399 60.4713C119.56 48.5413 137.898 51.2133 155.575 51.0603C160.376 51.0191 165.177 50.5777 169.978 51.0662C172.068 51.278 174.252 51.4134 176.304 52.4669C178.28 53.4851 180.119 55.5863 181.973 57.4226C183.891 59.3295 186.208 61.7544 188.332 60.7185C190.392 59.718 192.191 56.8752 194.063 54.7741C197.857 50.5129 202.123 50.9249 206.227 50.5012C214.794 49.6124 223.362 47.835 231.91 46.087C231.893 46.0811 231.88 46.0811 231.863 46.0752H192.532C192.319 46.2164 192.106 46.3459 191.896 46.5166C191.173 47.0993 190.48 47.8585 189.836 48.8179C189.448 49.3947 189.082 50.0362 188.738 50.7484C188.495 51.2486 188.304 51.9549 187.963 51.9726C186.569 52.0255 185.144 50.8955 183.924 49.3829C183.184 48.4647 182.491 47.3406 181.842 46.0811H113.995C112.811 46.3989 111.637 46.7344 110.453 46.2576C110.327 46.2047 110.202 46.1399 110.079 46.0811H101.763C101.553 46.4166 101.348 46.7638 101.157 47.0993C100.292 48.6001 99.5001 50.3128 98.6513 51.8548C97.868 53.2792 97.0356 54.5563 96.0995 55.3509C95.6819 55.704 95.1934 56.116 94.7431 56.0042C94.4019 55.9218 94.0689 55.6981 93.7469 55.4274C91.9701 53.9325 90.3708 51.4193 88.7114 49.3535C88.373 48.9297 88.0291 48.5118 87.6743 48.1646C87.1803 47.6761 86.6345 47.4701 86.1104 47.2052C85.2507 46.7697 84.3856 46.4107 83.5177 46.0811H57.1859C50.6875 46.0811 44.6204 50.6012 39.5167 58.3408C38.728 60.1359 37.9665 61.9898 37.2487 63.9262C37.014 64.5618 36.681 65.2387 36.5664 66.0568C36.4463 66.9337 36.5009 67.9578 36.5664 68.8406C36.7247 70.9889 37.0522 73.0371 37.3033 75.1264C37.478 76.592 37.7045 78.1987 37.1204 79.2758C36.2498 80.8825 35.0899 80.8355 34.0418 81.0827C33.8399 81.1297 33.6188 81.1768 33.4278 81.3593C33.2886 81.4946 33.2094 81.736 33.0511 81.7654C32.8028 81.8125 32.5298 81.6889 32.2815 81.6418C31.4163 81.4946 30.5484 81.4122 29.6805 81.4476C26.8667 91.7061 25.0654 103.613 24.6205 116.384C25.4884 106.179 28.4824 96.8796 30.8896 88.4337Z" fill="#525252"/>
<path d="M24.5087 137.172V138.956C24.5087 143.752 24.7052 148.443 25.0709 153.005C24.8389 147.731 24.6506 142.452 24.5087 137.172Z" fill="#525252"/>
<path d="M231.82 211.313C224.644 210.612 217.469 209.894 210.289 209.647C203.092 209.4 195.927 208.376 188.738 207.581C185.169 207.187 181.593 206.893 178.021 206.851C174.841 206.822 171.615 208.117 168.449 207.034C165.739 206.104 163.067 203.432 160.611 200.66C158.856 198.676 157.123 196.31 155.182 195.486C152.56 194.374 149.768 196.063 147.306 198.094C144.263 200.607 141.209 202.991 138.07 204.768C135.185 206.404 132.251 207.534 129.293 208.123C125.821 208.817 122.336 208.552 118.856 208.994C115.253 209.447 111.662 210.271 108.059 210.818C104.609 211.342 101.162 211.336 97.718 212.078C93.5641 212.972 89.3747 214.297 85.1771 215.486H140.371C143.291 212.407 146.018 208.388 148.981 205.492C150.33 204.174 151.73 203.049 153.182 202.567C153.774 202.373 154.421 202.155 155.013 202.467C155.554 202.755 156.058 203.444 156.52 204.144C157.718 205.963 158.79 208.258 160.084 209.724C160.805 210.542 161.612 210.989 162.366 211.631C163.184 212.337 163.995 213.09 164.8 213.885C165.313 214.391 165.824 214.938 166.331 215.48H244.336C244.38 215.415 244.426 215.362 244.467 215.297C245.46 213.743 246.345 211.848 247.292 210.153C247.518 209.747 247.75 209.353 247.988 208.982C242.584 209.117 237.226 211.842 231.82 211.313Z" fill="#525252"/>
<path d="M515.326 202.379C510.405 201.766 505.536 201.413 500.613 202.231C495.506 203.079 490.52 205.139 485.495 207.317C476.24 211.331 466.846 210.86 457.499 209.335C447.616 207.729 437.807 205.739 427.892 206.775C418.056 207.805 408.015 211.472 398.198 208.5C393.517 207.081 388.902 204.692 384.24 202.979C379.622 201.284 374.953 200.454 370.277 200.536C361.102 200.695 351.983 203.673 342.9 206.445C333.651 209.271 324.369 211.401 315.111 214.073C313.585 214.515 312.043 215.027 310.496 215.486H348.449C351.396 214.585 354.333 213.461 357.267 212.372C362.469 210.448 367.734 208.458 373.018 208.682C375.766 208.8 378.531 209.506 381.257 210.236C384.235 211.036 387.199 212.072 390.155 213.243C391.934 213.95 393.708 214.703 395.482 215.48H483.896C488.148 213.408 492.316 210.477 496.573 208.464C498.738 207.44 500.929 206.657 503.137 206.375C505.544 206.063 507.968 206.41 510.381 206.316C515.233 206.128 520.08 205.616 524.93 205.298C528.738 205.051 532.687 204.297 536.45 206.022C529.573 201.884 522.351 203.255 515.326 202.379Z" fill="#525252"/>
<path d="M706.693 131.988C707.162 131.375 707.629 130.746 708.098 130.128C708.101 130.057 708.101 129.986 708.104 129.922C708.15 128.886 708.131 127.256 708.453 126.479C709.61 123.683 710.811 120.958 711.832 117.874C711.886 117.715 711.927 117.533 711.977 117.368C711.671 106.939 710.462 97.0684 708.532 88.1753C707.97 87.828 707.408 87.469 706.854 87.057C706.18 86.5567 705.505 85.9799 704.889 85.1618C704.209 84.2555 703.701 82.837 703.371 81.1832C702.664 77.6401 703.003 73.6438 702.582 69.9417C702.517 69.359 702.43 68.7999 702.329 68.2584C701.196 65.6335 699.981 63.2086 698.699 60.9897C699.348 63.6559 699.799 66.5928 699.837 69.6121C699.87 72.243 699.556 74.7385 699.214 77.2104C698.882 79.6235 698.551 82.1249 699.029 84.5674C700.061 89.8173 702.421 90.8826 704.558 91.9832C706.684 93.0838 707.566 96.6564 708.027 101.424C708.486 106.167 708.813 111.123 707.209 114.89C705.661 118.521 703.423 120.44 701.616 123.324C702.203 126.485 703.025 129.368 703.868 132.176C705.519 137.673 707.604 143.241 708.366 149.862C708.966 155.083 708.311 160.603 706.867 164.694C705.344 169.014 703.278 172.086 701.886 176.694C700.612 180.914 700.074 186.076 698.772 190.208C697.228 195.116 694.676 198.724 692.288 200.931C689.823 203.203 687.184 202.874 684.594 202.373C681.098 201.702 677.705 198.948 674.204 198.147C672.435 197.741 670.59 197.635 668.843 198.536C667.217 199.377 665.724 201.437 664.305 203.403C663.047 205.151 661.794 206.946 660.426 208.2C658.901 209.601 657.244 210.178 655.626 210.637C652.083 211.643 648.502 211.355 644.963 210.46C637.823 208.647 630.82 204.38 623.639 203.327C619.927 202.779 616.371 203.586 612.711 204.957C608.885 206.387 605.053 207.717 601.213 208.924C593.388 211.384 585.53 213.32 577.648 214.521C574.99 214.927 572.329 215.239 569.665 215.469H663.273C664.763 213.12 666.106 210.266 667.64 208.053C669.166 205.852 670.98 205.34 672.744 205.269C674.971 205.175 677.198 205.852 679.389 206.711C682.765 208.041 686.084 210.03 689.425 211.731C693.224 208.836 696.72 204.333 699.774 198.595C700.211 195.352 700.727 192.168 701.384 189.101C703.194 180.685 706.851 175.576 709.051 167.819C709.597 165.894 710.044 163.829 710.32 161.604C710.462 160.45 710.596 159.202 710.598 158.002C710.601 156.519 710.546 155.018 710.445 153.552C710.137 149.015 709.285 144.936 708.666 140.622C707.855 138.22 707.113 135.707 706.589 132.894C706.526 132.588 706.545 132.182 706.693 131.988Z" fill="#525252"/>
<path d="M582.683 51.8778C591.851 54.1379 601.073 55.7976 610.298 54.9737C612.642 54.7618 614.984 54.3969 617.32 53.8436C619.422 53.3492 621.482 52.2604 623.557 51.3717C625.508 50.5359 627.506 49.7943 629.496 50.0886C631.354 50.3652 632.874 52.9196 634.55 54.5087C638.527 58.2872 643.035 54.3145 646.802 51.0068C648.748 49.2941 650.702 47.6402 652.67 46.0864H645.707C644.542 46.9339 643.39 47.8815 642.238 48.6996C641.125 49.4942 639.99 50.2181 638.83 50.5124C637.708 50.7949 636.564 50.2946 635.478 49.6531C634.083 48.8232 632.746 47.5578 631.455 46.0864H565.658C565.235 46.469 564.81 46.8221 564.378 47.1576C570.484 48.6113 576.578 50.377 582.683 51.8778Z" fill="#525252"/>
<path d="M547.384 215.127C547.539 215.245 547.695 215.38 547.853 215.486H550.702C549.594 215.392 548.489 215.268 547.384 215.127Z" fill="#525252"/>
<g opacity="0.39">
<path d="M677.528 164.57C676.949 162.745 676.046 161.568 675.104 161.127C672.719 159.997 669.875 161.633 668.636 166.977C668.207 168.819 668 170.826 667.997 172.839C667.85 173.951 667.771 175.111 667.793 176.247C667.844 179.084 668.39 181.526 669.397 183.151C673.142 189.195 677.94 179.684 678.191 170.455C678.248 168.407 678.06 166.241 677.528 164.57Z" fill="#323232"/>
<path d="M690.544 174.687C690.326 173.151 689.914 172.003 689.39 170.973C689.215 170.631 689.024 170.325 688.822 170.078C688.544 169.737 688.243 169.384 687.932 169.225C687.496 169.007 687.081 168.942 686.641 169.178C685.88 169.584 685.236 170.673 684.796 172.168C684.772 172.25 684.753 172.332 684.731 172.415C684.646 172.786 684.556 173.174 684.502 173.586C684.436 174.098 684.384 174.645 684.376 175.181C684.368 175.599 684.384 176.023 684.403 176.446C684.376 176.794 684.349 177.141 684.341 177.488C684.316 178.295 684.354 179.201 684.48 179.96C684.646 180.967 684.856 181.743 685.23 182.409C685.618 183.091 686.128 183.368 686.6 183.421C687.217 183.492 687.82 183.091 688.396 182.609C688.928 182.161 689.409 181.384 689.813 180.466C690.435 179.042 690.831 176.705 690.544 174.687Z" fill="#323232"/>
<path d="M690.37 134.771C690.132 131.775 689.073 129.433 687.815 128.821C686.273 128.073 684.671 129.062 683.527 131.634C682.982 132.864 682.586 134.63 682.542 136.419C682.523 137.213 682.58 137.984 682.679 138.726C682.6 141.357 683.154 144.158 684.161 145.377C685.572 147.083 687.152 146.601 688.489 144.735C689.952 142.693 690.675 138.649 690.37 134.771Z" fill="#323232"/>
<path d="M657.056 154.823C657.034 154.629 656.988 154.476 656.917 154.364C656.838 154.134 656.732 153.987 656.603 153.916C656.573 153.899 656.546 153.881 656.516 153.869C656.415 153.828 656.311 153.799 656.21 153.763C656.197 153.757 656.186 153.757 656.172 153.752C656.033 153.722 655.875 153.787 655.744 153.822C655.727 153.828 655.711 153.834 655.694 153.846C655.572 153.922 655.452 154.005 655.334 154.122C654.99 154.458 654.663 155.094 654.469 155.823C654.376 156.135 654.319 156.477 654.3 156.842C654.256 157.165 654.253 157.495 654.294 157.83C654.333 158.025 654.371 158.219 654.409 158.413C654.488 158.695 654.595 158.89 654.728 158.996C654.81 159.119 654.903 159.184 655.001 159.184C655.14 159.255 655.28 159.249 655.419 159.178C655.452 159.213 655.482 159.249 655.512 159.278C655.623 159.361 655.738 159.372 655.85 159.325C655.935 159.325 656.016 159.284 656.093 159.202C656.224 159.125 656.347 158.984 656.456 158.79C656.527 158.648 656.595 158.507 656.666 158.366C656.718 158.207 656.772 158.048 656.824 157.889C656.887 157.683 656.923 157.454 656.942 157.212C656.939 157.236 656.939 157.254 656.936 157.277C656.95 157.142 656.966 157.006 656.988 156.877C656.996 156.83 657.004 156.783 657.01 156.736C657.015 156.689 657.018 156.641 657.026 156.594C657.04 156.483 657.056 156.377 657.075 156.271C657.095 156.065 657.111 155.865 657.13 155.659C657.146 155.364 657.122 155.082 657.056 154.823Z" fill="#323232"/>
<path d="M651.783 187.188C651.761 187.082 651.742 186.988 651.72 186.864C651.677 186.646 651.671 186.587 651.655 186.534C652.446 188.359 651.478 186.099 651.439 186.04L651.156 185.734C651.15 185.728 651.145 185.728 651.139 185.722C651.134 185.722 651.131 185.716 651.125 185.716C651.068 185.687 651.022 185.681 650.954 185.658C650.896 185.64 650.839 185.616 650.784 185.599C650.591 185.581 650.402 185.658 650.225 185.828C650.162 185.875 650.099 185.922 650.034 185.975C649.911 186.14 649.785 186.305 649.663 186.464C649.543 186.646 649.433 186.882 649.332 187.123C649.291 187.217 649.253 187.317 649.215 187.411C649.19 187.47 649.166 187.535 649.141 187.594C649.098 187.706 649.059 187.829 649.021 187.947C648.95 188.071 648.879 188.2 648.822 188.353C648.759 188.518 648.699 188.712 648.645 188.895C648.636 188.918 648.631 188.948 648.623 188.971C648.595 189.071 648.579 189.171 648.555 189.289C648.489 189.607 648.448 189.807 648.44 190.195C648.434 190.413 648.454 190.672 648.473 190.902C648.516 191.284 648.606 191.59 648.748 191.82C648.896 192.043 649.059 192.155 649.237 192.155C649.447 192.114 649.652 192.055 649.859 191.973C649.987 191.92 650.107 191.814 650.23 191.72C650.236 191.714 650.241 191.714 650.247 191.708C650.277 191.684 650.599 191.449 650.629 191.42C650.902 191.166 650.975 190.978 651.166 190.596C651.221 190.49 651.276 190.378 651.327 190.272C651.437 190.025 651.519 189.736 651.587 189.43L651.589 189.418L651.595 189.395C651.614 189.312 651.636 189.23 651.652 189.142C651.745 188.689 651.712 188.889 651.734 188.742C651.734 188.742 651.737 188.73 651.737 188.718C651.74 188.7 651.74 188.689 651.742 188.671L651.745 188.665L651.813 187.906C651.802 187.67 651.791 187.429 651.783 187.188Z" fill="#323232"/>
<path d="M651.783 187.188C652.361 190.149 651.774 187.1 651.783 187.188Z" fill="#323232"/>
</g>
<g opacity="0.39">
<path d="M64.4864 124.835C63.9078 123.011 63.0044 121.834 62.0628 121.386C59.6774 120.256 56.8336 121.893 55.5945 127.237C55.166 129.079 54.9586 131.092 54.9558 133.099C54.8085 134.211 54.7293 135.371 54.7511 136.507C54.803 139.343 55.3488 141.78 56.3559 143.41C60.1005 149.455 64.8958 139.944 65.1496 130.715C65.2042 128.673 65.0158 126.507 64.4864 124.835Z" fill="#323232"/>
<path d="M77.5001 134.954C77.2818 133.418 76.8697 132.27 76.3456 131.24C76.171 130.899 75.9799 130.593 75.778 130.345C75.4996 130.004 75.1994 129.651 74.8882 129.492C74.4515 129.274 74.0367 129.21 73.5973 129.439C72.8358 129.845 72.1917 130.934 71.7523 132.429C71.7278 132.511 71.7087 132.594 71.6896 132.682C71.605 133.053 71.5149 133.441 71.4603 133.853C71.3948 134.365 71.3429 134.913 71.3348 135.448C71.3266 135.866 71.3429 136.29 71.362 136.708C71.3347 137.055 71.3075 137.402 71.2993 137.749C71.2747 138.556 71.3129 139.462 71.4385 140.221C71.6049 141.228 71.8151 142.005 72.189 142.67C72.5766 143.353 73.0869 143.629 73.5591 143.682C74.1759 143.753 74.7791 143.353 75.3522 142.87C75.8844 142.423 76.3648 141.646 76.7687 140.728C77.391 139.309 77.7867 136.973 77.5001 134.954Z" fill="#323232"/>
<path d="M77.3255 95.0375C77.0881 92.0417 76.0291 89.6992 74.7709 89.0871C73.2289 88.3397 71.6269 89.3284 70.4833 91.9004C69.9374 93.1305 69.5417 94.8962 69.498 96.6854C69.4789 97.48 69.5362 98.251 69.6345 98.9926C69.5554 101.623 70.1121 104.425 71.1165 105.643C72.5275 107.35 74.1077 106.867 75.4451 105.002C76.9107 102.959 77.6312 98.9161 77.3255 95.0375Z" fill="#323232"/>
<path d="M44.0123 115.089C43.9904 114.895 43.944 114.742 43.8731 114.63C43.7912 114.401 43.6875 114.254 43.5592 114.183C43.5292 114.165 43.5019 114.148 43.4719 114.136C43.3709 114.095 43.2672 114.065 43.1662 114.03C43.1526 114.024 43.1416 114.024 43.128 114.018C42.9888 113.989 42.8305 114.054 42.6995 114.089C42.6831 114.095 42.6667 114.101 42.6504 114.112C42.5276 114.189 42.4075 114.271 42.2901 114.389C41.9462 114.724 41.6187 115.36 41.4249 116.09C41.3321 116.402 41.2776 116.743 41.2557 117.108C41.2121 117.432 41.2093 117.761 41.2503 118.097C41.2885 118.291 41.3267 118.485 41.3622 118.68C41.4413 118.962 41.5505 119.156 41.6815 119.262C41.7634 119.386 41.8562 119.451 41.9544 119.451C42.0936 119.521 42.2328 119.515 42.372 119.445C42.402 119.48 42.4348 119.515 42.4648 119.545C42.5767 119.627 42.6913 119.639 42.8032 119.592C42.8878 119.592 42.967 119.551 43.0461 119.468C43.1771 119.392 43.2999 119.25 43.4091 119.056C43.4801 118.915 43.5483 118.774 43.6193 118.633C43.6711 118.474 43.7257 118.315 43.7775 118.156C43.8403 117.95 43.8758 117.72 43.8949 117.479C43.8922 117.502 43.8922 117.526 43.8894 117.544C43.9004 117.408 43.9195 117.273 43.9413 117.143C43.9495 117.096 43.9577 117.055 43.9631 117.002C43.9686 116.955 43.9713 116.908 43.9768 116.861C43.9904 116.749 44.0068 116.643 44.0259 116.537C44.045 116.331 44.0614 116.131 44.0805 115.925C44.1023 115.625 44.0778 115.348 44.0123 115.089Z" fill="#323232"/>
<path d="M38.7392 147.454C38.7173 147.348 38.701 147.254 38.6764 147.131C38.6327 146.913 38.6273 146.854 38.6109 146.807C39.4024 148.631 38.4335 146.371 38.3953 146.313C38.3953 146.313 38.1142 146.007 38.1114 146.007C38.106 146.001 38.1005 146.001 38.0951 145.995C38.0896 145.995 38.0869 145.989 38.0814 145.989C38.0241 145.959 37.9777 145.954 37.9095 145.93C37.8522 145.912 37.7949 145.889 37.7403 145.871C37.5465 145.853 37.3582 145.93 37.1808 146.101C37.118 146.148 37.0552 146.195 36.9897 146.242C36.8669 146.407 36.7414 146.572 36.6185 146.736C36.4985 146.919 36.3893 147.154 36.2883 147.396C36.2474 147.49 36.2092 147.59 36.1709 147.684C36.1464 147.743 36.1218 147.807 36.0973 147.866C36.0536 147.978 36.0154 148.102 35.9772 148.225C35.9062 148.349 35.8353 148.478 35.7779 148.631C35.7152 148.796 35.6551 148.99 35.6005 149.173C35.5923 149.196 35.5869 149.22 35.5787 149.249C35.5514 149.35 35.535 149.45 35.5105 149.573C35.445 149.891 35.404 150.091 35.3958 150.48C35.3904 150.697 35.4095 150.956 35.4286 151.186C35.4723 151.568 35.5623 151.874 35.7042 152.104C35.8516 152.328 36.0154 152.439 36.1928 152.439C36.4029 152.398 36.6076 152.339 36.815 152.257C36.9406 152.204 37.0634 152.098 37.1862 152.004C37.1917 151.998 37.1971 151.998 37.2026 151.992C37.2326 151.969 37.5547 151.733 37.5847 151.704C37.8576 151.451 37.9313 151.262 38.1224 150.88C38.1769 150.774 38.2288 150.662 38.2834 150.556C38.3926 150.309 38.4744 150.02 38.5427 149.714C38.5427 149.709 38.5454 149.709 38.5454 149.703L38.5509 149.679C38.57 149.597 38.5918 149.514 38.6082 149.426C38.701 148.973 38.6682 149.173 38.69 149.02C38.69 149.014 38.6928 149.008 38.6928 149.002C38.6955 148.985 38.6982 148.973 38.6982 148.955L38.701 148.949L38.7692 148.19C38.7583 147.931 38.7501 147.696 38.7392 147.454Z" fill="#323232"/>
<path d="M38.7386 147.454C39.3172 150.409 38.7304 147.36 38.7386 147.454Z" fill="#323232"/>
</g>
<path d="M447.354 44.1331C442.941 44.0742 438.527 43.986 434.114 43.8741C429.712 43.7623 425.323 43.0914 420.921 42.9678C416.579 42.85 412.266 43.5504 407.976 45.1395C405.864 45.9223 403.882 47.5821 401.835 48.9593C399.799 50.3306 397.788 51.4607 395.689 52.1493C393.487 52.8732 391.289 53.6619 389.071 53.9914C386.884 54.321 384.696 54.2798 382.504 54.3917C380.263 54.5035 378.047 54.733 375.806 54.4564C373.697 54.2033 371.691 52.8732 369.608 52.267C365.121 50.9721 360.678 51.855 356.191 52.6201C353.904 53.0086 351.606 53.5265 349.314 53.5559C347.07 53.5795 344.824 53.2734 342.594 52.7496C341.407 52.4671 340.231 52.008 339.046 51.6902C337.859 51.3724 336.634 51.4253 335.444 51.6078C332.982 51.9786 330.542 53.0086 328.075 53.1851C325.577 53.3558 323.132 52.4377 320.711 51.0663C319.524 50.3954 318.334 49.7303 317.147 49.0476C315.85 48.3001 314.538 48.0706 313.222 47.5526C312.832 47.3996 312.21 48.8298 312.75 49.3301C313.738 50.2482 314.611 51.6196 315.594 52.5259C316.606 53.4676 317.613 54.4446 318.637 55.3275C320.67 57.0873 322.824 58.647 324.993 59.0884C327.209 59.5357 329.431 59.0001 331.636 58.441C333.861 57.8759 336.085 57.4757 338.309 56.9519C340.605 56.4104 342.867 56.4811 345.171 56.6635C347.452 56.846 349.718 56.6988 351.996 56.4045C354.284 56.1103 356.571 55.7395 358.858 55.4216C361.09 55.1097 363.358 54.5388 365.577 55.4216C366.513 55.7924 367.392 56.6223 368.287 57.3345C369.365 58.1879 370.49 58.8353 371.595 59.4886C373.76 60.7716 375.943 61.3014 378.173 61.319C380.454 61.3367 382.744 61.013 385.007 60.3126C387.261 59.6181 389.472 58.4233 391.713 57.5522C393.83 56.7283 395.984 56.1809 398.083 55.1391C400.067 54.1563 401.983 52.5671 403.97 51.6137C406.025 50.6308 408.074 50.4012 410.165 50.1835C412.351 49.9539 414.543 49.6832 416.726 49.2594C421.808 48.2648 426.898 47.2525 431.996 46.917C436.985 46.5874 441.983 46.7993 446.974 46.7404C447.591 46.7228 448.183 44.1449 447.354 44.1331Z" fill="#525252"/>
<path d="M71.9599 192.932C70.8245 194.921 69.5854 196.257 68.259 197.376C67.5221 197.993 66.7716 198.494 66.021 198.994C66.193 198.158 66.3622 197.323 66.5287 196.487C67.7869 190.154 69.1078 182.868 71.5969 178.642C72.1427 177.712 71.6979 176.211 71.1411 177.117C69.8502 179.23 68.6629 181.696 67.6831 184.592C66.6815 187.552 65.8873 190.89 65.1204 194.197C63.6302 200.624 62.4839 207.811 60.2569 213.09C59.9867 213.732 59.842 214.915 60.2023 215.533C60.5789 216.174 61.1111 215.538 61.3977 214.909C62.9179 211.542 64.0778 207.522 65.074 203.273C67.7405 201.183 70.3551 198.6 72.4047 193.956C72.7595 193.167 72.3147 192.308 71.9599 192.932Z" fill="#525252"/>
<path d="M36.6892 116.284C34.6423 117.608 32.5953 118.95 30.5811 120.539C29.5549 121.351 28.5233 122.152 27.4998 122.982C26.4764 123.811 25.4392 124.506 24.4731 125.665C23.99 126.248 23.8099 128.055 24.555 127.867C25.6057 127.596 26.5883 126.707 27.5817 125.907C28.0075 125.565 28.4278 125.206 28.8481 124.841C28.8644 124.859 28.8808 124.877 28.8999 124.888C31.1788 126.242 33.4687 127.608 35.8322 127.778C36.0506 127.796 36.2662 126.925 35.966 126.854C34.1046 126.401 32.3169 124.83 30.5511 123.352C30.5811 123.323 30.6112 123.299 30.6439 123.27C32.6827 121.463 34.6832 119.427 36.7492 117.79C37.1068 117.508 37.1668 115.972 36.6892 116.284Z" fill="#525252"/>
<path d="M251.521 184.645C250.582 187.247 249.6 189.678 248.751 192.461C248.546 193.132 248.355 193.815 248.17 194.51C248.072 193.391 247.954 192.285 247.812 191.208C247.283 187.194 246.565 183.321 245.888 179.437C245.782 178.819 245.329 179.366 245.397 179.943C245.872 183.933 246.308 187.947 246.598 192.038C246.748 194.127 246.914 196.205 246.974 198.318C246.988 198.753 246.985 199.189 246.988 199.618C246.873 200.195 246.759 200.772 246.65 201.355C246.218 203.709 245.891 206.104 245.855 208.688C245.845 209.577 245.896 210.495 245.787 211.36C245.675 212.249 245.408 212.508 245.069 212.955C244.668 213.491 244.504 215.592 245.17 215.451C246.298 215.215 247.256 213.473 247.782 211.16C248.304 208.876 248.424 206.322 248.604 204.009C248.847 200.913 249.499 197.576 250.064 194.563C250.651 191.426 251.328 188.153 252.168 185.352C252.485 184.304 251.794 183.892 251.521 184.645Z" fill="#525252"/>
<path d="M537.517 51.1481C536.321 51.0304 535.09 51.4541 533.903 51.719C532.757 51.9721 531.611 52.2605 530.467 52.5665C528.076 53.2022 525.675 53.7024 523.276 54.138C521.048 54.5441 518.832 53.8672 516.611 53.5965C514.288 53.314 512.004 53.0138 509.7 52.1957C506.867 51.1952 504.13 49.094 501.33 47.7345C501.046 47.5932 500.609 48.4348 500.89 49.0587C504.389 56.7924 509.763 58.8052 514.4 59.282C514.976 60.1825 515.473 61.1712 515.863 62.6309C516.188 63.8433 516.319 65.3029 516.502 66.6566C516.695 68.1162 516.946 69.5111 517.08 71.0061C517.369 74.2549 517.822 77.08 518.423 80.0699C518.764 81.7649 519.272 83.8719 519.042 85.7671C518.75 88.192 518.065 90.3402 517.689 92.7003C517.258 95.4077 517.137 98.3681 517.105 101.234C517.072 103.959 516.976 107.149 517.342 109.757C517.506 110.916 518.248 110.122 518.349 109.251C518.614 106.973 518.507 104.607 518.475 102.264C518.439 99.8395 518.434 97.3911 518.609 94.9957C518.764 92.8533 519.168 90.8993 519.536 88.9159C519.648 89.5456 519.76 90.1695 519.891 90.7698C519.962 91.0877 520.03 91.4114 520.096 91.7351C520.129 91.894 520.161 92.0588 520.194 92.2236C520.205 92.2824 520.221 92.3531 520.224 92.3766C520.235 92.4296 520.246 92.4884 520.257 92.5414C520.317 92.8592 520.374 93.1771 520.429 93.5008C520.475 93.7656 520.511 94.0775 520.582 94.3012C520.631 94.4542 520.699 94.5837 520.756 94.7191C520.887 95.0251 521.016 95.2311 521.212 95.2252C521.39 95.2194 521.556 95.1016 521.709 94.8956C522.028 94.4719 522.288 93.6891 522.219 92.7886C522.184 92.306 522.129 91.894 522.004 91.4938C521.908 91.1995 521.81 90.9052 521.712 90.6168C521.507 90.0283 521.297 89.4574 521.078 88.8982C520.737 88.0213 520.336 87.262 519.938 86.5087C520.052 85.6965 520.151 84.8725 520.2 84.0132C520.445 79.705 519.146 76.1913 518.851 72.0301C518.543 67.6748 519.124 62.3778 517.762 58.8111C519.064 58.3991 520.361 57.8165 521.671 57.3927C524.081 56.6158 526.491 55.9095 528.898 55.0679C530.249 54.597 531.605 54.2439 532.962 53.8967C534.422 53.5259 535.917 53.4494 537.367 52.9079C537.724 52.7902 538.063 51.2069 537.517 51.1481Z" fill="#525252"/>
<path d="M701.875 65.5387C701.34 64.0555 700.707 62.7666 700.06 61.5541C698.739 59.0763 697.426 56.4513 696.034 54.203C694.402 51.5663 692.527 49.6593 690.628 48.3704C689.648 47.7053 688.619 47.3816 687.604 47.2168C686.55 47.0462 685.576 47.4464 684.533 47.6053C684.157 47.6641 683.736 49.2474 684.288 49.2768C685.147 49.3239 686.059 50.1302 686.872 50.7776C687.71 51.4486 688.521 52.3255 689.323 53.2025C690.603 54.6032 691.815 56.363 692.994 58.2111C692.26 59.7767 691.594 61.5188 690.805 62.9137C690.09 64.1791 689.307 64.9501 688.504 65.8506C687.598 66.8629 686.719 68.0106 685.865 69.2407C682.571 73.9786 679.986 80.4292 677.159 86.4796C676.673 87.5213 677.372 88.3394 677.778 87.4683C680.513 81.6122 683.603 75.8796 686.927 71.9775C688.602 70.0117 690.445 68.9405 692.055 66.6864C692.672 65.8212 693.24 64.7735 693.799 63.7141C694.187 62.9725 694.618 62.1956 695.046 61.3776C696.124 62.8843 697.23 64.1085 698.406 65.3386C699.132 66.0919 699.836 66.9571 700.502 67.9635C700.846 68.4814 701.176 69.0406 701.474 69.6939C701.804 70.4119 702.014 71.1888 702.453 71.4772C702.707 71.6479 703.002 71.1241 703.032 70.5296C703.122 68.7463 702.342 66.8217 701.875 65.5387Z" fill="#525252"/>
<path d="M318.25 107.354C318.333 108.271 318.167 109.687 317.75 111.604C317.417 113.521 316.875 115.437 316.125 117.354C315.458 119.271 314.542 120.937 313.375 122.354C312.292 123.771 311.042 124.479 309.625 124.479C308.625 124.479 307.792 123.687 307.125 122.104C306.542 120.521 306.083 118.687 305.75 116.604C305.5 114.437 305.292 112.312 305.125 110.229C304.958 108.146 304.792 106.687 304.625 105.854C304.375 105.437 303.875 105.062 303.125 104.729C302.458 104.312 301.792 104.104 301.125 104.104C300.458 104.104 299.708 104.646 298.875 105.729C298.042 106.812 297.208 108.062 296.375 109.479C295.625 110.896 294.958 112.312 294.375 113.729C293.875 115.146 293.667 116.187 293.75 116.854C293.75 117.354 294.292 118.229 295.375 119.479C296.458 120.729 297.792 122.229 299.375 123.979C301.042 125.646 302.792 127.479 304.625 129.479C306.542 131.396 308.292 133.354 309.875 135.354C311.458 137.271 312.792 139.104 313.875 140.854C315.042 142.604 315.667 144.104 315.75 145.354C315.833 146.854 315.417 148.771 314.5 151.104C313.667 153.437 312.583 155.687 311.25 157.854C309.917 160.021 308.5 161.896 307 163.479C305.5 165.062 304.167 165.896 303 165.979C301.833 166.062 300.125 165.437 297.875 164.104C295.708 162.687 293.5 161.062 291.25 159.229C289.083 157.312 287.125 155.437 285.375 153.604C283.708 151.771 282.75 150.437 282.5 149.604C282.25 148.854 282.083 147.854 282 146.604C282 145.354 282.042 144.104 282.125 142.854C282.292 141.604 282.542 140.562 282.875 139.729C283.208 138.812 283.625 138.354 284.125 138.354C284.625 138.354 285.625 139.229 287.125 140.979C288.625 142.646 290.25 144.562 292 146.729C293.75 148.812 295.458 150.729 297.125 152.479C298.792 154.146 300 154.979 300.75 154.979C301.167 154.979 301.625 154.687 302.125 154.104C302.625 153.437 303.083 152.687 303.5 151.854C303.917 151.021 304.25 150.187 304.5 149.354C304.833 148.437 305 147.729 305 147.229C304.917 146.479 304.25 145.396 303 143.979C301.75 142.562 300.167 140.979 298.25 139.229C296.333 137.479 294.25 135.646 292 133.729C289.75 131.729 287.667 129.854 285.75 128.104C283.833 126.354 282.25 124.771 281 123.354C279.75 121.937 279.083 120.854 279 120.104C278.917 119.354 279.167 118.187 279.75 116.604C280.333 114.937 281.083 113.146 282 111.229C282.917 109.229 283.958 107.187 285.125 105.104C286.375 103.021 287.625 101.104 288.875 99.354C290.125 97.604 291.333 96.1873 292.5 95.104C293.75 93.9373 294.833 93.354 295.75 93.354C297.583 93.354 299.75 93.854 302.25 94.854C304.833 95.854 307.292 97.104 309.625 98.604C311.958 100.021 313.958 101.521 315.625 103.104C317.292 104.687 318.167 106.104 318.25 107.354ZM349.75 104.604C349.833 104.854 349.833 105.562 349.75 106.729C349.667 107.812 349.5 109.062 349.25 110.479C349.083 111.812 348.875 113.062 348.625 114.229C348.375 115.312 348.167 115.979 348 116.229C347.167 116.312 346.333 116.354 345.5 116.354C344.667 116.271 343.875 116.229 343.125 116.229H340.5C340.417 121.729 340.292 127.187 340.125 132.604C339.958 138.021 339.75 142.896 339.5 147.229C339.25 151.479 338.958 154.937 338.625 157.604C338.375 160.271 338.125 161.646 337.875 161.729C337.292 161.812 336.625 161.562 335.875 160.979C335.125 160.396 334.375 159.687 333.625 158.854C332.958 157.937 332.333 157.021 331.75 156.104C331.25 155.104 330.958 154.229 330.875 153.479C330.458 148.396 330.083 143.562 329.75 138.979C329.417 134.312 329.167 130.187 329 126.604C328.667 122.437 328.458 118.562 328.375 114.979C327.458 114.896 326.542 114.771 325.625 114.604C324.792 114.437 323.917 114.271 323 114.104C322.167 113.937 321.292 113.771 320.375 113.604C320.208 113.437 320 113.062 319.75 112.479C319.5 111.812 319.25 111.104 319 110.354C318.833 109.604 318.667 108.896 318.5 108.229C318.333 107.479 318.25 106.937 318.25 106.604C318.25 106.354 319.167 106.104 321 105.854C322.917 105.604 325.25 105.396 328 105.229C327.833 100.812 327.708 96.979 327.625 93.729C327.625 90.3957 327.75 88.1457 328 86.979C328.25 85.3957 328.917 83.8957 330 82.479C331.167 80.979 332.375 79.6873 333.625 78.604C334.958 77.5207 336.167 76.729 337.25 76.229C338.417 75.6457 339.167 75.479 339.5 75.729C339.75 75.8957 339.958 76.7707 340.125 78.354C340.292 79.854 340.417 81.8957 340.5 84.479C340.583 87.0623 340.625 90.104 340.625 93.604C340.625 97.0207 340.625 100.646 340.625 104.479C343.125 104.312 345.25 104.271 347 104.354C348.75 104.354 349.667 104.437 349.75 104.604ZM386.75 103.104C387.25 103.687 387.708 104.312 388.125 104.979C388.542 105.562 388.917 106.396 389.25 107.479C389.583 108.479 389.833 109.812 390 111.479C390.25 113.146 390.375 115.312 390.375 117.979C390.375 122.229 390.25 126.521 390 130.854C389.833 135.104 389.667 138.854 389.5 142.104C389.417 145.021 389.333 147.729 389.25 150.229C389.167 152.729 389.083 154.937 389 156.854C388.917 158.687 388.792 160.146 388.625 161.229C388.542 162.312 388.458 162.896 388.375 162.979C388.042 163.229 387.5 163.146 386.75 162.729C386.083 162.229 385.333 161.604 384.5 160.854C383.75 160.104 383.042 159.312 382.375 158.479C381.708 157.646 381.292 156.979 381.125 156.479C381.125 156.062 381 154.854 380.75 152.854C378.75 154.021 376.542 154.854 374.125 155.354C371.708 155.771 369.292 155.937 366.875 155.854C364.542 155.687 362.375 155.229 360.375 154.479C358.375 153.729 356.875 152.729 355.875 151.479C355.458 150.979 355.083 150.229 354.75 149.229C354.5 148.229 354.25 147.104 354 145.854C353.833 144.521 353.667 143.146 353.5 141.729C353.333 140.229 353.208 138.854 353.125 137.604C352.958 134.354 353.375 131.562 354.375 129.229C355.375 126.812 357.208 125.021 359.875 123.854C361.042 123.354 362.583 123.104 364.5 123.104C366.5 123.021 368.458 123.104 370.375 123.354C372.375 123.521 374.167 123.771 375.75 124.104C377.333 124.354 378.333 124.562 378.75 124.729C378.417 120.479 378.167 116.812 378 113.729C377.833 110.562 377.5 108.521 377 107.604C376.583 107.021 376.083 106.437 375.5 105.854C375 105.437 374.333 104.979 373.5 104.479C372.667 103.979 371.667 103.604 370.5 103.354C369.583 103.187 368.75 103.562 368 104.479C367.333 105.312 366.708 106.812 366.125 108.979C365.625 111.062 365.333 114.271 365.25 118.604C362.333 118.687 360.083 118.687 358.5 118.604C357 118.437 355.875 118.271 355.125 118.104C354.208 117.937 353.667 117.729 353.5 117.479C353.333 117.146 353.417 115.937 353.75 113.854C354.083 111.687 354.542 109.354 355.125 106.854C355.792 104.354 356.542 101.979 357.375 99.729C358.292 97.479 359.25 96.0623 360.25 95.479C362.25 94.3123 364.625 93.8957 367.375 94.229C370.208 94.5623 372.958 95.2707 375.625 96.354C378.292 97.4373 380.667 98.6457 382.75 99.979C384.833 101.312 386.167 102.354 386.75 103.104ZM379 139.604C379 139.187 379.042 138.646 379.125 137.979C379.208 137.229 379.25 136.479 379.25 135.729C379.25 134.979 379.208 134.271 379.125 133.604C379.125 132.937 379.042 132.437 378.875 132.104C378.625 131.604 377.875 131.187 376.625 130.854C375.458 130.521 374.125 130.312 372.625 130.229C371.125 130.062 369.708 130.021 368.375 130.104C367.042 130.104 366.125 130.271 365.625 130.604C364.958 131.021 364.458 131.604 364.125 132.354C363.875 133.104 363.708 134.271 363.625 135.854C363.625 136.604 363.667 137.396 363.75 138.229C363.833 139.062 363.917 139.896 364 140.729C364.167 141.479 364.333 142.146 364.5 142.729C364.75 143.312 365 143.687 365.25 143.854C365.833 144.271 366.833 144.646 368.25 144.979C369.75 145.229 371.25 145.312 372.75 145.229C374.25 145.062 375.625 144.562 376.875 143.729C378.125 142.896 378.833 141.521 379 139.604ZM425.5 100.729C426.167 101.146 426.792 101.979 427.375 103.229C428.042 104.396 428.625 105.771 429.125 107.354C429.708 108.854 430.167 110.479 430.5 112.229C430.917 113.979 431.25 115.604 431.5 117.104C431.833 118.604 432.042 119.896 432.125 120.979C432.208 121.979 432.208 122.604 432.125 122.854C431.958 123.187 431.458 123.521 430.625 123.854C429.875 124.187 428.75 124.562 427.25 124.979C425.75 125.396 423.667 125.854 421 126.354C420.833 121.771 420.5 118.312 420 115.979C419.5 113.562 418.958 111.854 418.375 110.854C417.708 109.687 417 109.104 416.25 109.104C415.5 109.437 414.833 109.854 414.25 110.354C413.667 110.771 413.167 111.229 412.75 111.729C412.25 112.312 411.792 112.937 411.375 113.604C411.208 113.854 411.042 114.437 410.875 115.354C410.708 116.271 410.542 117.646 410.375 119.479C410.375 120.062 410.333 121.271 410.25 123.104C410.25 124.937 410.208 127.062 410.125 129.479C410.125 131.896 410.083 134.437 410 137.104C410 139.771 409.958 142.271 409.875 144.604C409.875 146.854 409.833 148.771 409.75 150.354C409.75 151.937 409.708 152.854 409.625 153.104C409.458 153.521 409.042 154.104 408.375 154.854C407.708 155.604 406.958 156.312 406.125 156.979C405.292 157.562 404.5 158.062 403.75 158.479C403 158.812 402.5 158.771 402.25 158.354C402 158.104 401.75 157.021 401.5 155.104C401.25 153.187 400.958 150.854 400.625 148.104C400.375 145.271 400.083 142.187 399.75 138.854C399.417 135.521 399.125 132.312 398.875 129.229C398.625 126.146 398.417 123.396 398.25 120.979C398.083 118.479 397.958 116.687 397.875 115.604C397.792 114.021 397.708 112.271 397.625 110.354C397.542 108.437 397.458 106.646 397.375 104.979C397.375 103.229 397.375 101.729 397.375 100.479C397.458 99.1457 397.625 98.354 397.875 98.104C398.042 97.854 398.583 97.8123 399.5 97.979C400.5 98.0623 401.542 98.3123 402.625 98.729C403.792 99.0623 404.875 99.5207 405.875 100.104C406.875 100.687 407.542 101.229 407.875 101.729C408.125 102.146 408.375 102.771 408.625 103.604C410.208 102.771 411.708 102.021 413.125 101.354C414.625 100.604 416.042 100.062 417.375 99.729C418.792 99.3957 420.167 99.3123 421.5 99.479C422.833 99.5623 424.167 99.979 425.5 100.729ZM463.125 104.604C463.208 104.854 463.208 105.562 463.125 106.729C463.042 107.812 462.875 109.062 462.625 110.479C462.458 111.812 462.25 113.062 462 114.229C461.75 115.312 461.542 115.979 461.375 116.229C460.542 116.312 459.708 116.354 458.875 116.354C458.042 116.271 457.25 116.229 456.5 116.229H453.875C453.792 121.729 453.667 127.187 453.5 132.604C453.333 138.021 453.125 142.896 452.875 147.229C452.625 151.479 452.333 154.937 452 157.604C451.75 160.271 451.5 161.646 451.25 161.729C450.667 161.812 450 161.562 449.25 160.979C448.5 160.396 447.75 159.687 447 158.854C446.333 157.937 445.708 157.021 445.125 156.104C444.625 155.104 444.333 154.229 444.25 153.479C443.833 148.396 443.458 143.562 443.125 138.979C442.792 134.312 442.542 130.187 442.375 126.604C442.042 122.437 441.833 118.562 441.75 114.979C440.833 114.896 439.917 114.771 439 114.604C438.167 114.437 437.292 114.271 436.375 114.104C435.542 113.937 434.667 113.771 433.75 113.604C433.583 113.437 433.375 113.062 433.125 112.479C432.875 111.812 432.625 111.104 432.375 110.354C432.208 109.604 432.042 108.896 431.875 108.229C431.708 107.479 431.625 106.937 431.625 106.604C431.625 106.354 432.542 106.104 434.375 105.854C436.292 105.604 438.625 105.396 441.375 105.229C441.208 100.812 441.083 96.979 441 93.729C441 90.3957 441.125 88.1457 441.375 86.979C441.625 85.3957 442.292 83.8957 443.375 82.479C444.542 80.979 445.75 79.6873 447 78.604C448.333 77.5207 449.542 76.729 450.625 76.229C451.792 75.6457 452.542 75.479 452.875 75.729C453.125 75.8957 453.333 76.7707 453.5 78.354C453.667 79.854 453.792 81.8957 453.875 84.479C453.958 87.0623 454 90.104 454 93.604C454 97.0207 454 100.646 454 104.479C456.5 104.312 458.625 104.271 460.375 104.354C462.125 104.354 463.042 104.437 463.125 104.604Z" fill="#DFDFDF"/>
</svg>
