<svg width="59" height="71" viewBox="0 0 59 71" fill="none" xmlns="http://www.w3.org/2000/svg">
<g filter="url(#filter0_d_371_875)">
<path d="M41.2769 36.5501L41.1669 41.2801L38.3469 40.9501L40.2869 44.1401L36.8569 50.3801L33.6669 50.0001L34.9769 52.9101L30.3269 57.7601L27.1569 57.0901L27.8969 59.5101L22.2869 61.4601L13.9769 59.5001L8.31687 55.2301L4.29688 47.9901L4.33687 42.8001L6.98687 42.8201L5.29688 39.6901L8.26687 33.9301L11.5569 34.3801L10.2269 31.3001L14.8269 26.3101L18.6669 26.7201L17.6169 24.3001L22.5969 22.5601L27.1069 22.8601L39.3369 31.5601L41.2769 36.5501Z" fill="#7A944C"/>
<path d="M19.2971 61.3801L19.1171 61.5901C18.7871 61.9701 18.3971 62.2601 17.9671 62.4601C16.8071 63.0101 15.3871 62.9101 14.2871 62.0901L5.93705 55.8401C4.89705 55.0601 4.39705 53.8201 4.52705 52.6101C4.58705 51.9901 4.81706 51.3701 5.21706 50.8401L19.2971 61.3801Z" fill="#3B4F1B"/>
<path d="M19.2973 61.3801L19.1173 61.5901C18.7873 61.9701 18.3973 62.2601 17.9673 62.4601C10.1473 59.8501 4.52734 52.6101 4.52734 52.6101C4.58734 51.9901 4.81734 51.3701 5.21734 50.8401L19.2973 61.3801Z" fill="#2F3F10"/>
<path d="M42.0266 5.04008C38.9666 2.24008 33.9066 2.79008 30.7266 6.27008C27.5466 9.75008 27.4566 14.8401 30.5166 17.6401C33.5766 20.4401 38.6366 19.8901 41.8166 16.4101C44.9966 12.9301 45.0866 7.84008 42.0266 5.04008ZM40.9266 15.5901C38.8366 17.8801 35.8766 18.7701 33.4966 18.0501C32.7566 17.8301 32.0766 17.4601 31.4966 16.9201C29.0266 14.6601 29.2466 10.4101 31.9866 7.41008C34.7266 4.42008 38.9466 3.82008 41.4166 6.07008C41.6966 6.33008 41.9466 6.61008 42.1566 6.92008C43.7966 9.29008 43.3566 12.9301 40.9266 15.5801V15.5901Z" fill="#5A788F"/>
<path d="M43.2372 44.8601L31.9272 59.1901C31.3172 59.9701 30.3172 60.25 29.4172 59.9901C29.1572 59.91 28.8972 59.7901 28.6672 59.6201C28.6472 59.6101 28.6372 59.6001 28.6172 59.5801L40.7972 44.1001C41.8072 42.8201 42.2872 41.2001 42.1272 39.5701L41.3472 31.2301C41.3172 30.9501 41.3172 30.6701 41.3472 30.3901C41.3772 30.1101 41.4272 29.8301 41.5072 29.5601C41.6572 29.0301 41.9072 28.5301 42.2372 28.0901L44.0572 25.6601C44.2872 25.3501 44.2272 24.9201 43.9172 24.6901L40.9572 22.4701C40.3072 21.9801 40.1772 21.0601 40.6572 20.4101L51.3072 6.18005C51.4372 6.27005 51.5572 6.35005 51.6672 6.41005C51.8472 6.50005 52.0172 6.55005 52.1672 6.57005C52.3472 6.59005 52.4972 6.57005 52.6272 6.55005C52.9372 6.47005 53.1072 6.28005 53.1072 6.28005C53.7472 6.76005 53.8772 7.67005 53.3972 8.31005L43.5372 21.4801L45.8872 23.2401C46.9072 24.0101 47.1172 25.4601 46.3572 26.4801L44.6572 28.7601C43.9872 29.6601 43.6672 30.7801 43.7772 31.9001L44.5672 40.3201C44.7172 41.9501 44.2372 43.5701 43.2272 44.8501L43.2372 44.8601Z" fill="#738FA4"/>
<path d="M41.997 44.8401L30.687 59.1701C30.357 59.5901 29.907 59.8701 29.427 59.9901C29.167 59.9101 28.907 59.7901 28.677 59.6201C28.657 59.6101 28.647 59.6001 28.627 59.5801L40.807 44.1001C41.817 42.8201 42.297 41.2001 42.137 39.5701L41.357 31.2301C41.327 30.9501 41.327 30.6701 41.357 30.3901C41.387 30.1101 41.437 29.8301 41.517 29.5601C41.667 29.0301 41.917 28.5301 42.247 28.0901L44.067 25.6601C44.297 25.3501 44.237 24.9201 43.927 24.6901L40.967 22.4701C40.317 21.9801 40.187 21.0601 40.667 20.4101L51.037 6.55006C51.177 6.55006 51.297 6.55006 51.397 6.52006C51.507 6.49006 51.607 6.45006 51.677 6.40006C51.807 6.32006 51.8769 6.25006 51.8769 6.25006C51.997 6.34006 52.097 6.45006 52.187 6.56006C52.547 7.06006 52.5569 7.76006 52.167 8.28006L42.307 21.4501L44.657 23.2101C45.677 23.9801 45.887 25.4301 45.127 26.4501L43.427 28.7301C42.757 29.6301 42.437 30.7501 42.547 31.8701L43.337 40.2901C43.487 41.9201 43.007 43.5401 41.997 44.8201V44.8401Z" fill="#5A788F"/>
<path d="M32.7366 25.4401L29.9166 28.4301L27.0266 31.7101L24.0566 31.1101C24.0566 31.1101 29.0266 26.7201 32.7366 25.4401Z" fill="#59702D"/>
<path d="M34.9667 27.05C34.9667 27.05 34.4067 31.25 31.7467 36.85L31.3867 34.8301L33.2567 30.94L34.9567 27.05H34.9667Z" fill="#9CB06A"/>
<path d="M14.2074 49.5901L12.2274 46.8501C12.2274 46.8501 9.14738 51.5701 8.31738 55.2301L10.3474 55.7801L14.2074 49.5901Z" fill="#59702D"/>
<path d="M20.8073 53.3101C20.8073 53.3101 17.2273 57.7501 13.9873 59.5001L12.9873 57.4101L17.3073 52.2201L20.8073 53.3001V53.3101Z" fill="#9CB06A"/>
<path d="M19.2175 41.8601L17.0975 39.0301C17.0975 39.0301 12.9875 43.3201 12.2275 46.8601L14.8075 48.4901L19.2275 41.8601H19.2175Z" fill="#59702D"/>
<path d="M23.7569 44.8601L26.6569 46.0001C26.6569 46.0001 23.9269 51.4001 20.8069 53.3101L19.0469 51.4801L23.7669 44.8601H23.7569Z" fill="#9CB06A"/>
<path d="M25.2267 33.41L24.0567 31.11C24.0567 31.11 20.3767 33.57 17.0967 39.03L20.2967 40.17L25.2267 33.42V33.41Z" fill="#59702D"/>
<path d="M31.7573 36.8501L29.7173 36.5201L24.7373 43.4801L26.6673 45.9901C26.6673 45.9901 31.8473 39.7701 31.7673 36.8501H31.7573Z" fill="#9CB06A"/>
<path d="M35.5146 19.563L39.9094 22.8532C41.3824 23.9559 41.6842 26.0556 40.5815 27.5286L39.9343 28.3932L30.1919 21.0996L30.8391 20.2351C31.9419 18.7621 34.0416 18.4603 35.5146 19.563Z" fill="#738FA4"/>
<path d="M32.2675 50.8801C32.2675 50.8801 23.3375 64.4001 13.9775 59.5101C31.6475 45.7901 34.8575 27.6701 34.9675 27.0701C38.7875 30.1201 38.9275 33.3201 39.4775 36.5801C39.7375 38.1401 32.2675 50.8801 32.2675 50.8801Z" fill="#59702D"/>
<path d="M8.31666 55.2301C8.09666 55.0001 7.87666 54.7701 7.67666 54.5401C6.85666 53.6101 3.81666 47.7701 8.90666 39.5401C13.7267 31.7401 17.0967 28.8301 20.7167 26.2401C23.9167 23.9401 29.1467 23.1601 32.7467 25.4401C32.7467 25.4401 18.3167 30.5401 8.32666 55.2301H8.31666Z" fill="#A5BC72"/>
<path d="M40.9068 23.6001L34.5268 18.8201C34.3268 18.6701 34.2768 18.3801 34.4368 18.1701C34.5868 17.9701 34.8768 17.9201 35.0868 18.0801L41.4668 22.8601C41.6668 23.0101 41.7168 23.3001 41.5568 23.5101C41.4068 23.7101 41.1168 23.7601 40.9068 23.6001Z" fill="#496278"/>
<path d="M54.2769 4.76007L40.9869 22.5101L35.5469 18.4401L48.8369 0.690074C49.3569 -0.00992626 50.3469 -0.149926 51.0369 0.370074L53.9569 2.56007C54.6569 3.08007 54.7969 4.07007 54.2769 4.76007Z" fill="#738FA4"/>
<path d="M24.5272 33.1601L29.9672 37.2301L25.7172 43.6701L19.9072 39.3201L24.5272 33.1601Z" fill="#7A944C"/>
<path d="M18.3473 41.8301L23.9473 46.0301L19.8173 51.5501L14.4473 47.5401L18.3473 41.8301Z" fill="#7A944C"/>
<path d="M13.2568 50.1401L17.7768 53.5201L14.0068 57.8901L10.0068 54.8901L13.2568 50.1401Z" fill="#7A944C"/>
<path d="M27.8973 59.5101C26.1373 60.5701 24.2673 61.2601 22.2873 61.4601L20.2373 60.1201L24.0173 57.5201C25.8773 58.7901 27.8873 59.5101 27.8873 59.5101H27.8973Z" fill="#7A944C"/>
<path d="M29.6375 28.2301L33.3875 31.0401L31.3875 34.8301L26.6475 31.2801L29.6375 28.2301Z" fill="#7A944C"/>
<path d="M41.1672 41.2801L37.1172 39.1101L38.2872 34.6901L41.2872 36.5401C41.5472 38.1001 41.4972 39.6801 41.1672 41.2801Z" fill="#7A944C"/>
<path d="M19.1973 29.1701L13.9173 34.8301C13.9173 34.8301 11.3973 33.0001 10.2273 31.2901L10.1973 31.2301C11.6673 29.3401 13.2073 27.6701 14.8173 26.3101L19.1973 29.1701Z" fill="#6B823D"/>
<path d="M8.42684 42.65C8.42684 42.65 6.27684 41.01 5.29684 39.68L5.25684 39.6C5.98684 37.7 7.01684 35.8 8.26684 33.92L11.8368 37.19L8.43684 42.64L8.42684 42.65Z" fill="#6B823D"/>
<path d="M6.15706 49.5701L4.29706 47.9801C3.80706 46.2001 3.99706 44.5401 4.33706 42.7901C4.33706 42.7901 5.84706 43.7701 7.58706 45.2001L6.15706 49.5601V49.5701Z" fill="#6B823D"/>
<path d="M17.6172 24.3001L21.1872 27.5701L25.2172 24.9201L22.5972 22.5601C21.0272 22.7501 19.0572 23.5401 17.6172 24.3001Z" fill="#6B823D"/>
<path d="M41.1668 41.2801L38.3468 40.9501L31.7568 36.8501L37.1168 39.1201L41.1668 41.2801Z" fill="#6B823D"/>
<path d="M32.1272 48.0301L26.6572 46.0001L33.6672 50.0001L36.8572 50.3801L32.1272 48.0301Z" fill="#6B823D"/>
<path d="M36.857 50.38C34.877 49.77 32.127 48.03 32.127 48.03L35.887 41.67L40.277 44.15L39.977 44.94C39.197 46.75 38.127 48.56 36.847 50.39L36.857 50.38Z" fill="#7A944C"/>
<path d="M26.1666 55.6201L20.8066 53.3101L27.1566 57.0901L30.3266 57.7601L26.1666 55.6201Z" fill="#6B823D"/>
<path d="M34.977 52.9101C33.497 54.7601 31.957 56.4101 30.337 57.7601C28.787 57.2401 26.167 55.6201 26.167 55.6201L30.737 50.4801L34.977 52.9001V52.9101Z" fill="#7A944C"/>
<path d="M13.2575 50.1401L12.2275 46.8601L20.8075 53.3101L17.7775 53.5201L13.2575 50.1401Z" fill="#96AB61"/>
<path d="M18.3467 41.8301L17.0967 39.0301L26.6567 46.0001L23.9467 46.0301L18.3467 41.8301Z" fill="#96AB61"/>
<path d="M24.5266 33.16L24.0566 31.11L31.7566 36.85L29.9666 37.23L24.5266 33.16Z" fill="#96AB61"/>
<path d="M18.6672 26.7201L24.0572 31.1101L21.1872 27.57L17.6172 24.3L18.6672 26.7201Z" fill="#59702D"/>
<path d="M13.9169 34.83L17.0969 39.03L11.5569 34.38C11.5569 34.38 10.1469 31.18 10.2269 31.3C10.3069 31.42 13.9169 34.84 13.9169 34.84V34.83Z" fill="#59702D"/>
<path d="M8.42687 42.6501L12.2269 46.8601L6.98687 42.8201L5.29688 39.6901L8.42687 42.6501Z" fill="#59702D"/>
<path d="M8.31664 55.2301C6.05664 52.9901 4.71664 50.4501 4.30664 47.9801L6.16664 49.5701L8.31664 55.2301Z" fill="#59702D"/>
<path d="M22.2875 61.4601C19.7275 61.7101 16.9675 61.1501 13.9775 59.5101L20.2375 60.1201L22.2875 61.4601Z" fill="#6B823D"/>
<path d="M7.58691 45.21L12.2269 46.8601L6.98691 42.82L4.33691 42.8L7.58691 45.21Z" fill="#96AB61"/>
<path d="M20.8066 53.3101L24.0266 57.5201C24.0266 57.5201 26.0766 58.9601 27.8966 59.5101L27.1566 57.0901L20.8066 53.3101Z" fill="#96AB61"/>
<path d="M11.8266 37.2001L17.0966 39.0301L11.5566 34.3801L8.2666 33.9301L11.8266 37.2001Z" fill="#96AB61"/>
<path d="M26.6572 46.0001L30.7272 50.4801L34.9772 52.9101L33.6672 50.0001L26.6572 46.0001Z" fill="#96AB61"/>
<path d="M31.7568 36.8501L35.8868 41.6701L40.2868 44.1401L38.3468 40.9501L31.7568 36.8501Z" fill="#96AB61"/>
<path d="M19.1971 29.1701L24.0571 31.1101L18.6672 26.7201L14.8271 26.3101L19.1971 29.1701Z" fill="#96AB61"/>
<path d="M22.5967 22.5601C22.5967 22.5601 27.8667 21.7901 32.7367 25.4401C32.7367 25.4401 29.1467 24.6501 25.2167 24.9101L22.5967 22.5501V22.5601Z" fill="#96AB61"/>
<path d="M34.9668 27.05C34.9668 27.05 37.5368 31.6101 38.2768 34.7001L41.2768 36.55C41.2768 36.55 40.1968 30.14 34.9668 27.05Z" fill="#96AB61"/>
<path d="M17.0967 39.0301L19.9067 39.3201L25.7167 43.6701L26.6567 46.0001L17.0967 39.0301Z" fill="#6B823D"/>
<path d="M12.2275 46.8601L14.4475 47.5401L19.8175 51.5501L20.8075 53.3101L12.2275 46.8601Z" fill="#6B823D"/>
<path d="M24.0566 31.11L26.6466 31.28L31.3866 34.83L31.7566 36.85L24.0566 31.11Z" fill="#6B823D"/>
<path d="M29.6367 28.2301C29.6367 28.2301 31.7767 26.3101 32.7367 25.4501L34.9667 27.0601C34.9667 27.0601 33.8267 29.8301 33.3867 31.0501L29.6367 28.2401V28.2301Z" fill="#96AB61"/>
<path d="M13.9766 59.5001C13.0066 58.9701 12.0166 58.3301 10.9966 57.5601C9.97664 56.7901 9.08664 56.0201 8.30664 55.2301L9.99664 54.8901L13.9966 57.8901L13.9666 59.5101L13.9766 59.5001Z" fill="#6F8242"/>
<path d="M40.5372 29.9501L39.3372 31.5601L39.3172 31.5401C38.9872 31.4901 36.1872 31.0201 32.3072 28.1101C28.1272 24.9801 27.1172 22.8601 27.1172 22.8601L28.5372 20.9601C28.6572 20.8101 28.7872 20.6701 28.9272 20.5601C29.4872 20.1201 30.2172 19.9801 30.8972 20.1701C31.1472 20.2401 31.3772 20.3601 31.5972 20.5201L40.1072 26.8901C41.0772 27.6101 41.2672 28.9801 40.5472 29.9501H40.5372Z" fill="#3B4F1B"/>
<path d="M39.347 31.5501H39.327C38.997 31.5001 36.197 31.0301 32.317 28.1201C28.137 24.9901 27.127 22.8701 27.127 22.8701L28.547 20.9701C28.667 20.8201 28.797 20.6801 28.937 20.5701C28.937 20.5701 28.787 25.5701 39.357 31.5601L39.347 31.5501Z" fill="#2F3F10"/>
<path d="M40.5367 29.9501L39.3367 31.5601C39.3367 31.5601 39.4667 29.1801 37.4267 26.5201C35.3867 23.8501 30.8867 20.1801 30.8867 20.1801C31.1367 20.2501 31.3667 20.3701 31.5867 20.5301L40.0967 26.9001C41.0667 27.6201 41.2567 28.9901 40.5367 29.9601V29.9501Z" fill="#4F6628"/>
<path d="M54.2769 4.76006L40.9869 22.5101L35.5469 18.4401C42.2569 20.0401 53.9569 2.56006 53.9569 2.56006C54.6569 3.08006 54.7969 4.07006 54.2769 4.76006Z" fill="#81A1B5"/>
<path d="M52.5066 1.46007C52.5066 1.46007 50.7166 0.380074 48.5966 2.91007C46.4766 5.44007 35.5566 18.4401 35.5566 18.4401L48.8466 0.690074C49.3666 -0.00992626 50.3566 -0.149926 51.0466 0.370074L52.5066 1.46007Z" fill="#648396"/>
<path d="M43.9834 15.8701L46.0968 17.4523L43.9213 20.3582L41.808 18.776C41.1996 18.3205 41.0768 17.4666 41.5323 16.8583L42.0657 16.1458C42.5211 15.5374 43.375 15.4146 43.9834 15.8701Z" fill="#496278"/>
<path d="M43.4068 19.24L42.5568 18.31C42.1668 17.88 42.1968 17.22 42.6268 16.84C43.0568 16.45 43.7168 16.48 44.0968 16.91L44.9468 17.84L43.4068 19.24Z" fill="#2F4B61"/>
<path d="M48.8443 21.3847L43.5889 17.1968L43.1402 17.7599L48.3956 21.9478L48.8443 21.3847Z" fill="#648396"/>
<path d="M43.277 17.8601L37.127 15.1401L37.417 14.4801L43.587 17.1901L43.277 17.8601Z" fill="#648396"/>
<path d="M33.4975 18.0501C33.4975 18.0501 31.0275 17.5101 29.5575 15.1001C28.0875 12.6901 29.5075 5.82008 35.0575 4.62008C40.5175 3.44008 42.1075 6.82008 42.1575 6.93008C41.9475 6.62008 41.6975 6.34008 41.4175 6.08008C38.9475 3.82008 34.7275 4.42008 31.9875 7.42008C29.2475 10.4101 29.0275 14.6701 31.4975 16.9301C32.0775 17.4601 32.7575 17.8401 33.4975 18.0601V18.0501Z" fill="#738FA4"/>
</g>
<defs>
<filter id="filter0_d_371_875" x="0" y="0.0563965" width="58.5908" height="70.7476" filterUnits="userSpaceOnUse" color-interpolation-filters="sRGB">
<feFlood flood-opacity="0" result="BackgroundImageFix"/>
<feColorMatrix in="SourceAlpha" type="matrix" values="0 0 0 0 0 0 0 0 0 0 0 0 0 0 0 0 0 0 127 0" result="hardAlpha"/>
<feOffset dy="4"/>
<feGaussianBlur stdDeviation="2"/>
<feComposite in2="hardAlpha" operator="out"/>
<feColorMatrix type="matrix" values="0 0 0 0 0 0 0 0 0 0 0 0 0 0 0 0 0 0 0.25 0"/>
<feBlend mode="normal" in2="BackgroundImageFix" result="effect1_dropShadow_371_875"/>
<feBlend mode="normal" in="SourceGraphic" in2="effect1_dropShadow_371_875" result="shape"/>
</filter>
</defs>
</svg>
