<svg width="76" height="58" viewBox="0 0 76 58" fill="none" xmlns="http://www.w3.org/2000/svg">
<g filter="url(#filter0_d_371_850)">
<path d="M41.873 23.5001L39.053 29.3601L28.983 26.0701L28.333 28.0701L38.143 31.2701L39.213 31.6201L40.293 31.9701L44.013 24.2001L41.873 23.5001Z" fill="#8B6E80"/>
<path d="M21.5734 8.58005L17.7334 7.33005L20.6134 2.11005L23.3834 3.01005L21.5734 8.58005Z" fill="#78586C"/>
<path d="M65.6631 26.8201L17.6631 11.1301L22.0331 4.90009L67.9231 19.9001L65.6631 26.8201Z" fill="#8B6E80"/>
<path d="M68.6732 20.14L22.0332 4.90005L23.4932 3.05005L69.3632 18.0401L68.6732 20.14Z" fill="white"/>
<path d="M67.4972 21.199L65.6611 26.8166L69.7864 28.1649L71.6225 22.5474L67.4972 21.199Z" fill="#78586C"/>
<path d="M61.2962 13.2997L60.6748 15.2007L67.1098 17.304L67.7311 15.4029L61.2962 13.2997Z" fill="#78586C"/>
<path d="M51.9832 25.1201L50.3232 24.5801L54.0932 18.6601L55.7432 19.2001L51.9832 25.1201Z" fill="#78586C"/>
<path d="M53.6328 25.66L57.3928 19.7401L59.0428 20.28L55.2828 26.2001" fill="#78586C"/>
<path d="M56.9326 26.7401L60.6926 20.8201L62.3526 21.3601L58.5826 27.2801" fill="#78586C"/>
<path d="M28.6033 4.72007L20.6133 2.11007L21.5833 0.320068L29.2233 2.81007L28.6033 4.72007Z" fill="#78586C"/>
<path d="M23.2224 7.65599L22.6787 9.3194L30.6535 11.926L31.1972 10.2626L23.2224 7.65599Z" fill="#78586C"/>
<path d="M22.0132 44.8401L6.74316 39.8501L18.9332 14.3201L34.2032 19.3101L22.0132 44.8401Z" fill="#78586C"/>
<path d="M21.2429 42.5801L9.50293 38.7401L18.8729 19.1301L30.6029 22.9701L21.2429 42.5801Z" fill="#8B6E80"/>
<path d="M14.0527 15.49C14.0527 15.49 18.8027 17.04 17.1027 22.25L25.5727 20.55L25.1127 15.37L14.8727 12.98L14.0527 15.48V15.49Z" fill="#78586C"/>
<path d="M22.4127 30.2101C22.7627 29.1401 22.1727 27.9801 21.1027 27.6301C20.0327 27.2801 18.8827 27.8601 18.5227 28.9401C18.1627 30.0201 18.7527 31.1701 19.8327 31.5201C20.9127 31.8701 22.0627 31.2901 22.4127 30.2101Z" fill="#78586C"/>
<path d="M19.273 37.22C19.623 36.15 19.033 35 17.963 34.64C16.893 34.28 15.743 34.87 15.383 35.95C15.023 37.03 15.613 38.18 16.693 38.53C17.773 38.88 18.923 38.3 19.273 37.22Z" fill="#78586C"/>
<path d="M22.2031 47.3301L4.70312 41.6101L6.74312 39.8501L22.0131 44.8401L22.2031 47.3301Z" fill="#8B6E80"/>
<path d="M4.70213 41.6173L4 43.7654L21.499 49.485L22.2011 47.3368L4.70213 41.6173Z" fill="#78586C"/>
<path d="M12.263 9.37006L10.623 14.3801L34.133 22.0601C34.223 23.5001 35.153 24.8001 36.603 25.2801L37.003 24.0601C36.493 23.6901 36.093 23.1901 35.833 22.6201L42.083 24.6601L39.273 30.5301L29.203 27.2401L28.553 29.2301L38.363 32.4401L39.433 32.7901L40.503 33.1401L44.233 25.3701L64.013 31.8301L65.653 26.8201L12.263 9.37006Z" fill="#78586C"/>
<path d="M23.293 3.29007L23.493 3.05007L23.383 3.01007L23.293 3.29007Z" fill="#78586C"/>
<g style="mix-blend-mode:multiply" opacity="0.25">
<path d="M30.7029 26.6401L33.0529 21.7101L34.1329 22.0601C34.2229 23.5001 35.1529 24.8001 36.6029 25.2801L37.0029 24.0601C36.4929 23.6901 36.0929 23.1901 35.8329 22.6201L40.0129 23.9901L44.6029 9.96009L28.5929 4.73009L29.2129 2.83009L21.5829 0.340088L20.6129 2.13009L17.7329 7.35009L19.8429 8.04009L17.6629 11.1601L12.2629 9.39009L10.6229 14.4001L14.0429 15.5201C14.0429 15.5201 16.1629 16.2201 17.0629 18.2301L6.73293 39.8701L4.70293 41.6401L4.00293 43.7901L21.5029 49.5101L22.2029 47.3601L22.0129 44.8701L29.3429 29.5101L37.3629 32.1301L38.3329 29.1601L30.6929 26.6601L30.7029 26.6401ZM23.2929 3.29009L23.3829 3.01009L23.4829 3.04009L23.2929 3.29009Z" fill="#78586C"/>
</g>
</g>
<defs>
<filter id="filter0_d_371_850" x="0" y="0.320068" width="75.6221" height="57.19" filterUnits="userSpaceOnUse" color-interpolation-filters="sRGB">
<feFlood flood-opacity="0" result="BackgroundImageFix"/>
<feColorMatrix in="SourceAlpha" type="matrix" values="0 0 0 0 0 0 0 0 0 0 0 0 0 0 0 0 0 0 127 0" result="hardAlpha"/>
<feOffset dy="4"/>
<feGaussianBlur stdDeviation="2"/>
<feComposite in2="hardAlpha" operator="out"/>
<feColorMatrix type="matrix" values="0 0 0 0 0 0 0 0 0 0 0 0 0 0 0 0 0 0 0.25 0"/>
<feBlend mode="normal" in2="BackgroundImageFix" result="effect1_dropShadow_371_850"/>
<feBlend mode="normal" in="SourceGraphic" in2="effect1_dropShadow_371_850" result="shape"/>
</filter>
</defs>
</svg>
