<svg width="1448" height="237" viewBox="0 0 1448 237" fill="none" xmlns="http://www.w3.org/2000/svg">
<path d="M1422.19 195.86C1425.99 184.69 1433.65 177.912 1438.27 167.617C1439.41 165.064 1440.35 162.318 1440.93 159.371C1441.23 157.839 1441.51 156.188 1441.51 154.591C1441.52 152.621 1441.4 150.63 1441.19 148.687C1440.55 142.665 1438.76 137.258 1437.46 131.528C1435.76 128.344 1434.21 125.009 1433.11 121.275C1432.98 120.838 1433.02 120.298 1433.33 120.039C1434.31 119.23 1435.29 118.393 1436.27 117.573C1436.28 117.482 1436.28 117.39 1436.28 117.298C1436.38 115.922 1436.34 113.764 1437.01 112.733C1439.43 109.026 1441.95 105.405 1444.1 101.315C1444.21 101.099 1444.3 100.862 1444.4 100.646C1443.76 86.8047 1441.23 73.7083 1437.18 61.9124C1436 61.4484 1434.83 60.9789 1433.67 60.4339C1432.25 59.7702 1430.84 59.0093 1429.54 57.9193C1428.12 56.7214 1427.06 54.8381 1426.36 52.6365C1424.88 47.9365 1425.59 42.6267 1424.7 37.7217C1424.56 36.95 1424.38 36.2108 1424.17 35.4877C1411.77 17.319 1394.77 6.05733 1376.06 6.05733H1305.45C1303 7.17972 1300.59 8.44241 1298.17 9.52702C1295.84 10.5793 1293.46 11.5452 1291.03 11.9337C1288.68 12.3114 1286.28 11.6477 1284 10.7897C1281.07 9.68891 1278.27 8.01072 1275.57 6.05733C1267.37 0.143198 1237.09 6.05733 1227.52 6.05733C1197.54 6.05733 1167.57 6.05733 1137.59 6.05733C1135.23 7.41175 1132.83 8.56112 1130.36 9.36514C1128.85 9.85619 1127.31 10.1692 1125.8 10.6386C1124.09 11.1674 1122.37 11.5883 1120.64 11.9391C1113.55 13.3583 1106.36 13.477 1099.22 13.4284C1066.89 13.2018 1037.64 28.2299 1006.54 11.0325C1003.66 9.43529 1000.83 7.63839 997.693 6.76962C994.887 5.99258 991.957 5.99258 989.064 6.00337C951.955 6.1005 914.846 6.06812 877.743 6.06812C858.614 6.06812 836.705 2.7765 817.765 6.06812C809.509 7.57364 801.312 9.53242 793.153 12.1657C768.671 20.0548 741.21 18.7112 715.126 17.6212C688.469 16.5096 660.226 23.368 634.162 18.2957C628.518 17.1949 622.933 15.5437 617.402 13.5471C611.342 11.3617 605.347 8.77697 599.358 6.06812C584.605 -0.558297 556.027 6.06812 539.973 6.06812C527.886 6.06812 510.986 2.64699 499.227 6.06812C494.274 7.50888 489.293 8.74999 484.264 9.5702C477.972 10.5955 471.508 11.1243 465.194 10.1961C461.762 9.68891 458.325 9.19786 454.888 8.69602C449.146 7.85423 443.41 6.98546 437.674 6.07351H355.195C354.752 6.26238 354.299 6.43506 353.862 6.6563C352.345 7.42794 350.894 8.43701 349.54 9.71049C348.73 10.4713 347.958 11.3293 347.241 12.2682C346.734 12.932 346.334 13.8709 345.617 13.8871C342.692 13.9572 339.702 12.4625 337.145 10.4498C335.596 9.23024 334.139 7.73552 332.779 6.06272C280.329 6.06272 227.874 6.32713 175.423 5.85767C170.502 5.8145 165.106 5.9494 161.377 9.43529C157.989 12.6028 156.046 18.3928 151.594 18.8407C148.54 19.1483 145.95 16.6445 143.5 14.6371C124.727 -0.703994 93.4943 6.05733 71.381 6.05733C57.1731 6.05733 27.3704 16.9089 28.4442 37.031C28.6385 40.6248 30.0361 44.17 29.4695 47.7153C28.6115 53.106 11.9969 61.8207 8.43545 70.1523C3.59514 81.4679 2.87207 95.3359 2.87207 107.617V129.299C2.87207 174.205 22.8107 212.529 50.2067 225.835C52.3328 224.627 54.4427 223.369 56.5741 222.193C60.033 220.288 63.6268 218.556 67.3393 218.265C68.9744 218.14 70.8306 218.2 72.3901 219.036C74.0575 219.937 75.3849 221.875 76.5235 223.828C77.824 226.062 78.9679 228.485 80.1497 230.848C107.055 230.848 133.96 230.848 160.865 230.848C179.503 230.848 198.141 230.848 216.79 230.848C234.252 230.848 243.204 223.979 258.108 218C273.525 211.816 291.607 223.418 306.586 228.032C329.175 234.987 353.096 234.081 376.558 233.12C392.374 232.473 408.184 231.825 424 231.177C435.44 230.708 446.027 232.802 456.825 229.089C471.659 223.984 483.6 217.061 499.756 216.586C517.553 216.063 535.052 220.919 552.552 224.492C575.318 229.132 598.451 231.615 621.611 231.917C640.357 232.16 663.712 234.415 682.128 230.854C688.312 229.661 694.469 228.166 700.621 226.726C711.526 224.168 722.567 221.535 733.645 221.831C739.408 221.982 745.203 222.921 750.923 223.893C757.167 224.956 763.383 226.332 769.578 227.88C773.306 228.814 777.03 229.823 780.753 230.848C816.885 230.848 853.023 230.848 889.155 230.848C912.904 230.848 939.075 231.053 963.665 228.814C988.465 226.553 1012.52 218.297 1037.31 217.045C1050.73 216.365 1064.45 215.728 1077.32 219.954C1084.92 222.452 1092.02 226.591 1099.71 228.738C1107.7 230.967 1116.05 230.978 1124.3 230.972C1194.08 230.924 1263.88 230.875 1333.67 230.827C1346.45 230.816 1349.83 217.649 1362.11 217.315C1386.87 216.635 1398.93 232.127 1418.82 208.46C1419.73 204.148 1420.81 199.929 1422.19 195.86Z" fill="#807E77"/>
<path d="M352.117 236.902C336.593 236.902 320.998 235.705 305.808 231.026C301.869 229.812 297.854 228.182 293.602 226.456C281.795 221.664 269.589 216.716 259.11 220.919C255.414 222.403 252.084 223.941 248.863 225.436C238.977 230.012 230.441 233.962 216.799 233.962H80.1538C79.1015 233.962 78.1356 233.336 77.6284 232.332L76.8244 230.719C75.9124 228.873 75.049 227.125 74.0939 225.484C73.3439 224.195 72.2215 222.419 71.1153 221.82C70.3113 221.389 69.1457 221.243 67.5431 221.362C64.5158 221.594 61.4886 222.97 57.8678 224.961C56.535 225.695 55.213 226.461 53.8909 227.227C53.1085 227.681 52.3206 228.134 51.5382 228.582C50.7612 229.024 49.833 229.057 49.0344 228.668C19.7066 214.428 0 174.486 0 129.288V107.606C0 95.1738 0.690703 80.8471 5.83319 68.83C7.97545 63.817 13.4417 59.3005 18.7245 54.935C21.7409 52.442 26.2952 48.6809 26.646 47.1646C26.8996 45.562 26.5596 43.7003 26.2035 41.7361C25.9391 40.29 25.6639 38.7953 25.5829 37.2034C25.2538 30.9709 27.3798 25.1647 31.9126 19.9521C41.9979 8.34505 61.4293 2.93275 71.3851 2.93275C76.274 2.93275 81.6215 2.59819 87.282 2.24205C107.231 0.990152 129.836 -0.434421 145.231 12.1439L146.051 12.8238C147.945 14.3995 149.731 15.8834 151.334 15.7323C152.893 15.5758 154.124 13.9894 155.958 11.4046C157.021 9.90991 158.117 8.36123 159.504 7.06617C164.247 2.63596 170.981 2.69532 175.444 2.7331C213.95 3.07845 253.115 3.02449 290.99 2.97592C304.918 2.95434 318.851 2.93815 332.778 2.93815C333.598 2.93815 334.386 3.32127 334.931 3.99039C336.215 5.57145 337.526 6.8935 338.827 7.91336C340.327 9.09511 342.491 10.4603 344.703 10.7193C344.811 10.5574 344.919 10.4064 345.032 10.2553C345.853 9.19224 346.732 8.21015 347.655 7.34137C349.171 5.9168 350.849 4.72966 352.641 3.81772C353.035 3.61806 353.434 3.45078 353.833 3.2835L354.146 3.15399C354.481 3.0137 354.832 2.93815 355.188 2.93815H437.667C437.808 2.93815 437.948 2.94894 438.083 2.97052C443.581 3.84469 449.361 4.72426 455.264 5.58763L465.571 7.09315C470.762 7.8594 476.562 7.65974 483.826 6.478C488.277 5.74952 492.929 4.6649 498.471 3.05147C506.926 0.585447 517.33 1.42724 527.388 2.23666C531.916 2.60359 536.189 2.94354 539.956 2.94354C544.807 2.94354 550.969 2.3068 557.488 1.63229C572.543 0.0782107 589.611 -1.68092 600.435 3.18098C605.67 5.54447 611.881 8.2695 618.291 10.579C624.168 12.6997 629.52 14.216 634.652 15.2143C649.939 18.1929 666.435 16.9356 682.392 15.7215C693.211 14.8959 704.397 14.0433 715.221 14.4966L716.921 14.5668C742.439 15.6352 768.826 16.736 792.321 9.16525C800.178 6.63448 808.342 4.61094 817.278 2.98132C830.315 0.714951 844.555 1.4866 858.332 2.22586C865.114 2.5928 871.52 2.93815 877.731 2.93815H899.121C928.594 2.94355 959.071 2.94894 989.047 2.868C991.939 2.8626 995.215 2.85181 998.388 3.73137C1001.3 4.53539 1003.86 5.99234 1006.35 7.40073C1006.84 7.68133 1007.34 7.96192 1007.84 8.23712C1027.99 19.3855 1047.43 16.4392 1068.01 13.3203C1078.08 11.7932 1088.48 10.2067 1099.23 10.293C1105.93 10.3416 1113.07 10.2661 1120.11 8.85768C1121.87 8.50693 1123.46 8.10222 1125 7.62736C1125.75 7.39533 1126.5 7.19567 1127.25 7.00141C1128.01 6.80715 1128.77 6.61289 1129.52 6.36467C1131.63 5.67397 1133.83 4.6649 1136.24 3.2835C1136.65 3.04607 1137.11 2.92196 1137.58 2.92196H1227.51C1230.05 2.92196 1234.29 2.46329 1239.21 1.93447C1256.27 0.0944028 1270.9 -1.06037 1277.14 3.44538C1279.98 5.49051 1282.52 6.92587 1284.93 7.83242C1286.69 8.49614 1288.75 9.13827 1290.6 8.83609C1292.74 8.49074 1294.97 7.5734 1297.07 6.63448C1298.34 6.06249 1299.61 5.44194 1300.88 4.81599C1302.03 4.26019 1303.17 3.699 1304.32 3.17018C1304.68 3.0083 1305.05 2.92196 1305.44 2.92196H1376.06C1395.06 2.92196 1412.96 13.8221 1426.47 33.615C1426.66 33.8902 1426.81 34.2032 1426.9 34.5323C1427.16 35.4335 1427.36 36.2753 1427.51 37.1063C1427.93 39.3996 1428.03 41.6876 1428.12 43.9C1428.24 46.6844 1428.34 49.3123 1429.07 51.611C1429.62 53.354 1430.38 54.676 1431.29 55.4369C1432.41 56.3812 1433.69 57.0341 1434.79 57.5521C1435.89 58.0702 1437.05 58.5342 1438.15 58.9659C1438.94 59.2789 1439.57 59.9534 1439.86 60.8114C1444.13 73.244 1446.62 86.5886 1447.26 100.478C1447.29 101.029 1447.18 101.579 1446.94 102.07L1446.87 102.237C1446.78 102.448 1446.69 102.653 1446.58 102.847C1444.75 106.349 1442.66 109.511 1440.64 112.565L1439.41 114.443C1439.27 114.87 1439.22 116.008 1439.19 116.634C1439.17 116.952 1439.16 117.255 1439.14 117.524L1439.13 117.773C1439.08 118.668 1438.67 119.494 1438.01 120.039L1436.89 120.983C1436.66 121.172 1436.44 121.361 1436.22 121.55C1437.07 124.145 1438.25 126.79 1439.93 129.962C1440.07 130.216 1440.17 130.497 1440.24 130.783C1440.63 132.499 1441.06 134.188 1441.49 135.871C1442.51 139.816 1443.56 143.895 1444.03 148.325C1444.26 150.495 1444.38 152.61 1444.37 154.606C1444.36 156.511 1444.04 158.416 1443.72 160.024C1443.14 162.992 1442.17 166.008 1440.84 168.987C1438.68 173.8 1435.91 177.853 1433.24 181.765C1429.95 186.584 1426.85 191.133 1424.87 196.944C1423.65 200.538 1422.59 204.531 1421.6 209.161C1421.49 209.685 1421.25 210.165 1420.92 210.564C1406.24 228.042 1394.95 225.63 1381.88 222.835C1375.88 221.551 1369.68 220.229 1362.17 220.434C1357.08 220.574 1353.82 223.31 1350.04 226.483C1345.87 229.979 1341.15 233.945 1333.66 233.951L1124.29 234.097C1115.98 234.102 1107.38 234.107 1098.99 231.765C1094.6 230.54 1090.41 228.7 1086.36 226.914C1083.14 225.495 1079.8 224.033 1076.49 222.943C1063.96 218.826 1050.48 219.511 1037.44 220.164C1024.31 220.828 1011.07 223.553 998.258 226.186C987.077 228.485 975.519 230.864 963.906 231.922C941.086 234.005 916.421 233.983 894.674 233.972H780.752C780.514 233.972 780.277 233.94 780.045 233.875C777.001 233.033 772.987 231.933 768.934 230.924C762.162 229.229 756.124 227.934 750.48 226.974C744.474 225.954 739.056 225.096 733.574 224.945C723.013 224.659 712.21 227.195 701.758 229.645L698.634 230.379C693.405 231.609 687.998 232.882 682.634 233.918C668.448 236.66 651.24 236.018 636.05 235.456C630.961 235.267 626.159 235.089 621.577 235.03C598.272 234.728 574.869 232.213 552.022 227.551C548.654 226.866 545.287 226.132 541.92 225.398C528.144 222.392 513.893 219.284 499.836 219.7C488.466 220.034 479.126 223.752 469.229 227.686C465.538 229.154 461.718 230.67 457.687 232.057C449.755 234.787 441.887 234.561 434.279 234.345C430.965 234.248 427.533 234.15 424.102 234.291L376.659 236.233C368.559 236.563 360.347 236.897 352.117 236.902ZM267.712 213.111C277.112 213.111 286.787 217.034 295.609 220.612C299.754 222.29 303.66 223.876 307.373 225.02C329.74 231.911 353.488 230.934 376.449 229.995L423.891 228.053C427.506 227.907 431.03 228.004 434.435 228.101C441.898 228.317 448.945 228.517 455.955 226.105C459.861 224.761 463.623 223.267 467.254 221.82C477.599 217.703 487.371 213.818 499.679 213.456C514.389 213.019 528.959 216.203 543.053 219.273C546.399 220.002 549.739 220.73 553.085 221.41C575.603 226.002 598.671 228.479 621.648 228.781C626.294 228.841 631.129 229.019 636.249 229.213C651.882 229.796 668.043 230.395 681.631 227.772C686.886 226.758 692.239 225.495 697.42 224.276L700.555 223.542C711.336 221.016 722.485 218.399 733.725 218.701C739.547 218.858 745.396 219.786 751.375 220.801C757.155 221.783 763.322 223.105 770.229 224.831C774.185 225.819 778.086 226.887 781.119 227.724H894.685C917.387 227.74 940.854 227.756 963.432 225.695C974.747 224.664 986.16 222.317 997.195 220.045C1010.2 217.369 1023.65 214.606 1037.18 213.92C1050.07 213.268 1064.68 212.534 1078.16 216.958C1081.72 218.129 1085.18 219.651 1088.53 221.119C1092.59 222.9 1096.42 224.583 1100.44 225.711C1108.12 227.853 1116.35 227.848 1124.31 227.842L1333.67 227.697C1339.21 227.691 1342.61 224.837 1346.55 221.529C1350.55 218.173 1355.08 214.374 1362.05 214.179C1370.19 213.958 1377.01 215.41 1383.01 216.694C1395.6 219.387 1403.98 221.178 1416.2 206.933C1417.2 202.384 1418.27 198.396 1419.51 194.77C1421.77 188.122 1425.27 182.995 1428.66 178.036C1431.29 174.184 1433.77 170.541 1435.7 166.246C1436.85 163.688 1437.64 161.222 1438.13 158.718C1438.39 157.418 1438.65 155.912 1438.65 154.569C1438.66 152.82 1438.56 150.964 1438.35 149.043C1437.92 145.104 1436.98 141.429 1435.98 137.544C1435.57 135.968 1435.16 134.35 1434.78 132.704C1432.71 128.802 1431.35 125.554 1430.37 122.219C1429.85 120.46 1430.35 118.582 1431.59 117.551C1432.19 117.055 1432.79 116.553 1433.38 116.051L1433.48 115.97C1433.56 114.335 1433.71 112.393 1434.67 110.92C1435.11 110.256 1435.55 109.592 1435.98 108.928C1437.97 105.934 1439.84 103.106 1441.49 99.9709C1440.85 87.5167 1438.64 75.5374 1434.94 64.335C1434.15 64.0113 1433.34 63.6713 1432.53 63.2882C1431.18 62.6568 1429.42 61.7557 1427.78 60.3797C1425.99 58.8688 1424.56 56.5377 1423.64 53.64C1422.65 50.494 1422.51 47.2887 1422.38 44.1914C1422.29 42.1139 1422.21 40.1497 1421.88 38.3096C1421.8 37.8563 1421.7 37.3923 1421.56 36.9012C1409.2 19.0078 1393.06 9.15986 1376.06 9.15986H1306.03C1305.1 9.59694 1304.17 10.0502 1303.24 10.5035C1301.91 11.151 1300.59 11.7986 1299.27 12.3921C1296.84 13.4875 1294.21 14.5614 1291.44 15.0038C1288.35 15.5003 1285.34 14.5775 1283.06 13.725C1280.19 12.6457 1277.22 10.9837 1273.97 8.64183C1268.93 4.99946 1250.69 6.96904 1239.79 8.14539C1234.72 8.69039 1230.34 9.16525 1227.52 9.16525H1138.29C1135.8 10.5521 1133.46 11.5989 1131.18 12.3436C1130.3 12.635 1129.43 12.8562 1128.6 13.072C1127.93 13.2447 1127.25 13.4174 1126.59 13.6278C1124.88 14.1567 1123.1 14.6045 1121.16 14.993C1113.62 16.4986 1105.87 16.5795 1099.2 16.5309C1088.87 16.4554 1078.68 18.0041 1068.82 19.4988C1048.26 22.6123 1027.01 25.8338 1005.24 13.7951C1004.73 13.5091 1004.22 13.2177 1003.7 12.9263C1001.4 11.6259 999.24 10.3956 996.979 9.76962C994.508 9.08431 991.745 9.0951 989.068 9.1005C959.088 9.18144 928.61 9.17065 899.132 9.17065H877.741C871.39 9.17065 864.613 8.80371 858.056 8.45297C844.577 7.72449 830.644 6.97444 818.217 9.13288C809.535 10.7139 801.597 12.6781 793.967 15.1387C769.56 23.0063 742.693 21.8785 716.711 20.7939L715.011 20.7237C704.499 20.2866 693.47 21.1284 682.802 21.9378C666.495 23.1789 649.637 24.4632 633.648 21.3497C628.242 20.2974 622.63 18.711 616.489 16.4932C609.9 14.1189 603.571 11.3399 598.245 8.93322C588.737 4.6649 572.43 6.34849 558.038 7.83242C551.379 8.51772 545.088 9.17065 539.961 9.17065C535.979 9.17065 531.603 8.8199 526.967 8.44757C517.384 7.67593 507.477 6.87731 499.96 9.06812C494.283 10.7193 489.286 11.8903 484.684 12.6403C476.865 13.9192 470.546 14.1135 464.804 13.2717L454.503 11.7662C448.654 10.9082 442.923 10.0394 437.468 9.17065H355.727C355.512 9.26238 355.296 9.34872 355.085 9.46204C353.774 10.1312 352.544 10.9999 351.427 12.0522C350.736 12.6997 350.072 13.439 349.452 14.2484C349.371 14.3509 349.301 14.4696 349.225 14.5829C348.718 15.3492 347.666 16.9464 345.685 16.995C342.453 17.0813 338.919 15.6784 335.471 12.9695C334.138 11.9227 332.816 10.6492 331.526 9.17605C318.019 9.17605 304.513 9.19763 291.012 9.21382C253.126 9.26239 213.945 9.31635 175.411 8.971C170.646 8.92783 166.13 9.11129 163.265 11.7932C162.32 12.6781 161.446 13.9084 160.518 15.2143C158.419 18.1714 156.039 21.5223 151.873 21.9432C148.026 22.3264 144.999 19.801 142.56 17.772L141.783 17.1299C128.071 5.92759 106.584 7.28202 87.622 8.47455C81.8751 8.83609 76.452 9.17605 71.3959 9.17605C62.0822 9.17605 44.6366 14.4103 36.0999 24.2366C32.695 28.1542 31.087 32.3955 31.3244 36.8473C31.3891 38.0074 31.6104 39.2324 31.8478 40.5274C32.2741 42.8531 32.7544 45.4864 32.3173 48.2438C31.7129 52.0535 27.5201 55.5178 22.2158 59.9048C17.71 63.6282 12.5999 67.8533 11.0566 71.4633C6.38899 82.3796 5.75765 95.8645 5.75765 107.612V129.293C5.75765 171.415 23.5378 208.562 50.1352 222.349C50.4914 222.144 50.8475 221.939 51.2036 221.729C52.5635 220.941 53.9233 220.153 55.2885 219.403C58.9578 217.385 62.9294 215.475 67.1491 215.151C68.8381 215.021 71.3581 214.989 73.6784 216.241C76.0365 217.509 77.6715 219.948 78.9612 222.16C80.0135 223.973 80.9632 225.884 81.8751 227.729H216.805C229.275 227.729 237.31 224.006 246.618 219.7C249.904 218.178 253.299 216.608 257.13 215.07C260.567 213.683 264.123 213.111 267.712 213.111Z" fill="#636568"/>
<path opacity="0.52" d="M1433.66 60.4282C1432.25 59.7644 1430.84 59.0036 1429.54 57.9136C1428.12 56.7156 1427.05 54.8324 1426.36 52.6308C1424.87 47.9308 1425.59 42.621 1424.7 37.7159C1424.56 36.9443 1424.38 36.205 1424.17 35.482C1421.95 32.2281 1419.57 29.2063 1417.07 26.4165C1402.6 33.8631 1388.09 41.1964 1373.41 48.1088C1322.39 72.1269 1270.15 88.3368 1214.76 94.688C1154.65 101.584 1094.09 99.1884 1033.8 97.2943C1002.96 96.3284 972.108 95.4705 941.259 96.0047C910.647 96.5335 879.991 98.5894 849.428 100.392C727.303 107.606 605.475 119.764 483.939 134.554C435.126 140.496 386.291 149.016 337.186 151.374C298.717 153.22 260.189 153.23 221.726 155.276C180.71 157.456 139.295 161.308 99.4231 172.468C74.0398 179.569 48.5594 190.01 27.3203 206.857C33.9953 215.205 41.7441 221.707 50.2106 225.819C52.3367 224.61 54.4465 223.353 56.578 222.176C60.0369 220.272 63.6307 218.539 67.3432 218.248C68.9783 218.124 70.8345 218.183 72.394 219.02C74.0614 219.921 75.3888 221.858 76.5274 223.811C77.8279 226.045 78.9718 228.468 80.1536 230.832H216.799C234.261 230.832 243.213 223.963 258.117 217.984C273.534 211.8 291.616 223.401 306.596 228.015C329.184 234.971 353.105 234.064 376.567 233.104C392.383 232.456 408.194 231.808 424.01 231.161C435.449 230.691 446.037 232.785 456.834 229.073C471.668 223.968 483.61 217.045 499.766 216.57C517.562 216.046 535.061 220.903 552.561 224.475C575.327 229.116 598.46 231.598 621.62 231.9C640.367 232.143 663.721 234.399 682.138 230.837C688.322 229.645 694.479 228.15 700.63 226.709C711.536 224.151 722.576 221.518 733.654 221.815C739.417 221.966 745.213 222.905 750.933 223.876C757.176 224.939 763.392 226.315 769.587 227.864C773.316 228.797 777.039 229.807 780.762 230.832H889.165C912.913 230.832 939.084 231.037 963.674 228.797C988.475 226.536 1012.53 218.28 1037.31 217.029C1050.73 216.349 1064.46 215.712 1077.33 219.937C1084.93 222.435 1092.03 226.574 1099.72 228.722C1107.71 230.951 1116.05 230.961 1124.31 230.956C1194.09 230.907 1263.89 230.859 1333.67 230.81C1346.46 230.799 1349.84 217.633 1362.12 217.298C1386.88 216.618 1398.94 232.111 1418.82 208.443C1419.74 204.137 1420.82 199.918 1422.2 195.849C1426 184.679 1433.66 177.901 1438.28 167.606C1439.42 165.053 1440.36 162.307 1440.94 159.36C1441.24 157.828 1441.52 156.177 1441.52 154.579C1441.53 152.61 1441.41 150.619 1441.2 148.676C1440.55 142.654 1438.77 137.242 1437.47 131.516C1435.77 128.333 1434.21 124.998 1433.12 121.264C1432.99 120.827 1433.03 120.287 1433.33 120.028C1434.32 119.219 1435.3 118.382 1436.28 117.562C1436.29 117.47 1436.29 117.379 1436.29 117.287C1436.39 115.911 1436.35 113.752 1437.02 112.722C1439.44 109.015 1441.96 105.394 1444.11 101.304C1444.22 101.088 1444.31 100.85 1444.41 100.635C1443.77 86.7935 1441.23 73.6972 1437.19 61.9013C1436 61.4426 1434.82 60.9732 1433.66 60.4282Z" fill="#6C6C65"/>
<path d="M1326.26 168.248H130.873C106.363 168.248 86.3115 146.469 86.3115 119.85C86.3115 93.2313 106.363 71.4526 130.873 71.4526H1326.26C1350.76 71.4526 1370.82 93.2313 1370.82 119.85C1370.82 146.469 1350.76 168.248 1326.26 168.248Z" fill="#E53625"/>
<path d="M1326.25 171.367H130.871C104.716 171.367 83.4395 148.255 83.4395 119.85C83.4395 91.445 104.716 68.3335 130.871 68.3335H1326.25C1352.41 68.3335 1373.69 91.445 1373.69 119.85C1373.69 148.261 1352.41 171.367 1326.25 171.367ZM130.871 74.5714C107.884 74.5714 89.1809 94.8823 89.1809 119.85C89.1809 144.818 107.884 165.129 130.871 165.129H1326.25C1349.24 165.129 1367.94 144.818 1367.94 119.85C1367.94 94.8823 1349.24 74.5714 1326.25 74.5714H130.871Z" fill="#721011"/>
<path opacity="0.52" d="M75.2328 144.483C67.2304 146.89 59.1848 149.108 51.1068 151.185C36.2945 154.995 21.3959 158.378 6.5188 161.864C8.17001 169.025 10.35 175.829 12.9833 182.181C20.5487 178.236 28.0007 174.038 35.3664 169.683C48.8728 161.697 62.0879 153.144 75.2328 144.483Z" fill="#6C6C65"/>
<path opacity="0.52" d="M66.3514 76.6221C62.1694 74.0967 57.9605 71.6253 53.7515 69.1431C44.5673 63.7308 35.3886 58.2376 26.6739 51.9673C21.5853 57.1368 11.1763 63.747 8.44582 70.1414C8.06809 71.0317 7.71735 71.9383 7.38818 72.8556C17.8512 73.9888 28.3844 73.8647 38.8906 74.0913C48.0694 74.2856 57.313 74.755 66.3514 76.6221Z" fill="#6C6C65"/>
<path opacity="0.52" d="M136.24 20.5776C141.437 30.8788 147.351 40.7591 153.929 50.0835C159.832 58.4529 166.297 66.3744 173.306 73.6699C171.196 68.9429 168.93 64.2969 166.691 59.64C160.658 47.1157 154.598 34.5427 149.833 21.3654C149.472 20.3618 149.115 19.3473 148.77 18.3328C146.887 17.545 145.166 15.9801 143.509 14.6257C139.559 11.4042 135.053 9.16484 130.208 7.62695C132.085 12.014 134.098 16.3309 136.24 20.5776Z" fill="#6C6C65"/>
<path opacity="0.52" d="M177.694 9.32179C183.689 18.5383 190.122 27.4041 196.559 36.2592C202.284 44.1321 208.004 52.0158 213.444 60.1207C212.181 55.1509 210.713 50.2459 209.17 45.3732C205.749 34.581 201.988 23.8805 199.392 12.8023C198.863 10.5467 198.388 8.26955 197.978 5.97081C190.478 5.93304 182.972 5.90606 175.471 5.84131C176.205 7.01226 176.944 8.17242 177.694 9.32179Z" fill="#6C6C65"/>
<path opacity="0.52" d="M352.786 37.4141C356.957 47.0354 360.772 56.8293 364.517 66.6502C363.707 61.8585 362.466 57.1207 361.29 52.4423C359.347 44.715 357.286 37.0202 355.381 29.2768C353.697 22.4183 352.122 15.5167 350.892 8.53955C350.433 8.89569 349.98 9.27342 349.543 9.68352C348.733 10.4444 347.961 11.3024 347.244 12.2413C346.737 12.905 346.337 13.8439 345.62 13.8601C344.038 13.8979 342.441 13.4662 340.903 12.7593C345.253 20.7509 349.154 29.0232 352.786 37.4141Z" fill="#6C6C65"/>
<path opacity="0.52" d="M545.811 46.8463C549.28 35.5199 551.784 23.8859 554.979 12.4731C555.696 9.8992 556.457 7.33605 557.267 4.78369C552.351 5.29093 547.683 5.76038 543.588 5.96004C542.492 24.5712 541.375 43.1824 540.296 61.7936C542.46 56.9586 544.246 51.9403 545.811 46.8463Z" fill="#6C6C65"/>
<path opacity="0.52" d="M614.348 53.1706C615.276 66.8929 616.911 80.6745 620.343 93.9489C620.375 93.814 620.413 93.6737 620.445 93.5388C622.199 86.2919 623.413 78.91 624.492 71.5173C625.626 63.7415 626.597 55.9334 627.725 48.1576C628.869 40.2685 630.169 32.3956 631.961 24.6467C632.463 22.4721 633.013 20.3083 633.601 18.1552C628.146 17.0598 622.75 15.4626 617.402 13.5308C615.999 13.0235 614.601 12.4947 613.204 11.9497C613.215 25.6936 613.42 39.4537 614.348 53.1706Z" fill="#6C6C65"/>
<path opacity="0.52" d="M789.527 85.056C790.525 78.8397 790.719 72.4831 790.665 66.1858C790.546 51.9185 789.068 37.7052 789.111 23.4379C789.122 20.0923 789.208 16.6712 789.446 13.2446C784.611 14.6098 779.668 15.6513 774.655 16.4175C777.11 26.5892 779.355 36.8202 781.524 47.0674C784.206 59.7267 786.785 72.4129 789.527 85.056Z" fill="#6C6C65"/>
<path opacity="0.52" d="M737.708 80.6208C738.382 75.0952 738.744 69.5264 738.976 63.963C739.499 51.3739 739.408 38.7416 740.579 26.1957C740.821 23.6002 741.124 21.0046 741.496 18.4145C739.364 18.3983 737.233 18.3659 735.107 18.3174C735.004 29.0233 734.945 39.7291 735.29 50.4296C735.614 60.5257 736.294 70.6326 737.708 80.6208Z" fill="#6C6C65"/>
<path opacity="0.52" d="M964.995 71.7815C966.404 65.5382 967.526 59.2194 968.551 52.8843C970.748 39.3239 972.561 25.6718 975.674 12.311C976.165 10.1958 976.7 8.09127 977.266 5.99219C970.273 6.00298 963.28 6.01377 956.281 6.01917C957.295 15.0307 958.315 24.0422 959.421 33.0375C961.013 45.9989 962.805 58.928 964.995 71.7815Z" fill="#6C6C65"/>
<path opacity="0.52" d="M1004.96 76.1474C1006.6 70.2872 1008.08 64.3731 1009.47 58.4427C1012.48 45.6324 1015.1 32.7249 1018.03 19.8983C1018.3 18.6896 1018.59 17.4809 1018.87 16.2722C1014.79 15.0149 1010.68 13.3097 1006.55 11.0218C1006.14 10.7951 1005.73 10.5631 1005.32 10.3311C1004.34 20.2707 1004 30.2913 1003.97 40.2794C1003.94 52.2426 1004.4 64.2004 1004.96 76.1474Z" fill="#6C6C65"/>
<path opacity="0.52" d="M1123.47 43.3931C1130.92 54.6548 1138.74 65.6359 1147.08 76.1205C1146.4 69.4455 1145.45 62.8083 1144.26 56.2197C1141.91 43.2852 1138.75 30.545 1135.27 17.9235C1134.4 14.7776 1133.52 11.6425 1132.62 8.50732C1131.87 8.8149 1131.12 9.10629 1130.36 9.35452C1128.85 9.84556 1127.31 10.1585 1125.8 10.628C1124.09 11.1568 1122.37 11.5777 1120.64 11.9285C1115.39 12.9753 1110.09 13.3153 1104.8 13.3962C1110.78 23.5679 1116.99 33.5938 1123.47 43.3931Z" fill="#6C6C65"/>
<path opacity="0.52" d="M1246.94 57.768C1247.61 52.8737 1247.97 47.9255 1248.19 42.988C1248.72 31.5429 1248.64 20.0546 1249.8 8.6526C1249.96 7.08773 1250.15 5.52285 1250.36 3.96338C1247.49 4.20081 1244.62 4.4976 1241.9 4.78359C1242.23 13.1152 1242.73 21.436 1243.46 29.7352C1244.3 39.1298 1245.44 48.4813 1246.94 57.768Z" fill="#6C6C65"/>
<path opacity="0.52" d="M1281.35 33.4641C1282.18 42.9235 1283.48 52.3289 1285.12 61.6588C1286.18 56.0684 1286.92 50.4079 1287.55 44.7366C1288.76 33.7771 1289.59 22.7421 1291.34 11.8581C1291.23 11.8743 1291.13 11.9067 1291.03 11.9229C1288.68 12.3006 1286.28 11.6369 1284 10.7789C1282.76 10.3148 1281.55 9.72666 1280.35 9.07373C1280.25 17.2219 1280.64 25.37 1281.35 33.4641Z" fill="#6C6C65"/>
<path opacity="0.52" d="M1407.51 87.9754C1394.55 93.3823 1381.74 99.2586 1369.28 105.934C1376.23 107.105 1383.29 107.196 1390.3 106.743C1404.26 105.836 1418.02 102.906 1431.91 101.304C1436.04 100.829 1440.21 100.473 1444.38 100.332C1443.95 91.4828 1442.74 82.9462 1440.86 74.8521C1429.7 79.088 1418.56 83.3671 1407.51 87.9754Z" fill="#6C6C65"/>
<path opacity="0.52" d="M1441.19 148.687C1440.7 144.111 1439.55 139.886 1438.46 135.612C1428.45 136.33 1418.44 136.999 1408.45 137.943C1396.87 139.039 1385.32 140.523 1373.91 142.897C1380.94 146.205 1388.27 148.703 1395.71 150.705C1410.55 154.704 1425.74 156.83 1440.86 159.161C1440.89 159.166 1440.93 159.172 1440.96 159.177C1441.25 157.699 1441.5 156.123 1441.52 154.585C1441.52 152.621 1441.4 150.63 1441.19 148.687Z" fill="#6C6C65"/>
<path opacity="0.52" d="M1337.45 195.223C1333.97 191.063 1330.58 186.708 1327.53 182.094C1332.16 193.885 1336.35 205.886 1340.07 218.048C1341.08 221.362 1342.07 224.691 1343.01 228.031C1348.15 224.815 1351.94 219.748 1357.99 217.957C1351.08 210.445 1344.02 203.09 1337.45 195.223Z" fill="#6C6C65"/>
<path opacity="0.52" d="M1073 191.278C1070.73 181.528 1067.95 171.928 1064.94 162.415C1065.41 169.165 1065.75 175.932 1065.96 182.699C1066.32 194.262 1066.31 205.837 1066.03 217.406C1069.84 217.93 1073.61 218.734 1077.32 219.948C1077.53 220.018 1077.74 220.099 1077.95 220.174C1076.96 210.429 1075.21 200.781 1073 191.278Z" fill="#6C6C65"/>
<path opacity="0.52" d="M658.957 181.409C658.892 186.449 658.789 191.495 658.627 196.529C658.228 208.638 657.564 220.736 656.755 232.823C660.122 232.818 663.457 232.748 666.738 232.575C665.378 223.483 663.894 214.412 662.459 205.33C661.191 197.376 659.982 189.406 658.957 181.409Z" fill="#6C6C65"/>
<path opacity="0.52" d="M557.235 207.849C555.795 196.841 553.696 185.898 550.485 175.327C549.983 180.254 549.616 185.197 549.373 190.145C548.85 200.764 548.828 211.411 548.925 222.047C548.931 222.608 548.942 223.169 548.947 223.73C550.15 223.984 551.354 224.237 552.552 224.48C554.71 224.923 556.874 225.322 559.038 225.721C558.601 219.748 558.018 213.785 557.235 207.849Z" fill="#6C6C65"/>
<path opacity="0.52" d="M418.796 180.794C415.882 185.829 413.195 191.02 410.702 196.319C405.381 207.634 400.87 219.43 397.32 231.539C397.249 231.782 397.185 232.025 397.115 232.273C405.392 231.933 413.67 231.598 421.953 231.253C421.953 227.627 421.931 223.995 421.877 220.369C421.678 207.138 421.046 193.826 418.796 180.794Z" fill="#6C6C65"/>
<path opacity="0.52" d="M325.759 209.313C324.539 194.732 322.656 180.195 319.748 165.89C317.082 170.774 314.756 175.873 312.663 181.075C307.946 192.784 304.256 205.05 301.719 217.531C301.169 220.245 300.656 222.997 300.219 225.776C302.394 226.618 304.525 227.39 306.597 228.026C313.348 230.104 320.217 231.469 327.162 232.354C326.86 224.659 326.401 216.975 325.759 209.313Z" fill="#6C6C65"/>
<path opacity="0.52" d="M133.91 183.961C132.124 187.744 130.683 191.699 129.523 195.757C127.068 204.348 125.729 213.289 124.931 222.225C124.677 225.091 124.494 227.967 124.343 230.843H142.544C142.339 228.512 142.123 226.181 141.885 223.849C140.504 210.311 138.399 196.734 133.91 183.961Z" fill="#6C6C65"/>
<path opacity="0.52" d="M230.528 224.427C227.349 210.953 223.917 197.522 219.46 184.474C218.268 189.325 217.334 194.246 216.6 199.205C215.052 209.658 214.323 220.261 214.253 230.843H216.8C222.455 230.843 227.214 230.114 231.574 228.938C231.224 227.433 230.878 225.927 230.528 224.427Z" fill="#6C6C65"/>
<path opacity="0.52" d="M792.995 196.993C791.748 188.052 790.286 179.148 788.419 170.336C788.122 176.93 787.798 183.525 787.458 190.113C786.762 203.684 786.056 217.261 785.613 230.848H797.441C797.306 229.888 797.161 228.933 797.031 227.972C795.634 217.649 794.43 207.305 792.995 196.993Z" fill="#6C6C65"/>
<path opacity="0.52" d="M929.447 200.398C926.577 190.561 923.388 180.816 919.481 171.405C918.617 178.479 918.056 185.591 917.733 192.714C917.155 205.389 917.268 218.092 917.662 230.778C924.262 230.713 930.915 230.584 937.558 230.363C934.93 220.347 932.345 210.322 929.447 200.398Z" fill="#6C6C65"/>
<path opacity="0.52" d="M1167.49 229.904C1165.99 220.38 1164.58 210.829 1162.48 201.434C1160.54 192.687 1157.98 184.069 1154.22 176.04C1153.08 182.429 1152.39 188.899 1152.02 195.39C1151.36 207.23 1151.66 219.09 1151.78 230.945C1157.07 230.94 1162.36 230.94 1167.65 230.935C1167.6 230.595 1167.54 230.249 1167.49 229.904Z" fill="#6C6C65"/>
<path opacity="0.52" d="M1311.48 206.609C1307.05 198.197 1301.65 190.324 1294.94 183.913C1295.55 190.459 1296.04 197.015 1296.47 203.571C1297.07 212.658 1297.59 221.756 1298.21 230.843C1306.08 230.838 1313.95 230.832 1321.82 230.827C1318.86 222.522 1315.55 214.347 1311.48 206.609Z" fill="#6C6C65"/>
<path opacity="0.52" d="M1355.72 65.4953C1360 61.2755 1364.19 56.9533 1368.33 52.5716C1377.77 42.5888 1386.97 32.3308 1396.51 22.4506C1398.96 19.9144 1401.44 17.3998 1403.94 14.9284C1400.83 12.8509 1397.59 11.1079 1394.24 9.73193C1388.01 19.1751 1381.52 28.4133 1375 37.6298C1368.5 46.8517 1361.99 56.0791 1355.72 65.4953Z" fill="#6C6C65"/>
<path opacity="0.52" d="M450.738 45.1627C452.184 53.5105 453.592 61.8799 454.742 70.287C454.623 67.7562 454.493 65.2201 454.375 62.6893C454.035 55.6636 453.727 48.6378 453.679 41.6067C453.63 34.5216 453.83 27.4149 454.601 20.3784C455.022 16.5256 455.616 12.6782 456.479 8.90631C455.95 8.83076 455.422 8.75521 454.893 8.67427C451.455 8.16704 448.024 7.62743 444.586 7.104C446.264 19.855 448.552 32.5035 450.738 45.1627Z" fill="#6C6C65"/>
<path d="M1386.73 173.396C1390.31 165.68 1397.54 160.996 1401.89 153.884C1402.97 152.119 1403.86 150.225 1404.4 148.185C1404.68 147.128 1404.95 145.984 1404.95 144.883C1404.96 143.523 1404.85 142.147 1404.65 140.804C1404.04 136.643 1402.36 132.904 1401.13 128.948C1399.53 126.747 1398.06 124.443 1397.02 121.863C1396.9 121.561 1396.94 121.189 1397.23 121.011C1398.16 120.449 1399.08 119.872 1400.01 119.305C1400.01 119.241 1400.01 119.176 1400.02 119.117C1400.11 118.167 1400.07 116.672 1400.71 115.96C1403 113.397 1405.37 110.898 1407.39 108.071C1407.5 107.925 1407.58 107.758 1407.68 107.607C1407.07 98.0448 1404.68 88.9955 1400.87 80.842C1399.76 80.5236 1398.64 80.1945 1397.55 79.8168C1396.22 79.3581 1394.88 78.8293 1393.66 78.0792C1392.32 77.2482 1391.32 75.9477 1390.66 74.4314C1389.27 71.183 1389.93 67.519 1389.1 64.1249C1388.97 63.5907 1388.8 63.078 1388.6 62.5816C1376.91 50.0303 1360.88 42.2437 1343.24 42.2437H1276.66C1274.36 43.0207 1272.08 43.8895 1269.8 44.6395C1267.6 45.368 1265.35 46.0317 1263.06 46.3015C1260.84 46.5606 1258.58 46.1019 1256.43 45.5137C1253.68 44.7529 1251.03 43.5927 1248.48 42.2437H1118.39C1116.17 43.1772 1113.9 43.9704 1111.57 44.5316C1110.15 44.8716 1108.7 45.0874 1107.28 45.4112C1105.67 45.7781 1104.04 46.0695 1102.41 46.3069C1095.73 47.289 1088.96 47.37 1082.22 47.3322C1075.54 47.2998 1068.84 47.0948 1062.17 47.5049C1059.26 47.683 1056.38 48.2064 1053.5 48.6435C1050.73 49.0644 1047.96 49.4906 1045.19 49.8846C1033.97 51.4764 1022.53 52.642 1011.27 50.926C1005.74 50.0842 1000.31 48.487 995.236 45.9454C993.105 44.877 991.054 43.6305 989.095 42.2437H816.841C809.054 43.2797 801.327 44.6395 793.632 46.458C783.363 48.8809 773.008 51.2336 762.535 52.302C757.338 52.8308 752.115 53.0143 746.897 52.7985C740.955 52.5502 735.128 51.525 729.219 50.926C717.731 49.7605 706.188 49.8198 694.673 50.2839C683.368 50.7425 672.074 51.525 660.753 51.5735C655.05 51.6005 649.373 51.498 643.712 50.6886C638.392 49.9277 633.12 48.7892 627.907 47.4078C622.187 45.8968 616.527 44.1053 610.888 42.2383H516.477C511.804 43.2366 507.11 44.0891 502.372 44.6557C496.442 45.3626 490.344 45.7296 484.392 45.0874C481.155 44.7367 477.917 44.3967 474.674 44.0514C469.262 43.4686 463.849 42.8696 458.442 42.2383H380.663C380.242 42.3678 379.821 42.4865 379.406 42.643C377.976 43.1772 376.605 43.8733 375.332 44.7529C374.565 45.2817 373.842 45.8699 373.162 46.5228C372.682 46.9815 372.304 47.629 371.63 47.6452C368.872 47.6937 366.056 46.6577 363.644 45.2709C362.181 44.4291 360.811 43.3984 359.526 42.2437H225.385C223.043 42.5351 220.722 42.8426 218.38 42.4056C218.132 42.357 217.884 42.2976 217.641 42.2437H201.199C200.784 42.5513 200.379 42.8696 200.001 43.1772C198.291 44.5532 196.726 46.1235 195.048 47.5373C193.499 48.8431 191.853 50.0141 190.002 50.7425C189.177 51.0663 188.211 51.444 187.32 51.3415C186.646 51.266 185.988 51.0609 185.351 50.8127C181.838 49.4421 178.676 47.1379 175.395 45.2439C174.726 44.8554 174.046 44.4723 173.344 44.1539C172.368 43.706 171.289 43.5172 170.253 43.2743C168.553 42.875 166.842 42.5459 165.126 42.2437H113.065C100.216 42.2437 88.2209 46.3879 78.1302 53.4838C76.5707 55.1296 75.0652 56.8293 73.646 58.6047C73.182 59.1874 72.5237 59.808 72.297 60.5581C72.0596 61.3621 72.1675 62.301 72.297 63.1104C72.61 65.08 73.2575 66.9578 73.754 68.8735C74.0993 70.2171 74.5472 71.6902 73.3924 72.6777C71.6711 74.1508 69.3777 74.1077 67.3056 74.3343C66.9063 74.3775 66.4692 74.4206 66.0915 74.5879C65.8163 74.712 65.6598 74.9333 65.3468 74.9603C64.8558 75.0034 64.3162 74.8901 63.8251 74.8469C62.1146 74.712 60.3986 74.6365 58.6827 74.6689C52.2289 85.5852 48.457 98.5304 48.457 112.398V127.378C48.457 158.406 67.2571 184.884 93.0882 194.074C95.0902 193.237 97.0813 192.369 99.0941 191.559C102.359 190.243 105.747 189.045 109.244 188.845C110.787 188.759 112.536 188.802 114.004 189.379C115.579 190 116.826 191.338 117.9 192.687C119.124 194.23 120.204 195.903 121.321 197.538H277.532C283.306 194.716 288.697 191.03 294.557 188.376C297.223 187.167 299.991 186.136 302.862 185.694C304.033 185.516 305.312 185.316 306.483 185.602C307.551 185.866 308.549 186.498 309.461 187.14C311.83 188.807 313.951 190.912 316.509 192.255C317.933 193.005 319.53 193.416 321.02 194.004C322.639 194.651 324.241 195.342 325.833 196.07C326.848 196.535 327.857 197.036 328.86 197.533H483.086C483.173 197.473 483.264 197.425 483.345 197.366C485.31 195.941 487.058 194.203 488.93 192.649C490.706 191.176 492.648 189.86 494.85 189.304C496.075 188.991 497.257 188.484 498.487 188.181C499.712 187.885 500.953 187.674 502.205 187.523C507.552 186.881 512.954 187.442 518.28 188.079C523.503 188.699 528.754 189.503 534.026 189.358C536.724 189.282 539.406 188.904 542.104 188.786C544.316 188.689 546.534 188.689 548.746 188.861C553.036 189.196 557.25 190.199 561.454 191.133C564.222 191.748 567.017 192.185 569.791 192.784C572.619 193.394 575.425 194.095 578.231 194.813C581.948 195.763 585.688 196.729 589.444 197.544H688.937C694.765 196.718 700.571 195.687 706.372 194.689C716.657 192.925 727.066 191.101 737.513 191.306C742.947 191.414 748.413 192.061 753.804 192.73C759.691 193.464 765.551 194.414 771.395 195.488C774.913 196.135 778.421 196.826 781.928 197.538H956.735C965.142 195.639 973.382 192.951 981.8 191.106C986.079 190.167 990.412 189.449 994.777 189.19C999.537 188.904 1004.33 189.223 1009.1 189.136C1018.69 188.964 1028.28 188.494 1037.87 188.203C1046.49 187.944 1055.49 187.075 1063.9 189.714C1070.51 191.791 1076.58 195.428 1083.18 197.538H1311.39C1314.33 195.385 1316.99 192.768 1320.02 190.739C1323.04 188.721 1326.63 188.251 1330.11 188.187C1334.52 188.1 1338.92 188.721 1343.25 189.509C1349.93 190.728 1356.49 192.552 1363.09 194.112C1370.61 191.457 1377.52 187.329 1383.56 182.068C1384.41 179.127 1385.43 176.213 1386.73 173.396Z" fill="#BABCBE"/>
<path d="M61.0731 81.0789C61.2835 80.739 61.6936 80.6688 61.9742 80.9548C65.8486 84.8832 73.6028 83.6907 78.3784 83.2859C82.9327 82.9028 87.4924 82.061 92.0629 81.7373C89.926 80.8793 87.8378 79.8972 85.8412 78.7047C82.0693 76.4491 76.7865 72.4128 77.8334 66.9519C78.9935 60.9245 86.0139 57.4386 90.7517 55.4259C103.314 50.0837 117.657 49.1987 131.012 49.0692C137.439 49.0045 143.99 49.0423 150.4 49.5225C154.048 49.7977 157.685 50.3967 161.079 51.9184C163.734 53.1055 165.666 55.3233 167.727 57.417C170.123 59.8507 172.578 62.0091 175.989 61.7717C178.854 61.572 181.708 60.8867 184.509 60.223C190.499 58.8092 196.58 57.3361 202.456 55.442C236.387 44.5041 272.644 46.954 307.594 46.8137C317.086 46.7759 326.578 46.3712 336.069 46.8191C340.203 47.0133 344.52 47.1374 348.578 48.1033C352.484 49.0369 356.121 50.9633 359.785 52.6469C363.579 54.3952 368.16 56.6184 372.358 55.6687C376.432 54.7513 379.988 52.145 383.69 50.2186C391.191 46.3118 399.625 46.6896 407.74 46.301C424.679 45.4862 441.617 43.8566 458.518 42.254C458.485 42.2486 458.458 42.2486 458.426 42.2432H380.663C380.242 42.3727 379.821 42.4914 379.406 42.6479C377.976 43.1821 376.605 43.8782 375.332 44.7577C374.565 45.2866 373.842 45.8747 373.162 46.5277C372.682 46.9863 372.304 47.6339 371.63 47.6501C368.872 47.6986 366.056 46.6626 363.644 45.2758C362.181 44.434 360.811 43.4033 359.526 42.2486H225.385C223.043 42.5399 220.722 42.8475 218.38 42.4104C218.132 42.3619 217.884 42.3025 217.641 42.2486H201.199C200.784 42.5561 200.379 42.8745 200.001 43.1821C198.291 44.5581 196.726 46.1284 195.048 47.5421C193.499 48.848 191.853 50.019 190.002 50.7474C189.177 51.0712 188.211 51.4489 187.32 51.3464C186.646 51.2709 185.988 51.0658 185.351 50.8176C181.838 49.447 178.676 47.1428 175.395 45.2488C174.726 44.8603 174.046 44.4771 173.344 44.1588C172.368 43.7109 171.289 43.522 170.252 43.2792C168.553 42.8799 166.842 42.5507 165.126 42.2486H113.065C100.216 42.2486 88.2209 46.3928 78.1302 53.4886C76.5707 55.1345 75.0652 56.8342 73.646 58.6096C73.1819 59.1923 72.5236 59.8129 72.297 60.5629C72.0595 61.367 72.1675 62.3059 72.297 63.1153C72.6099 65.0849 73.2575 66.9627 73.7539 68.8783C74.0993 70.222 74.5472 71.6951 73.3924 72.6826C71.671 74.1557 69.3777 74.1126 67.3056 74.3392C66.9063 74.3824 66.4692 74.4255 66.0915 74.5928C65.8163 74.7169 65.6598 74.9382 65.3468 74.9652C64.8557 75.0083 64.3161 74.895 63.8251 74.8518C62.1145 74.7169 60.3986 74.6414 58.6826 74.6738C53.1192 84.0792 49.5578 94.9955 48.6782 106.705C50.3942 97.3482 56.3137 88.8224 61.0731 81.0789Z" fill="#BABCBE"/>
<path d="M48.457 125.765V127.4C48.457 131.797 48.8455 136.098 49.5686 140.28C49.11 135.445 48.7376 130.605 48.457 125.765Z" fill="#BABCBE"/>
<path d="M458.34 193.739C444.153 193.097 429.967 192.439 415.77 192.212C401.54 191.985 387.376 191.046 373.162 190.318C366.104 189.956 359.035 189.687 351.972 189.649C345.685 189.622 339.307 190.809 333.048 189.816C327.689 188.964 322.406 186.514 317.55 183.972C314.08 182.154 310.654 179.984 306.817 179.229C301.631 178.209 296.111 179.758 291.244 181.619C285.227 183.924 279.189 186.109 272.984 187.739C267.28 189.239 261.479 190.275 255.63 190.814C248.766 191.451 241.875 191.208 234.995 191.613C227.872 192.029 220.771 192.784 213.648 193.286C206.827 193.766 200.012 193.761 193.202 194.441C184.989 195.261 176.706 196.475 168.407 197.565H277.532C283.306 194.743 288.697 191.057 294.557 188.402C297.223 187.194 299.991 186.163 302.862 185.72C304.033 185.542 305.312 185.343 306.483 185.629C307.551 185.893 308.549 186.524 309.461 187.167C311.83 188.834 313.951 190.939 316.509 192.282C317.933 193.032 319.53 193.442 321.02 194.03C322.638 194.678 324.241 195.369 325.833 196.097C326.847 196.561 327.857 197.063 328.86 197.56H483.086C483.173 197.5 483.264 197.452 483.345 197.392C485.309 195.968 487.058 194.23 488.93 192.676C489.378 192.304 489.837 191.942 490.306 191.602C479.622 191.726 469.029 194.225 458.34 193.739Z" fill="#BABCBE"/>
<path d="M1018.87 185.548C1009.14 184.986 999.516 184.663 989.781 185.413C979.685 186.19 969.827 188.078 959.892 190.075C941.594 193.755 923.021 193.323 904.539 191.926C885 190.453 865.606 188.629 846.002 189.578C826.555 190.523 806.702 193.885 787.293 191.16C778.038 189.859 768.913 187.668 759.697 186.098C750.567 184.544 741.334 183.783 732.09 183.859C713.949 184.004 695.92 186.735 677.962 189.276C659.675 191.866 641.322 193.82 623.019 196.27C620.002 196.674 616.954 197.144 613.894 197.565H688.932C694.76 196.739 700.566 195.708 706.367 194.71C716.652 192.946 727.061 191.122 737.508 191.327C742.942 191.435 748.408 192.082 753.799 192.751C759.686 193.485 765.546 194.435 771.39 195.509C774.908 196.156 778.416 196.847 781.923 197.559H956.73C965.137 195.66 973.377 192.973 981.795 191.127C986.074 190.188 990.407 189.471 994.773 189.212C999.532 188.926 1004.32 189.244 1009.09 189.158C1018.69 188.985 1028.27 188.515 1037.86 188.224C1045.39 187.997 1053.2 187.307 1060.64 188.888C1047.04 185.094 1032.76 186.352 1018.87 185.548Z" fill="#BABCBE"/>
<path d="M1397.23 121.011C1398.16 120.45 1399.08 119.872 1400.01 119.306C1400.01 119.241 1400.01 119.176 1400.02 119.117C1400.11 118.167 1400.07 116.672 1400.71 115.96C1403 113.397 1405.37 110.898 1407.39 108.071C1407.5 107.925 1407.58 107.758 1407.68 107.607C1407.07 98.0449 1404.68 88.9956 1400.87 80.8421C1399.76 80.5237 1398.64 80.1946 1397.55 79.8168C1396.22 79.3582 1394.88 78.8293 1393.66 78.0793C1392.32 77.2483 1391.32 75.9478 1390.66 74.4315C1389.27 71.1831 1389.93 67.5191 1389.1 64.125C1388.97 63.5907 1388.8 63.0781 1388.6 62.5817C1386.36 60.175 1383.96 57.9518 1381.43 55.9175C1382.71 58.3619 1383.6 61.0546 1383.68 63.8228C1383.74 66.2348 1383.12 68.5228 1382.45 70.7892C1381.79 73.0016 1381.13 75.2949 1382.08 77.5343C1384.12 82.3476 1388.79 83.3243 1393.01 84.3334C1397.21 85.3424 1398.96 88.6179 1399.87 92.9887C1400.78 97.338 1401.42 101.882 1398.25 105.335C1395.19 108.664 1390.77 110.424 1387.19 113.068C1388.35 115.965 1389.98 118.609 1391.65 121.183C1394.91 126.223 1399.03 131.328 1400.54 137.399C1401.73 142.185 1400.43 147.247 1397.58 150.997C1394.56 154.958 1390.48 157.774 1387.73 162C1385.21 165.869 1384.14 170.601 1381.57 174.389C1378.52 178.889 1373.47 182.197 1368.75 184.221C1363.88 186.304 1358.66 186.001 1353.54 185.543C1346.63 184.928 1339.92 182.402 1333 181.668C1329.5 181.296 1325.85 181.199 1322.4 182.024C1319.18 182.796 1316.23 184.685 1313.42 186.487C1310.94 188.09 1308.46 189.736 1305.76 190.885C1302.74 192.169 1299.46 192.698 1296.26 193.119C1289.26 194.042 1282.18 193.777 1275.18 192.957C1261.07 191.295 1247.22 187.383 1233.02 186.417C1225.68 185.915 1218.65 186.654 1211.42 187.912C1203.85 189.223 1196.27 190.442 1188.68 191.549C1173.21 193.804 1157.68 195.579 1142.09 196.68C1136.84 197.053 1131.57 197.339 1126.31 197.549H1311.38C1314.33 195.396 1316.98 192.779 1320.02 190.75C1323.03 188.732 1326.62 188.262 1330.11 188.198C1334.51 188.111 1338.91 188.732 1343.25 189.52C1349.92 190.739 1356.48 192.563 1363.09 194.123C1370.6 191.468 1377.51 187.34 1383.55 182.078C1384.41 179.105 1385.43 176.186 1386.74 173.375C1390.31 165.658 1397.54 160.974 1401.89 153.862C1402.97 152.098 1403.86 150.204 1404.4 148.164C1404.68 147.106 1404.95 145.962 1404.95 144.861C1404.96 143.502 1404.85 142.126 1404.65 140.782C1404.04 136.622 1402.36 132.882 1401.13 128.927C1399.53 126.725 1398.06 124.421 1397.03 121.842C1396.9 121.561 1396.94 121.189 1397.23 121.011Z" fill="#BABCBE"/>
<path d="M1152.05 47.5637C1170.17 49.6358 1188.41 51.1575 1206.64 50.402C1211.28 50.2078 1215.91 49.8732 1220.53 49.366C1224.68 48.9127 1228.76 47.9144 1232.86 47.0996C1236.72 46.3334 1240.67 45.6535 1244.6 45.9233C1248.28 46.1769 1251.28 48.5188 1254.59 49.9757C1262.46 53.44 1271.37 49.7977 1278.82 46.765C1282.67 45.1948 1286.53 43.6785 1290.42 42.2539H1276.65C1274.35 43.0309 1272.07 43.8997 1269.8 44.6498C1267.59 45.3783 1265.35 46.042 1263.06 46.3118C1260.84 46.5708 1258.58 46.1121 1256.43 45.5239C1253.67 44.7631 1251.03 43.6029 1248.48 42.2539H1118.39C1117.55 42.6047 1116.71 42.9284 1115.86 43.236C1127.93 44.5688 1139.98 46.1877 1152.05 47.5637Z" fill="#BABCBE"/>
<path d="M1082.25 197.236C1082.56 197.344 1082.87 197.468 1083.18 197.565H1088.82C1086.62 197.479 1084.44 197.365 1082.25 197.236Z" fill="#BABCBE"/>
<g opacity="0.39">
<path d="M1339.57 150.883C1338.42 149.21 1336.64 148.131 1334.78 147.726C1330.06 146.69 1324.44 148.191 1321.99 153.09C1321.14 154.779 1320.73 156.619 1320.72 158.465C1320.43 159.485 1320.28 160.548 1320.32 161.589C1320.42 164.19 1321.5 166.429 1323.49 167.919C1330.9 173.46 1340.38 164.74 1340.88 156.279C1340.99 154.401 1340.62 152.416 1339.57 150.883Z" fill="#6C6C65"/>
<path d="M1365.3 160.159C1364.87 158.75 1364.06 157.698 1363.02 156.754C1362.68 156.441 1362.3 156.16 1361.9 155.933C1361.35 155.62 1360.75 155.297 1360.14 155.151C1359.28 154.951 1358.46 154.892 1357.59 155.108C1356.08 155.48 1354.81 156.478 1353.94 157.849C1353.89 157.925 1353.85 158 1353.81 158.076C1353.64 158.416 1353.46 158.772 1353.36 159.149C1353.23 159.619 1353.12 160.121 1353.11 160.612C1353.09 160.995 1353.12 161.383 1353.16 161.772C1353.11 162.09 1353.05 162.409 1353.04 162.727C1352.99 163.466 1353.06 164.297 1353.31 164.993C1353.64 165.916 1354.06 166.628 1354.8 167.238C1355.56 167.864 1356.57 168.118 1357.51 168.166C1358.73 168.231 1359.92 167.864 1361.06 167.422C1362.11 167.012 1363.06 166.299 1363.86 165.458C1365.09 164.152 1365.87 162.009 1365.3 160.159Z" fill="#6C6C65"/>
<path d="M1364.96 123.562C1364.49 120.816 1362.39 118.668 1359.91 118.107C1356.86 117.422 1353.69 118.328 1351.43 120.686C1350.35 121.814 1349.57 123.433 1349.48 125.073C1349.44 125.802 1349.56 126.509 1349.75 127.189C1349.6 129.601 1350.69 132.169 1352.68 133.286C1355.47 134.851 1358.6 134.409 1361.24 132.698C1364.13 130.826 1365.56 127.118 1364.96 123.562Z" fill="#6C6C65"/>
<path d="M1299.09 141.947C1299.05 141.769 1298.96 141.629 1298.82 141.526C1298.66 141.316 1298.45 141.181 1298.2 141.116C1298.14 141.1 1298.08 141.084 1298.02 141.073C1297.82 141.035 1297.62 141.008 1297.42 140.976C1297.39 140.97 1297.37 140.97 1297.34 140.965C1297.07 140.938 1296.76 140.997 1296.5 141.03C1296.46 141.035 1296.43 141.04 1296.4 141.051C1296.16 141.121 1295.92 141.197 1295.69 141.305C1295.01 141.612 1294.36 142.195 1293.98 142.864C1293.79 143.15 1293.68 143.463 1293.64 143.798C1293.56 144.095 1293.55 144.397 1293.63 144.704C1293.71 144.882 1293.78 145.06 1293.86 145.239C1294.01 145.498 1294.23 145.676 1294.49 145.773C1294.65 145.886 1294.84 145.945 1295.03 145.945C1295.3 146.01 1295.58 146.005 1295.85 145.94C1295.92 145.972 1295.98 146.005 1296.04 146.032C1296.26 146.107 1296.49 146.118 1296.71 146.075C1296.87 146.075 1297.04 146.037 1297.19 145.962C1297.45 145.891 1297.69 145.762 1297.91 145.584C1298.05 145.454 1298.18 145.325 1298.32 145.195C1298.42 145.05 1298.53 144.904 1298.63 144.758C1298.76 144.569 1298.83 144.359 1298.87 144.138C1298.86 144.159 1298.86 144.176 1298.86 144.197C1298.88 144.073 1298.91 143.949 1298.96 143.83C1298.97 143.787 1298.99 143.744 1299 143.701C1299.01 143.658 1299.02 143.614 1299.03 143.571C1299.06 143.469 1299.09 143.372 1299.13 143.274C1299.17 143.086 1299.2 142.902 1299.24 142.713C1299.27 142.443 1299.22 142.184 1299.09 141.947Z" fill="#6C6C65"/>
<path d="M1288.67 171.62C1288.62 171.523 1288.59 171.437 1288.54 171.324C1288.46 171.124 1288.45 171.07 1288.41 171.021C1289.98 172.694 1288.06 170.622 1287.99 170.568L1287.43 170.288C1287.42 170.282 1287.4 170.282 1287.39 170.277C1287.38 170.277 1287.38 170.271 1287.37 170.271C1287.25 170.244 1287.16 170.239 1287.03 170.217C1286.91 170.201 1286.8 170.18 1286.69 170.163C1286.31 170.147 1285.94 170.217 1285.59 170.374C1285.46 170.417 1285.34 170.46 1285.21 170.509C1284.97 170.66 1284.72 170.811 1284.47 170.957C1284.24 171.124 1284.02 171.34 1283.82 171.561C1283.74 171.647 1283.66 171.739 1283.59 171.825C1283.54 171.879 1283.49 171.939 1283.44 171.993C1283.36 172.095 1283.28 172.209 1283.21 172.316C1283.07 172.43 1282.93 172.549 1282.81 172.689C1282.69 172.84 1282.57 173.018 1282.46 173.185C1282.45 173.207 1282.43 173.234 1282.42 173.255C1282.36 173.347 1282.33 173.439 1282.28 173.547C1282.15 173.838 1282.07 174.022 1282.06 174.378C1282.05 174.577 1282.08 174.815 1282.12 175.025C1282.21 175.376 1282.39 175.657 1282.67 175.867C1282.96 176.072 1283.28 176.175 1283.63 176.175C1284.05 176.137 1284.45 176.083 1284.86 176.007C1285.12 175.959 1285.35 175.862 1285.6 175.775C1285.61 175.77 1285.62 175.77 1285.63 175.765C1285.69 175.743 1286.33 175.527 1286.38 175.5C1286.92 175.268 1287.07 175.095 1287.45 174.745C1287.56 174.648 1287.66 174.545 1287.77 174.448C1287.98 174.221 1288.14 173.957 1288.28 173.676L1288.28 173.665L1288.29 173.644C1288.33 173.568 1288.38 173.493 1288.41 173.412C1288.59 172.996 1288.53 173.18 1288.57 173.045C1288.57 173.045 1288.58 173.034 1288.58 173.023C1288.58 173.007 1288.58 172.996 1288.59 172.98L1288.59 172.975L1288.73 172.279C1288.7 172.063 1288.68 171.842 1288.67 171.62Z" fill="#6C6C65"/>
<path d="M1288.67 171.62C1289.81 174.335 1288.65 171.539 1288.67 171.62Z" fill="#6C6C65"/>
</g>
<g opacity="0.39">
<path d="M127.498 114.454C126.354 112.781 124.568 111.702 122.707 111.292C117.99 110.256 112.368 111.756 109.918 116.656C109.071 118.345 108.661 120.19 108.655 122.03C108.364 123.05 108.207 124.113 108.25 125.154C108.353 127.755 109.432 129.989 111.423 131.484C118.827 137.026 128.308 128.306 128.81 119.845C128.918 117.972 128.545 115.986 127.498 114.454Z" fill="#6C6C65"/>
<path d="M153.229 123.73C152.797 122.322 151.982 121.27 150.946 120.325C150.601 120.012 150.223 119.732 149.824 119.505C149.273 119.192 148.68 118.868 148.065 118.723C147.201 118.523 146.381 118.464 145.512 118.674C144.007 119.046 142.733 120.045 141.864 121.415C141.816 121.491 141.778 121.566 141.74 121.647C141.573 121.987 141.395 122.343 141.287 122.721C141.158 123.191 141.055 123.693 141.039 124.184C141.023 124.567 141.055 124.955 141.093 125.338C141.039 125.657 140.985 125.975 140.969 126.293C140.92 127.033 140.996 127.864 141.244 128.56C141.573 129.483 141.989 130.195 142.728 130.805C143.494 131.431 144.503 131.684 145.437 131.733C146.656 131.797 147.849 131.431 148.982 130.988C150.034 130.578 150.984 129.866 151.783 129.024C153.013 127.723 153.795 125.581 153.229 123.73Z" fill="#6C6C65"/>
<path d="M152.884 87.1337C152.414 84.3871 150.32 82.2395 147.833 81.6783C144.784 80.993 141.617 81.8995 139.356 84.2576C138.276 85.3854 137.494 87.0042 137.408 88.6446C137.37 89.3731 137.483 90.08 137.677 90.7599C137.521 93.172 138.622 95.7405 140.607 96.8575C143.397 98.4224 146.522 97.9799 149.166 96.2693C152.063 94.3969 153.488 90.6898 152.884 87.1337Z" fill="#6C6C65"/>
<path d="M87.0183 105.518C86.9752 105.34 86.8834 105.2 86.7431 105.097C86.5813 104.887 86.3762 104.752 86.1226 104.687C86.0632 104.671 86.0093 104.655 85.9499 104.644C85.7503 104.606 85.5452 104.579 85.3456 104.547C85.3186 104.542 85.297 104.542 85.27 104.536C84.9948 104.509 84.6818 104.569 84.4228 104.601C84.3904 104.606 84.3581 104.612 84.3257 104.622C84.0829 104.693 83.8454 104.768 83.6134 104.876C82.9335 105.184 82.286 105.766 81.9028 106.436C81.7194 106.722 81.6114 107.035 81.5683 107.369C81.4819 107.666 81.4765 107.968 81.5575 108.276C81.633 108.454 81.7086 108.632 81.7787 108.81C81.9352 109.069 82.1511 109.247 82.4101 109.344C82.572 109.457 82.7554 109.517 82.9497 109.517C83.2249 109.581 83.5001 109.576 83.7753 109.511C83.8346 109.544 83.8994 109.576 83.9588 109.603C84.18 109.679 84.4066 109.689 84.6279 109.646C84.7951 109.646 84.9516 109.608 85.1081 109.533C85.3671 109.463 85.61 109.333 85.8258 109.155C85.9661 109.026 86.101 108.896 86.2413 108.767C86.3438 108.621 86.4517 108.475 86.5543 108.33C86.6784 108.141 86.7485 107.93 86.7863 107.709C86.7809 107.731 86.7809 107.752 86.7755 107.768C86.7971 107.644 86.8349 107.52 86.878 107.401C86.8942 107.358 86.9104 107.321 86.9212 107.272C86.932 107.229 86.9374 107.186 86.9482 107.142C86.9752 107.04 87.0075 106.943 87.0453 106.846C87.0831 106.657 87.1155 106.473 87.1532 106.284C87.1964 106.009 87.1478 105.756 87.0183 105.518Z" fill="#6C6C65"/>
<path d="M76.5928 135.192C76.5496 135.094 76.5173 135.008 76.4687 134.895C76.3824 134.695 76.3716 134.641 76.3392 134.598C77.9041 136.271 75.9884 134.199 75.9129 134.145C75.9129 134.145 75.3571 133.864 75.3517 133.864C75.3409 133.859 75.3301 133.859 75.3193 133.853C75.3085 133.853 75.3031 133.848 75.2923 133.848C75.179 133.821 75.0873 133.816 74.9524 133.794C74.8391 133.778 74.7258 133.756 74.6178 133.74C74.2347 133.724 73.8624 133.794 73.5116 133.951C73.3875 133.994 73.2634 134.037 73.1339 134.08C72.8911 134.231 72.6429 134.382 72.4 134.533C72.1626 134.701 71.9468 134.916 71.7471 135.138C71.6662 135.224 71.5906 135.316 71.5151 135.402C71.4665 135.456 71.4179 135.515 71.3694 135.569C71.283 135.672 71.2075 135.785 71.132 135.899C70.9917 136.012 70.8514 136.131 70.738 136.271C70.6139 136.422 70.4952 136.6 70.3873 136.767C70.3711 136.789 70.3603 136.81 70.3441 136.837C70.2902 136.929 70.2578 137.021 70.2092 137.134C70.0797 137.426 69.9988 137.609 69.9826 137.965C69.9718 138.165 70.0096 138.402 70.0473 138.613C70.1337 138.963 70.3117 139.244 70.5923 139.455C70.8837 139.66 71.2075 139.762 71.5582 139.762C71.9737 139.724 72.3784 139.67 72.7886 139.595C73.0368 139.546 73.2796 139.449 73.5224 139.363C73.5332 139.357 73.544 139.357 73.5548 139.352C73.6142 139.33 74.2509 139.115 74.3103 139.088C74.8499 138.856 74.9956 138.683 75.3733 138.332C75.4812 138.235 75.5837 138.133 75.6917 138.035C75.9075 137.809 76.0694 137.544 76.2043 137.264C76.2043 137.258 76.2097 137.258 76.2097 137.253L76.2205 137.231C76.2583 137.156 76.3014 137.08 76.3338 136.999C76.5173 136.584 76.4525 136.767 76.4957 136.627C76.4957 136.622 76.5011 136.616 76.5011 136.611C76.5065 136.595 76.5119 136.584 76.5119 136.568L76.5173 136.562L76.6522 135.866C76.6306 135.629 76.6144 135.413 76.5928 135.192Z" fill="#6C6C65"/>
<path d="M76.5917 135.191C77.7357 137.9 76.5755 135.105 76.5917 135.191Z" fill="#6C6C65"/>
</g>
<path d="M884.481 40.4629C875.756 40.4089 867.03 40.328 858.304 40.2254C849.601 40.1229 840.924 39.5078 832.22 39.3944C823.634 39.2865 815.109 39.9287 806.626 41.3856C802.449 42.1033 798.532 43.625 794.485 44.8877C790.459 46.145 786.482 47.181 782.333 47.8124C777.978 48.4761 773.634 49.1992 769.247 49.5013C764.925 49.8035 760.597 49.7658 756.264 49.8683C751.834 49.9708 747.452 50.1812 743.022 49.9276C738.851 49.6956 734.885 48.4761 730.768 47.9203C721.896 46.7331 713.111 47.5426 704.24 48.244C699.718 48.6002 695.175 49.075 690.642 49.102C686.206 49.1236 681.766 48.843 677.357 48.3628C675.01 48.1038 672.684 47.6829 670.342 47.3915C667.995 47.1001 665.572 47.1486 663.219 47.3159C658.352 47.6559 653.528 48.6002 648.65 48.7621C643.712 48.9186 638.877 48.0768 634.091 46.8195C631.744 46.2043 629.391 45.5946 627.044 44.9686C624.48 44.2833 621.885 44.0729 619.284 43.598C618.512 43.4577 617.282 44.769 618.35 45.2276C620.304 46.0694 622.031 47.3267 623.973 48.1577C625.975 49.0211 627.966 49.9168 629.99 50.7263C634.01 52.3397 638.267 53.7697 642.557 54.1744C646.939 54.5845 651.331 54.0934 655.692 53.5808C660.089 53.0628 664.487 52.6958 668.885 52.2156C673.423 51.7191 677.897 51.7839 682.451 51.9512C686.962 52.1185 691.441 51.9836 695.946 51.7137C700.468 51.4439 704.99 51.104 709.512 50.8126C713.926 50.5266 718.41 50.0032 722.797 50.8126C724.648 51.1525 726.386 51.9134 728.156 52.5663C730.287 53.3488 732.51 53.9423 734.696 54.5413C738.975 55.7177 743.292 56.2033 747.701 56.2195C752.212 56.2357 756.739 55.9389 761.212 55.2968C765.67 54.66 770.04 53.5646 774.471 52.766C778.658 52.0105 782.916 51.5087 787.065 50.5536C790.988 49.6524 794.776 48.1955 798.704 47.3213C802.768 46.4202 806.82 46.2097 810.954 46.0101C815.276 45.7996 819.609 45.5514 823.926 45.1629C833.974 44.2509 844.037 43.3228 854.117 43.0152C863.981 42.713 873.861 42.9073 883.731 42.8533C884.95 42.8372 886.121 40.4737 884.481 40.4629Z" fill="#BABCBE"/>
<path d="M142.275 176.887C140.03 178.711 137.58 179.936 134.958 180.961C133.501 181.527 132.017 181.986 130.533 182.445C130.873 181.679 131.207 180.912 131.536 180.146C134.024 174.34 136.636 167.659 141.557 163.785C142.636 162.932 141.757 161.556 140.656 162.387C138.104 164.325 135.756 166.586 133.819 169.241C131.839 171.955 130.268 175.014 128.752 178.047C125.806 183.94 123.539 190.528 119.136 195.368C118.602 195.957 118.316 197.041 119.028 197.608C119.773 198.196 120.825 197.613 121.392 197.036C124.397 193.949 126.691 190.264 128.66 186.368C133.932 184.452 139.102 182.083 143.154 177.826C143.856 177.103 142.976 176.315 142.275 176.887Z" fill="#BABCBE"/>
<path d="M72.5397 106.613C68.4927 107.827 64.4456 109.058 60.4633 110.515C58.4343 111.259 56.3946 111.993 54.371 112.754C52.3475 113.515 50.297 114.152 48.3868 115.215C47.4316 115.749 47.0755 117.406 48.5486 117.233C50.6261 116.985 52.5687 116.17 54.5329 115.436C55.3747 115.123 56.2057 114.794 57.0367 114.459C57.0691 114.475 57.1015 114.492 57.1392 114.502C61.645 115.744 66.1723 116.995 70.8454 117.152C71.277 117.168 71.7033 116.369 71.1098 116.305C67.4296 115.889 63.8952 114.448 60.4039 113.094C60.4632 113.067 60.5226 113.045 60.5874 113.019C64.6182 111.362 68.5736 109.495 72.6584 107.995C73.3653 107.736 73.484 106.327 72.5397 106.613Z" fill="#BABCBE"/>
<path d="M497.293 169.289C495.437 171.674 493.494 173.903 491.816 176.455C491.411 177.07 491.034 177.696 490.667 178.333C490.473 177.308 490.24 176.293 489.96 175.306C488.913 171.626 487.494 168.075 486.156 164.514C485.945 163.947 485.049 164.449 485.184 164.978C486.123 168.636 486.987 172.316 487.559 176.067C487.855 177.982 488.185 179.887 488.303 181.824C488.33 182.224 488.325 182.623 488.33 183.017C488.104 183.546 487.877 184.075 487.661 184.609C486.809 186.767 486.161 188.963 486.091 191.332C486.069 192.147 486.172 192.989 485.956 193.782C485.735 194.597 485.206 194.834 484.537 195.244C483.744 195.736 483.42 197.662 484.736 197.532C486.965 197.317 488.859 195.719 489.901 193.599C490.931 191.505 491.169 189.163 491.525 187.042C492.005 184.204 493.295 181.144 494.412 178.382C495.572 175.506 496.91 172.505 498.572 169.937C499.198 168.976 497.833 168.598 497.293 169.289Z" fill="#BABCBE"/>
<path d="M1062.75 46.8946C1060.38 46.7867 1057.95 47.1752 1055.6 47.418C1053.34 47.6501 1051.07 47.9145 1048.81 48.1951C1044.08 48.7779 1039.33 49.2365 1034.59 49.6359C1030.19 50.0082 1025.8 49.3876 1021.41 49.1394C1016.82 48.8804 1012.3 48.6052 1007.75 47.8551C1002.15 46.9378 996.736 45.0114 991.199 43.7649C990.638 43.6354 989.775 44.407 990.33 44.979C997.248 52.0695 1007.87 53.915 1017.04 54.352C1018.18 55.1776 1019.16 56.0842 1019.93 57.4224C1020.58 58.534 1020.83 59.8723 1021.2 61.1134C1021.58 62.4516 1022.08 63.7305 1022.34 65.1011C1022.91 68.0797 1023.81 70.6699 1024.99 73.4111C1025.67 74.9652 1026.67 76.897 1026.22 78.6345C1025.64 80.8577 1024.29 82.8273 1023.54 84.9911C1022.69 87.4733 1022.45 90.1876 1022.39 92.8155C1022.32 95.3139 1022.14 98.2386 1022.86 100.629C1023.18 101.692 1024.65 100.964 1024.85 100.165C1025.37 98.0767 1025.16 95.9075 1025.1 93.7598C1025.03 91.5366 1025.02 89.2918 1025.36 87.0956C1025.67 85.1314 1026.47 83.3399 1027.2 81.5214C1027.42 82.0988 1027.64 82.6708 1027.9 83.2212C1028.04 83.5126 1028.17 83.8094 1028.3 84.1062C1028.37 84.2519 1028.43 84.403 1028.5 84.554C1028.52 84.608 1028.55 84.6728 1028.56 84.6944C1028.58 84.7429 1028.6 84.7969 1028.62 84.8454C1028.74 85.1368 1028.85 85.4282 1028.96 85.725C1029.05 85.9678 1029.12 86.2538 1029.26 86.4589C1029.36 86.5992 1029.5 86.7179 1029.61 86.842C1029.87 87.1226 1030.12 87.3115 1030.51 87.3061C1030.86 87.3007 1031.19 87.1927 1031.49 87.0039C1032.12 86.6154 1032.64 85.8977 1032.5 85.0721C1032.43 84.6296 1032.32 84.2519 1032.07 83.8849C1031.89 83.6151 1031.69 83.3453 1031.5 83.0809C1031.09 82.5413 1030.68 82.0179 1030.25 81.5053C1029.57 80.7012 1028.78 80.0051 1027.99 79.3144C1028.22 78.5698 1028.41 77.8143 1028.51 77.0265C1028.99 73.0765 1026.42 69.8551 1025.84 66.04C1025.23 62.0469 1026.38 57.1904 1023.69 53.9204C1026.26 53.5426 1028.83 53.0084 1031.42 52.6199C1036.18 51.9076 1040.95 51.2601 1045.71 50.4884C1048.38 50.0567 1051.06 49.733 1053.74 49.4146C1056.63 49.0747 1059.58 49.0045 1062.45 48.5081C1063.16 48.4001 1063.83 46.9486 1062.75 46.8946Z" fill="#BABCBE"/>
<path d="M1387.71 60.0881C1386.65 58.7283 1385.4 57.5466 1384.12 56.435C1381.5 54.1632 1378.91 51.7565 1376.16 49.6952C1372.93 47.2778 1369.22 45.5294 1365.47 44.3477C1363.53 43.7379 1361.5 43.4411 1359.49 43.29C1357.41 43.1336 1355.48 43.5005 1353.42 43.6462C1352.67 43.7001 1351.84 45.1517 1352.93 45.1787C1354.63 45.2218 1356.43 45.9611 1358.04 46.5547C1359.7 47.1698 1361.3 47.9739 1362.89 48.7779C1365.42 50.0622 1367.82 51.6756 1370.15 53.37C1368.69 54.8053 1367.38 56.4026 1365.82 57.6815C1364.4 58.8416 1362.86 59.5485 1361.27 60.3741C1359.48 61.3022 1357.74 62.3545 1356.05 63.4823C1349.54 67.8261 1344.43 73.7403 1338.84 79.2875C1337.88 80.2426 1339.26 80.9926 1340.06 80.194C1345.47 74.8249 1351.58 69.5691 1358.15 65.9915C1361.46 64.1892 1365.11 63.2071 1368.29 61.1404C1369.51 60.3471 1370.63 59.3866 1371.74 58.4153C1372.5 57.7354 1373.36 57.0231 1374.2 56.2731C1376.34 57.6545 1378.52 58.7769 1380.85 59.9047C1382.28 60.5954 1383.67 61.3886 1384.99 62.3113C1385.67 62.7862 1386.32 63.2988 1386.91 63.8978C1387.56 64.5561 1387.98 65.2684 1388.85 65.5328C1389.35 65.6893 1389.93 65.209 1389.99 64.664C1390.17 63.029 1388.63 61.2645 1387.71 60.0881Z" fill="#BABCBE"/>
</svg>
