<svg width="87" height="87" viewBox="0 0 87 87" fill="none" xmlns="http://www.w3.org/2000/svg">
<g clip-path="url(#clip0_371_673)">
<path d="M87 0H0V87H87V0Z" fill="url(#paint0_linear_371_673)"/>
<g filter="url(#filter0_d_371_673)">
<path d="M30.9502 48.57L32.7002 49.03L35.0702 49.65L35.7702 51.45L38.4802 52.71C38.4502 52.09 38.6302 51.69 38.8902 51.44C39.4002 50.94 40.2002 51 40.2002 51C40.2002 51 42.9902 44.24 52.0502 39.15C61.1002 34.06 67.6302 32.9 69.8502 18.01C69.8502 18.01 58.8102 24.47 47.4302 33.36C43.6602 36.3 39.8602 39.51 36.4102 42.84C34.4602 44.72 32.6202 46.64 30.9602 48.57H30.9502Z" fill="#B4D0D6"/>
<path d="M31.7804 47.62C33.2504 45.96 34.8004 44.37 36.4004 42.84C36.4004 42.84 42.7804 36.71 47.4204 33.36C43.2704 37.27 40.0704 41.08 38.1004 43.62C36.3004 45.94 36.5504 49.24 38.6804 51.25C38.8004 51.36 38.8804 51.43 38.8804 51.43C38.6204 51.68 38.4404 52.08 38.4704 52.7L35.7604 51.44L35.0604 49.64C34.0504 49.38 31.9404 48.82 30.9404 48.56C31.2104 48.24 31.4904 47.93 31.7704 47.61L31.7804 47.62Z" fill="#C5E2E4"/>
<path d="M66.5505 22.44C66.5505 22.44 64.9705 28.41 60.2805 31.19C55.5905 33.97 41.8805 40.1 38.4805 49.36L40.1905 50.99C40.1905 50.99 40.8005 49.52 42.3705 47.42C44.1605 45.04 47.2105 41.85 52.0305 39.14C57.7105 35.95 62.4005 34.3 65.6505 29.83C65.7605 29.69 65.8605 29.54 65.9605 29.39C67.7305 26.79 69.0405 23.26 69.8205 18.04C69.8205 18.02 69.8205 18.01 69.8205 18.01C69.8205 18.01 59.0005 24.34 47.7405 33.1C47.6305 33.19 47.5105 33.28 47.4005 33.36L49.0005 34.35L59.4605 27.25L66.5305 22.44H66.5505Z" fill="#A5BBCA"/>
<path d="M30.6 48.22C27.85 51.05 14.74 64.74 17.56 67.55C17.63 67.62 17.7 67.69 17.77 67.75C19.16 69 20.72 69.12 21.93 68.92C22.62 68.81 23.19 68.6 23.56 68.43C23.82 68.31 24 68.06 24.01 67.77C24.06 66.43 24.6 62.35 28.98 60.1C29.25 59.96 29.4 59.68 29.38 59.38C29.3 58.27 29.53 55.66 33.31 55.92C33.31 55.92 31.97 51.77 36.67 51.59C36.67 51.59 34.71 49.39 35.83 46.7C35.83 46.7 35.03 46.27 33.84 46.42C33.72 46.44 33.59 46.46 33.46 46.49C32.62 46.67 31.63 47.15 30.6 48.21V48.22Z" fill="#904A19"/>
<path d="M35.2505 51.09C35.2505 51.09 31.1005 51.08 32.1905 55.3C32.1905 55.3 27.0005 55.07 28.1505 59.69C28.1505 59.69 22.1505 60.88 22.8905 67.75C22.8905 67.75 20.7505 69.23 17.7705 67.75C20.0105 69.77 22.7005 68.83 23.6505 68.39C23.8605 68.29 24.0005 68.08 24.0105 67.85C24.0505 66.6 24.5205 62.35 29.0505 60.07C29.2805 59.96 29.4105 59.72 29.3905 59.47C29.3005 58.41 29.4405 55.67 33.3105 55.93C33.3105 55.93 31.9705 51.78 36.6705 51.6C36.6705 51.6 34.7105 49.4 35.8305 46.71C35.8305 46.71 35.0305 46.28 33.8405 46.43C33.8405 46.46 33.4905 48.67 35.2505 51.09Z" fill="#844013"/>
<path d="M37.0702 51.5C37.3002 51.6 37.5202 51.72 37.7302 51.88C37.8402 51.96 37.9402 52.05 38.0402 52.15C39.2402 53.35 39.2402 55.29 38.0402 56.48C36.8402 57.67 34.9002 57.68 33.7102 56.48C33.4202 56.19 33.2002 55.86 33.0602 55.51C32.5902 54.39 32.8002 53.05 33.7102 52.14C34.6202 51.23 35.9602 51.01 37.0802 51.49L37.0702 51.5ZM34.2802 55.91C34.3902 56.02 34.5202 56.12 34.6502 56.21C35.5202 56.78 36.7002 56.68 37.4702 55.91C38.2402 55.14 38.3402 53.87 37.6902 52.99C37.6202 52.9 37.5502 52.81 37.4702 52.73C36.5902 51.85 35.1702 51.85 34.2902 52.73C33.4102 53.61 33.4102 55.03 34.2902 55.91H34.2802Z" fill="#7085A6"/>
<path d="M30.6 48.22C27.85 51.05 14.74 64.74 17.56 67.55C16.68 64.44 25.41 55.3 28.54 51.42C31.64 47.58 33.42 46.52 33.46 46.5C32.62 46.68 31.63 47.16 30.6 48.22Z" fill="#9D511E"/>
<path d="M34.2803 55.91C33.4003 55.03 33.4003 53.61 34.2803 52.73C35.1603 51.85 36.5803 51.85 37.4603 52.73C37.4603 52.73 36.1803 51.22 34.3803 52.22C32.5903 53.23 33.3503 55.35 34.2703 55.91H34.2803Z" fill="#617998"/>
<path d="M33.05 55.52C33.2 55.87 33.42 56.2 33.7 56.49C34.9 57.69 36.84 57.69 38.03 56.49C39.22 55.29 39.23 53.35 38.03 52.16C37.93 52.06 37.83 51.97 37.72 51.89C37.72 51.89 39.3 53.3 38.48 55.5C37.66 57.71 34.17 57.58 33.3 55.94C33.21 55.76 33.12 55.63 33.04 55.53L33.05 55.52Z" fill="#617998"/>
<path d="M33.7 52.15C32.79 53.06 32.57 54.4 33.05 55.52C32.86 54.84 32.51 53.67 33.75 52.33C34.97 51 37.03 51.49 37.07 51.5C35.95 51.03 34.61 51.24 33.7 52.15Z" fill="#7D96B7"/>
<path d="M34.6396 56.21C35.1296 56.63 36.8597 57.1 37.8097 55.8C38.8697 54.35 37.7296 53.05 37.6796 52.99C38.3296 53.87 38.2496 55.12 37.4596 55.91C36.6696 56.7 35.5196 56.77 34.6396 56.21Z" fill="#7D96B7"/>
<path d="M66.3902 22.94L69.8401 18L66.1602 22.71L66.3902 22.94Z" fill="#B4D0D6"/>
<path d="M47.4199 33.36L49.0199 34.35L57.3799 28.67L49.0999 33.97L47.7599 33.09C47.6499 33.18 47.5299 33.27 47.4199 33.35V33.36Z" fill="#8B99AD"/>
<path d="M68.6503 19.52L66.0203 22.57L58.0703 28.2L66.1603 22.71L68.6503 19.52Z" fill="#D7EEFE"/>
<path d="M53.2499 37.69C49.3299 39.74 44.8799 43.5 42.9399 46.29C42.6699 46.68 42.4899 47.06 42.3799 47.42C44.1699 45.04 47.2199 41.85 52.0399 39.14C57.7199 35.95 62.4099 34.3 65.6599 29.83C65.7699 29.69 65.8699 29.54 65.9699 29.39C67.7399 26.79 69.0499 23.26 69.8299 18.04C69.7399 18.6 68.4799 25.9 65.0899 29.77C61.5599 33.8 57.1599 35.65 53.2399 37.7L53.2499 37.69Z" fill="#D7EEFE"/>
<path d="M40.1902 50.99C40.1902 50.99 42.9802 44.23 52.0402 39.14C57.7202 35.95 62.4102 34.3 65.6602 29.83C64.8702 30.85 62.4702 33.29 57.2202 36.01C50.4802 39.49 44.5502 42.46 40.1802 50.49L38.4902 49.35L40.2002 50.98L40.1902 50.99Z" fill="#8B99AD"/>
<path d="M68.4598 19.98L66.3898 22.94C66.3898 22.94 64.8698 28.19 60.5098 31.04C60.5098 31.04 64.8898 28.77 66.5998 23.02L68.4598 19.97V19.98Z" fill="#D7EEFE"/>
<path d="M31.9097 49.53C32.3097 49.93 30.0997 52.98 28.1097 55.13C26.1897 57.21 23.1597 61.36 22.3597 64.1C21.5597 66.84 20.2997 67.34 19.5797 66.65C18.5697 65.66 21.1097 61.85 24.1497 57.8C27.1897 53.75 31.3697 49.01 31.8997 49.54L31.9097 49.53Z" fill="#9D511E"/>
<path d="M29.7503 53.14C29.9103 53.3 30.1403 53.34 30.3503 53.26C30.4203 53.23 30.4803 53.19 30.5303 53.14C30.7403 52.93 30.7403 52.58 30.5303 52.37C30.4803 52.32 30.4203 52.28 30.3503 52.25C30.1503 52.17 29.9103 52.21 29.7503 52.37C29.5403 52.58 29.5403 52.93 29.7503 53.14Z" fill="#844013"/>
<path d="M29.8098 52.43C29.6298 52.61 29.6298 52.9 29.8098 53.08C29.9498 53.22 30.1498 53.25 30.3098 53.18C30.3598 53.16 30.4198 53.12 30.4598 53.08C30.6398 52.9 30.6398 52.61 30.4598 52.43C30.4198 52.39 30.3598 52.35 30.3098 52.33C30.1398 52.26 29.9398 52.29 29.8098 52.43Z" fill="#A5BBCA"/>
<path d="M30.1604 52.43C29.9804 52.61 29.9804 52.9 30.1604 53.08C30.2004 53.12 30.2604 53.16 30.3104 53.18C30.3604 53.16 30.4204 53.12 30.4604 53.08C30.6404 52.9 30.6404 52.61 30.4604 52.43C30.4204 52.39 30.3604 52.35 30.3104 52.33C30.2604 52.35 30.2004 52.39 30.1604 52.43Z" fill="#B4D0D6"/>
<path d="M25.5804 57.97C25.7404 58.13 25.9704 58.17 26.1804 58.09C26.2504 58.06 26.3104 58.02 26.3604 57.97C26.5704 57.76 26.5704 57.41 26.3604 57.2C26.3104 57.15 26.2504 57.11 26.1804 57.08C25.9804 57 25.7404 57.04 25.5804 57.2C25.3704 57.41 25.3704 57.76 25.5804 57.97Z" fill="#844013"/>
<path d="M25.6399 57.25C25.4599 57.43 25.4599 57.72 25.6399 57.9C25.7799 58.04 25.9799 58.07 26.1399 58C26.1899 57.98 26.2499 57.94 26.2899 57.9C26.4699 57.72 26.4699 57.43 26.2899 57.25C26.2499 57.21 26.1899 57.17 26.1399 57.15C25.9699 57.08 25.7699 57.11 25.6399 57.25Z" fill="#A5BBCA"/>
<path d="M25.9905 57.25C25.8105 57.43 25.8105 57.72 25.9905 57.9C26.0305 57.94 26.0905 57.98 26.1405 58C26.1905 57.98 26.2505 57.94 26.2905 57.9C26.4705 57.72 26.4705 57.43 26.2905 57.25C26.2505 57.21 26.1905 57.17 26.1405 57.15C26.0905 57.17 26.0305 57.21 25.9905 57.25Z" fill="#B4D0D6"/>
<path d="M21.5901 63.52C21.7501 63.68 21.9801 63.72 22.1901 63.64C22.2601 63.61 22.3201 63.57 22.3701 63.52C22.5801 63.31 22.5801 62.96 22.3701 62.75C22.3201 62.7 22.2601 62.66 22.1901 62.63C21.9901 62.55 21.7501 62.59 21.5901 62.75C21.3801 62.96 21.3801 63.31 21.5901 63.52Z" fill="#844013"/>
<path d="M21.6496 62.8C21.4696 62.98 21.4696 63.27 21.6496 63.45C21.7896 63.59 21.9896 63.62 22.1496 63.55C22.1996 63.53 22.2596 63.49 22.2996 63.45C22.4796 63.27 22.4796 62.98 22.2996 62.8C22.2596 62.76 22.1996 62.72 22.1496 62.7C21.9796 62.63 21.7796 62.66 21.6496 62.8Z" fill="#A5BBCA"/>
<path d="M22.0002 62.8C21.8202 62.98 21.8202 63.27 22.0002 63.45C22.0402 63.49 22.1002 63.53 22.1502 63.55C22.2002 63.53 22.2602 63.49 22.3002 63.45C22.4802 63.27 22.4802 62.98 22.3002 62.8C22.2602 62.76 22.2002 62.72 22.1502 62.7C22.1002 62.72 22.0402 62.76 22.0002 62.8Z" fill="#B4D0D6"/>
</g>
</g>
<defs>
<filter id="filter0_d_371_673" x="13.165" y="18" width="60.6855" height="58.9975" filterUnits="userSpaceOnUse" color-interpolation-filters="sRGB">
<feFlood flood-opacity="0" result="BackgroundImageFix"/>
<feColorMatrix in="SourceAlpha" type="matrix" values="0 0 0 0 0 0 0 0 0 0 0 0 0 0 0 0 0 0 127 0" result="hardAlpha"/>
<feOffset dy="4"/>
<feGaussianBlur stdDeviation="2"/>
<feComposite in2="hardAlpha" operator="out"/>
<feColorMatrix type="matrix" values="0 0 0 0 0 0 0 0 0 0 0 0 0 0 0 0 0 0 0.25 0"/>
<feBlend mode="normal" in2="BackgroundImageFix" result="effect1_dropShadow_371_673"/>
<feBlend mode="normal" in="SourceGraphic" in2="effect1_dropShadow_371_673" result="shape"/>
</filter>
<linearGradient id="paint0_linear_371_673" x1="53.37" y1="-15.49" x2="36.9" y2="82.98" gradientUnits="userSpaceOnUse">
<stop offset="0.06" stop-color="#3C8082"/>
<stop offset="0.99" stop-color="#B57447"/>
</linearGradient>
<clipPath id="clip0_371_673">
<rect width="87" height="87" rx="7" fill="white"/>
</clipPath>
</defs>
</svg>
