<svg width="87" height="87" viewBox="0 0 87 87" fill="none" xmlns="http://www.w3.org/2000/svg">
<g clip-path="url(#clip0_371_780)">
<path d="M87 0H0V87H87V0Z" fill="url(#paint0_linear_371_780)"/>
<g filter="url(#filter0_d_371_780)">
<path d="M55.9194 47.55L55.8095 52.28L52.9895 51.95L54.9295 55.14L51.4995 61.38L48.3095 61L49.6195 63.91L44.9695 68.76L41.7995 68.09L42.5395 70.51L36.9295 72.46L28.6195 70.5L22.9595 66.23L18.9395 58.99L18.9795 53.8L21.6295 53.82L19.9395 50.69L22.9095 44.93L26.1995 45.38L24.8695 42.3L29.4695 37.31L33.3095 37.72L32.2595 35.3L37.2395 33.56L41.7495 33.86L53.9795 42.56L55.9194 47.55Z" fill="#7A944C"/>
<path d="M33.9396 72.38L33.7596 72.59C33.4296 72.97 33.0396 73.26 32.6096 73.46C31.4496 74.01 30.0296 73.91 28.9296 73.09L20.5796 66.84C19.5396 66.06 19.0396 64.82 19.1696 63.61C19.2296 62.99 19.4596 62.37 19.8596 61.84L33.9396 72.38Z" fill="#3B4F1B"/>
<path d="M33.9399 72.38L33.7599 72.59C33.4299 72.97 33.0399 73.26 32.6099 73.46C24.7899 70.85 19.1699 63.61 19.1699 63.61C19.2299 62.99 19.4599 62.37 19.8599 61.84L33.9399 72.38Z" fill="#2F3F10"/>
<path d="M56.6692 16.04C53.6092 13.24 48.5492 13.79 45.3692 17.27C42.1892 20.75 42.0992 25.84 45.1592 28.64C48.2192 31.44 53.2792 30.89 56.4592 27.41C59.6392 23.93 59.7292 18.84 56.6692 16.04ZM55.5692 26.59C53.4792 28.88 50.5192 29.77 48.1392 29.05C47.3992 28.83 46.7192 28.46 46.1392 27.92C43.6692 25.66 43.8892 21.41 46.6292 18.41C49.3692 15.42 53.5892 14.82 56.0592 17.07C56.3392 17.33 56.5892 17.61 56.7992 17.92C58.4392 20.29 57.9992 23.93 55.5692 26.58V26.59Z" fill="#5A788F"/>
<path d="M57.8798 55.86L46.5698 70.19C45.9598 70.97 44.9598 71.25 44.0598 70.99C43.7998 70.91 43.5398 70.79 43.3098 70.62C43.2898 70.61 43.2798 70.6 43.2598 70.58L55.4398 55.1C56.4498 53.82 56.9298 52.2 56.7698 50.57L55.9898 42.23C55.9598 41.95 55.9598 41.67 55.9898 41.39C56.0198 41.11 56.0698 40.83 56.1498 40.56C56.2998 40.03 56.5498 39.53 56.8798 39.09L58.6998 36.66C58.9298 36.35 58.8698 35.92 58.5598 35.69L55.5998 33.47C54.9498 32.98 54.8198 32.06 55.2998 31.41L65.9498 17.18C66.0798 17.27 66.1998 17.35 66.3098 17.41C66.4898 17.5 66.6598 17.55 66.8098 17.57C66.9898 17.59 67.1398 17.57 67.2698 17.55C67.5798 17.47 67.7498 17.28 67.7498 17.28C68.3898 17.76 68.5198 18.67 68.0398 19.31L58.1798 32.48L60.5298 34.24C61.5498 35.01 61.7598 36.46 60.9998 37.48L59.2998 39.76C58.6298 40.66 58.3098 41.78 58.4198 42.9L59.2098 51.32C59.3598 52.95 58.8798 54.57 57.8698 55.85L57.8798 55.86Z" fill="#738FA4"/>
<path d="M56.6395 55.84L45.3295 70.17C44.9995 70.59 44.5495 70.87 44.0695 70.99C43.8095 70.91 43.5495 70.79 43.3195 70.62C43.2995 70.61 43.2895 70.6 43.2695 70.58L55.4495 55.1C56.4595 53.82 56.9395 52.2 56.7795 50.57L55.9995 42.23C55.9695 41.95 55.9695 41.67 55.9995 41.39C56.0295 41.11 56.0795 40.83 56.1595 40.56C56.3095 40.03 56.5595 39.53 56.8895 39.09L58.7095 36.66C58.9395 36.35 58.8795 35.92 58.5695 35.69L55.6095 33.47C54.9595 32.98 54.8295 32.06 55.3095 31.41L65.6795 17.55C65.8195 17.55 65.9395 17.55 66.0395 17.52C66.1495 17.49 66.2495 17.45 66.3195 17.4C66.4495 17.32 66.5195 17.25 66.5195 17.25C66.6395 17.34 66.7395 17.45 66.8295 17.56C67.1895 18.06 67.1995 18.76 66.8095 19.28L56.9495 32.45L59.2995 34.21C60.3195 34.98 60.5295 36.43 59.7695 37.45L58.0695 39.73C57.3995 40.63 57.0795 41.75 57.1895 42.87L57.9795 51.29C58.1295 52.92 57.6495 54.54 56.6395 55.82V55.84Z" fill="#5A788F"/>
<path d="M47.3792 36.44L44.5592 39.43L41.6692 42.71L38.6992 42.11C38.6992 42.11 43.6692 37.72 47.3792 36.44Z" fill="#59702D"/>
<path d="M49.6093 38.05C49.6093 38.05 49.0493 42.25 46.3893 47.85L46.0293 45.83L47.8993 41.94L49.5993 38.05H49.6093Z" fill="#9CB06A"/>
<path d="M28.85 60.59L26.87 57.85C26.87 57.85 23.79 62.57 22.96 66.23L24.99 66.78L28.85 60.59Z" fill="#59702D"/>
<path d="M35.4499 64.31C35.4499 64.31 31.8699 68.75 28.6299 70.5L27.6299 68.41L31.9499 63.22L35.4499 64.3V64.31Z" fill="#9CB06A"/>
<path d="M33.8601 52.86L31.7401 50.03C31.7401 50.03 27.6301 54.32 26.8701 57.86L29.4501 59.49L33.8701 52.86H33.8601Z" fill="#59702D"/>
<path d="M38.3995 55.86L41.2995 57C41.2995 57 38.5695 62.4 35.4495 64.31L33.6895 62.48L38.4095 55.86H38.3995Z" fill="#9CB06A"/>
<path d="M39.8693 44.41L38.6993 42.11C38.6993 42.11 35.0193 44.57 31.7393 50.03L34.9393 51.17L39.8693 44.42V44.41Z" fill="#59702D"/>
<path d="M46.3999 47.85L44.3599 47.52L39.3799 54.48L41.3099 56.99C41.3099 56.99 46.4899 50.77 46.4099 47.85H46.3999Z" fill="#9CB06A"/>
<path d="M50.1571 30.563L54.552 33.8531C56.025 34.9558 56.3268 37.0556 55.2241 38.5285L54.5768 39.3931L44.8345 32.0996L45.4817 31.235C46.5844 29.7621 48.6842 29.4602 50.1571 30.563Z" fill="#738FA4"/>
<path d="M46.9101 61.88C46.9101 61.88 37.9801 75.4 28.6201 70.51C46.2901 56.79 49.5001 38.67 49.6101 38.07C53.4301 41.12 53.5701 44.32 54.1201 47.58C54.3801 49.14 46.9101 61.88 46.9101 61.88Z" fill="#59702D"/>
<path d="M22.9592 66.23C22.7392 66 22.5192 65.77 22.3192 65.54C21.4992 64.61 18.4592 58.77 23.5492 50.54C28.3692 42.74 31.7392 39.83 35.3592 37.24C38.5592 34.94 43.7892 34.16 47.3892 36.44C47.3892 36.44 32.9592 41.54 22.9692 66.23H22.9592Z" fill="#A5BC72"/>
<path d="M55.5494 34.6L49.1694 29.82C48.9694 29.67 48.9194 29.38 49.0794 29.17C49.2294 28.97 49.5194 28.92 49.7294 29.08L56.1094 33.86C56.3094 34.01 56.3594 34.3 56.1994 34.51C56.0494 34.71 55.7594 34.76 55.5494 34.6Z" fill="#496278"/>
<path d="M68.9195 15.76L55.6295 33.51L50.1895 29.44L63.4795 11.69C63.9995 10.99 64.9895 10.85 65.6795 11.37L68.5995 13.56C69.2995 14.08 69.4395 15.07 68.9195 15.76Z" fill="#738FA4"/>
<path d="M39.1698 44.16L44.6098 48.23L40.3598 54.67L34.5498 50.32L39.1698 44.16Z" fill="#7A944C"/>
<path d="M32.9898 52.83L38.5898 57.03L34.4598 62.55L29.0898 58.54L32.9898 52.83Z" fill="#7A944C"/>
<path d="M27.8994 61.14L32.4194 64.52L28.6494 68.89L24.6494 65.89L27.8994 61.14Z" fill="#7A944C"/>
<path d="M42.5399 70.51C40.7799 71.57 38.9099 72.26 36.9299 72.46L34.8799 71.12L38.6599 68.52C40.5199 69.79 42.5299 70.51 42.5299 70.51H42.5399Z" fill="#7A944C"/>
<path d="M44.28 39.23L48.03 42.04L46.03 45.83L41.29 42.28L44.28 39.23Z" fill="#7A944C"/>
<path d="M55.8098 52.28L51.7598 50.11L52.9298 45.69L55.9298 47.54C56.1898 49.1 56.1398 50.68 55.8098 52.28Z" fill="#7A944C"/>
<path d="M33.8398 40.17L28.5598 45.83C28.5598 45.83 26.0398 44 24.8698 42.29L24.8398 42.23C26.3098 40.34 27.8498 38.67 29.4598 37.31L33.8398 40.17Z" fill="#6B823D"/>
<path d="M23.0694 53.65C23.0694 53.65 20.9194 52.01 19.9394 50.68L19.8994 50.6C20.6294 48.7 21.6594 46.8 22.9094 44.92L26.4794 48.19L23.0794 53.64L23.0694 53.65Z" fill="#6B823D"/>
<path d="M20.7996 60.57L18.9396 58.98C18.4496 57.2 18.6396 55.54 18.9796 53.79C18.9796 53.79 20.4896 54.77 22.2296 56.2L20.7996 60.56V60.57Z" fill="#6B823D"/>
<path d="M32.2598 35.3L35.8298 38.57L39.8598 35.92L37.2398 33.56C35.6698 33.75 33.6998 34.54 32.2598 35.3Z" fill="#6B823D"/>
<path d="M55.8094 52.28L52.9894 51.95L46.3994 47.85L51.7594 50.12L55.8094 52.28Z" fill="#6B823D"/>
<path d="M46.7698 59.03L41.2998 57L48.3098 61L51.4998 61.38L46.7698 59.03Z" fill="#6B823D"/>
<path d="M51.4995 61.38C49.5195 60.77 46.7695 59.03 46.7695 59.03L50.5295 52.67L54.9195 55.15L54.6195 55.94C53.8395 57.75 52.7695 59.56 51.4895 61.39L51.4995 61.38Z" fill="#7A944C"/>
<path d="M40.8092 66.62L35.4492 64.31L41.7992 68.09L44.9692 68.76L40.8092 66.62Z" fill="#6B823D"/>
<path d="M49.6196 63.91C48.1396 65.76 46.5996 67.41 44.9796 68.76C43.4296 68.24 40.8096 66.62 40.8096 66.62L45.3796 61.48L49.6196 63.9V63.91Z" fill="#7A944C"/>
<path d="M27.9001 61.14L26.8701 57.86L35.4501 64.31L32.4201 64.52L27.9001 61.14Z" fill="#96AB61"/>
<path d="M32.9893 52.83L31.7393 50.03L41.2993 57L38.5893 57.03L32.9893 52.83Z" fill="#96AB61"/>
<path d="M39.1692 44.16L38.6992 42.11L46.3992 47.85L44.6092 48.23L39.1692 44.16Z" fill="#96AB61"/>
<path d="M33.3098 37.72L38.6998 42.11L35.8298 38.57L32.2598 35.3L33.3098 37.72Z" fill="#59702D"/>
<path d="M28.5595 45.83L31.7395 50.03L26.1995 45.38C26.1995 45.38 24.7895 42.18 24.8695 42.3C24.9495 42.42 28.5595 45.84 28.5595 45.84V45.83Z" fill="#59702D"/>
<path d="M23.0695 53.65L26.8695 57.86L21.6295 53.82L19.9395 50.69L23.0695 53.65Z" fill="#59702D"/>
<path d="M22.9592 66.23C20.6992 63.99 19.3592 61.45 18.9492 58.98L20.8092 60.57L22.9592 66.23Z" fill="#59702D"/>
<path d="M36.9301 72.46C34.3701 72.71 31.6101 72.15 28.6201 70.51L34.8801 71.12L36.9301 72.46Z" fill="#6B823D"/>
<path d="M22.2295 56.21L26.8695 57.86L21.6295 53.82L18.9795 53.8L22.2295 56.21Z" fill="#96AB61"/>
<path d="M35.4492 64.31L38.6692 68.52C38.6692 68.52 40.7192 69.96 42.5392 70.51L41.7992 68.09L35.4492 64.31Z" fill="#96AB61"/>
<path d="M26.4692 48.2L31.7392 50.03L26.1992 45.38L22.9092 44.93L26.4692 48.2Z" fill="#96AB61"/>
<path d="M41.2998 57L45.3698 61.48L49.6198 63.91L48.3098 61L41.2998 57Z" fill="#96AB61"/>
<path d="M46.3994 47.85L50.5294 52.67L54.9294 55.14L52.9894 51.95L46.3994 47.85Z" fill="#96AB61"/>
<path d="M33.8397 40.17L38.6997 42.11L33.3097 37.72L29.4697 37.31L33.8397 40.17Z" fill="#96AB61"/>
<path d="M37.2393 33.56C37.2393 33.56 42.5093 32.79 47.3793 36.44C47.3793 36.44 43.7893 35.65 39.8593 35.91L37.2393 33.55V33.56Z" fill="#96AB61"/>
<path d="M49.6094 38.05C49.6094 38.05 52.1794 42.61 52.9194 45.7L55.9194 47.55C55.9194 47.55 54.8394 41.14 49.6094 38.05Z" fill="#96AB61"/>
<path d="M31.7393 50.03L34.5493 50.32L40.3593 54.67L41.2993 57L31.7393 50.03Z" fill="#6B823D"/>
<path d="M26.8701 57.86L29.0901 58.54L34.4601 62.55L35.4501 64.31L26.8701 57.86Z" fill="#6B823D"/>
<path d="M38.6992 42.11L41.2892 42.28L46.0292 45.83L46.3992 47.85L38.6992 42.11Z" fill="#6B823D"/>
<path d="M44.2793 39.23C44.2793 39.23 46.4193 37.31 47.3793 36.45L49.6093 38.06C49.6093 38.06 48.4693 40.83 48.0293 42.05L44.2793 39.24V39.23Z" fill="#96AB61"/>
<path d="M28.6192 70.5C27.6492 69.97 26.6592 69.33 25.6392 68.56C24.6192 67.79 23.7292 67.02 22.9492 66.23L24.6392 65.89L28.6392 68.89L28.6092 70.51L28.6192 70.5Z" fill="#6F8242"/>
<path d="M55.1798 40.95L53.9798 42.56L53.9598 42.54C53.6298 42.49 50.8298 42.02 46.9498 39.11C42.7698 35.98 41.7598 33.86 41.7598 33.86L43.1798 31.96C43.2998 31.81 43.4298 31.67 43.5698 31.56C44.1298 31.12 44.8598 30.98 45.5398 31.17C45.7898 31.24 46.0198 31.36 46.2398 31.52L54.7498 37.89C55.7198 38.61 55.9098 39.98 55.1898 40.95H55.1798Z" fill="#3B4F1B"/>
<path d="M53.9895 42.55H53.9695C53.6395 42.5 50.8395 42.03 46.9595 39.12C42.7795 35.99 41.7695 33.87 41.7695 33.87L43.1895 31.97C43.3095 31.82 43.4395 31.68 43.5795 31.57C43.5795 31.57 43.4295 36.57 53.9995 42.56L53.9895 42.55Z" fill="#2F3F10"/>
<path d="M55.1793 40.95L53.9793 42.56C53.9793 42.56 54.1093 40.18 52.0693 37.52C50.0293 34.85 45.5293 31.18 45.5293 31.18C45.7793 31.25 46.0093 31.37 46.2293 31.53L54.7393 37.9C55.7093 38.62 55.8993 39.99 55.1793 40.96V40.95Z" fill="#4F6628"/>
<path d="M68.9195 15.76L55.6295 33.51L50.1895 29.44C56.8995 31.04 68.5995 13.56 68.5995 13.56C69.2995 14.08 69.4395 15.07 68.9195 15.76Z" fill="#81A1B5"/>
<path d="M67.1492 12.46C67.1492 12.46 65.3592 11.38 63.2392 13.91C61.1192 16.44 50.1992 29.44 50.1992 29.44L63.4892 11.69C64.0092 10.99 64.9992 10.85 65.6892 11.37L67.1492 12.46Z" fill="#648396"/>
<path d="M58.626 26.8701L60.7394 28.4522L58.5639 31.3581L56.4505 29.776C55.8421 29.3205 55.7194 28.4666 56.1749 27.8582L56.7083 27.1457C57.1637 26.5373 58.0176 26.4146 58.626 26.8701Z" fill="#496278"/>
<path d="M58.0494 30.24L57.1994 29.31C56.8094 28.88 56.8394 28.22 57.2694 27.84C57.6994 27.45 58.3594 27.48 58.7394 27.91L59.5894 28.84L58.0494 30.24Z" fill="#2F4B61"/>
<path d="M63.4869 32.3846L58.2314 28.1967L57.7827 28.7598L63.0382 32.9477L63.4869 32.3846Z" fill="#648396"/>
<path d="M57.9195 28.86L51.7695 26.14L52.0595 25.48L58.2295 28.19L57.9195 28.86Z" fill="#648396"/>
<path d="M48.1401 29.05C48.1401 29.05 45.6701 28.51 44.2001 26.1C42.7301 23.69 44.1501 16.82 49.7001 15.62C55.1601 14.44 56.7501 17.82 56.8001 17.93C56.5901 17.62 56.3401 17.34 56.0601 17.08C53.5901 14.82 49.3701 15.42 46.6301 18.42C43.8901 21.41 43.6701 25.67 46.1401 27.93C46.7201 28.46 47.4001 28.84 48.1401 29.06V29.05Z" fill="#738FA4"/>
</g>
</g>
<defs>
<filter id="filter0_d_371_780" x="14.6426" y="11.0563" width="58.5908" height="70.7476" filterUnits="userSpaceOnUse" color-interpolation-filters="sRGB">
<feFlood flood-opacity="0" result="BackgroundImageFix"/>
<feColorMatrix in="SourceAlpha" type="matrix" values="0 0 0 0 0 0 0 0 0 0 0 0 0 0 0 0 0 0 127 0" result="hardAlpha"/>
<feOffset dy="4"/>
<feGaussianBlur stdDeviation="2"/>
<feComposite in2="hardAlpha" operator="out"/>
<feColorMatrix type="matrix" values="0 0 0 0 0 0 0 0 0 0 0 0 0 0 0 0 0 0 0.25 0"/>
<feBlend mode="normal" in2="BackgroundImageFix" result="effect1_dropShadow_371_780"/>
<feBlend mode="normal" in="SourceGraphic" in2="effect1_dropShadow_371_780" result="shape"/>
</filter>
<linearGradient id="paint0_linear_371_780" x1="53.37" y1="-15.49" x2="36.9" y2="82.98" gradientUnits="userSpaceOnUse">
<stop offset="0.06" stop-color="#96EBFF"/>
<stop offset="0.99" stop-color="#A5BC72"/>
</linearGradient>
<clipPath id="clip0_371_780">
<rect width="87" height="87" rx="7" fill="white"/>
</clipPath>
</defs>
</svg>
