<svg width="87" height="87" viewBox="0 0 87 87" fill="none" xmlns="http://www.w3.org/2000/svg">
<g clip-path="url(#clip0_262_2)">
<path d="M87 0H0V87H87V0Z" fill="url(#paint0_radial_262_2)"/>
<g filter="url(#filter0_d_262_2)">
<path d="M65.5309 12.54C66.6209 13.4 68.0009 13.76 69.3009 14.22C70.6009 14.68 71.9509 15.31 72.7009 16.47C71.9909 14.34 71.0109 12.18 69.2309 10.82C67.7609 9.69999 65.7209 9.08999 64.9609 7.39999C63.9009 9.20999 63.7109 11.09 65.5309 12.53V12.54Z" fill="#FF8E0F"/>
<path d="M71.3001 47.75C71.0701 48.45 70.5401 49 70.0601 49.56C68.6101 51.24 67.3901 53.47 67.9801 55.61C68.0701 54.69 68.7801 53.93 69.5701 53.46C70.3601 52.99 71.2701 52.73 72.1001 52.32C72.9301 51.91 73.7301 51.29 74.0201 50.42C74.4001 49.29 73.8401 48.06 73.1401 47.09C72.4501 46.13 71.6501 45.26 71.2301 44.14C71.1001 45.36 71.7001 46.56 71.2901 47.76L71.3001 47.75Z" fill="#FFC51A"/>
<path d="M7.25042 53.33C8.08042 54.41 9.34042 55.05 10.4804 55.79C11.6204 56.53 12.7504 57.51 13.0204 58.85C13.3804 57.2 13.7204 55.4 12.9904 53.88C12.7104 53.3 12.3004 52.81 11.8904 52.31C11.0204 51.26 10.1704 50.19 9.42042 49.06C8.88042 48.24 8.45042 47.4 8.39042 46.41C6.53042 48.25 5.43042 50.97 7.25042 53.34V53.33Z" fill="#FF8E0F"/>
<path d="M79.66 25.83C79.02 26.42 78.2 26.89 77.32 26.88C76.91 26.88 76.51 26.78 76.1 26.77C74.27 26.71 72.79 28.96 73.58 30.63C73.99 31.5 74.88 32.22 74.82 33.19C74.72 34.66 72.59 35.09 71.98 36.43C71.61 37.24 71.95 38.29 72.71 38.73C73.48 39.18 74.18 39.13 74.69 38.41C74.96 39.6 73.62 40.63 72.41 40.57C71.19 40.51 70.15 39.74 69.16 39.04C68.43 38.52 67.61 38 66.74 37.83C66.44 37.76 66.14 37.74 65.83 37.77C64.35 37.92 63.21 39.35 63.08 40.84C62.96 42.32 63.67 43.78 64.69 44.87C65.56 45.8 66.69 46.58 67.12 47.79C67.28 48.25 67.32 48.71 67.29 49.17C67.11 51.53 64.89 53.97 65.68 56.31C66.13 57.66 67.47 58.49 68.8 59C69.82 59.4 70.99 59.66 72 59.23C72.9 58.86 73.51 57.74 73.19 56.87C74.45 59.44 74.21 62.7 72.56 65.06C71.67 66.32 70.39 67.29 68.95 67.87H68.93C67.6 68.4 66.13 68.59 64.71 68.36C63.18 68.11 61.69 67.41 60.14 67.52C58.61 67.62 57.16 68.57 56.45 69.93C55.74 71.29 55.3 73.17 56.5 74.14C56.98 74.53 57.49 74.92 58.02 75.24C58.73 75.67 59.49 75.97 60.31 75.98C61.75 76 63.26 74.65 62.84 73.27C63.62 75.47 62.19 78.17 59.94 78.77C56.92 79.56 53.87 76.94 50.79 77.44C49.46 77.65 48.27 78.45 47.02 78.95C46.47 79.17 45.9 79.34 45.3 79.38C42.52 79.54 40.06 76.86 37.33 77.37C35.43 77.72 34.12 79.51 32.29 80.12C30.5 80.72 28.48 80.06 26.96 78.94C26.33 78.47 25.75 77.91 25.49 77.17C24.87 75.43 26.26 73.48 25.32 71.89C24.69 70.83 23.27 70.56 22.06 70.71C20.84 70.86 19.67 71.33 18.44 71.34C18.03 71.34 17.62 71.29 17.23 71.19C15.45 70.74 13.91 69.31 13.21 67.57C12.35 65.46 12.59 63.01 13.44 60.9C13.32 63.06 15.97 64.57 18.06 64C20.14 63.44 21.58 61.51 22.46 59.53C22.62 59.15 22.78 58.76 22.77 58.34C22.73 56.07 18.43 55.96 18.28 53.69C18.24 53.03 18.6 52.4 18.64 51.74C18.68 50.74 18.02 49.99 17.12 49.46C16.54 49.11 15.87 48.87 15.23 48.72C13.62 48.35 11.71 47.97 11.04 46.46C10.15 44.45 12.23 42.12 11.58 40.02C11.33 39.21 10.7 38.58 10.18 37.91C9.78998 37.4 9.45998 36.84 9.20998 36.26C7.43998 32.26 8.79998 26.94 12.54 24.57C11.12 25.95 10.51 28.04 10.69 30.02C10.79 31.13 11.21 32.27 12.09 32.95C12.98 33.63 14.39 33.67 15.13 32.83C15.98 31.86 15.79 30.07 16.97 29.53C17.68 29.21 18.55 29.6 19.06 30.21C19.57 30.81 19.81 31.58 20.14 32.3C20.47 33.01 20.93 33.73 21.66 34.03C22.85 34.51 24.22 33.61 24.73 32.44C25.24 31.27 25.1 30.94 25.14 29.66C25.17 28.14 23.98 26.92 23.14 25.65C21.33 22.93 21.06 19.27 22.43 16.31C22.91 15.26 23.6 14.28 23.86 13.16C24.13 12.03 23.85 10.65 22.82 10.11C24.44 10.58 26.3 11.43 26.56 13.09C26.66 13.78 26.46 14.48 26.27 15.15C25.9 16.5 25.61 17.95 26.03 19.28C26.65 21.23 28.93 22.5 30.91 21.96C32.89 21.42 34.22 19.14 33.69 17.16C33.46 16.3 32.93 15.53 32.74 14.66C32.32 12.8 33.47 10.98 34.66 9.49001C34.18 11.84 35.48 14.43 37.65 15.46C36.82 12.89 37.61 9.98001 39.2 7.80001C40.8 5.61001 43.1 4.05001 45.5 2.79001C43.88 5.13001 44.16 8.60001 46.14 10.64C46.56 11.07 47.09 11.54 47.06 12.14C48.68 10.81 49.18 8.01001 48.05 6.25001C49.55 6.72001 50.77 8.01001 51.16 9.54001C51.76 11.97 50.37 14.73 51.49 16.96C52.48 18.92 54.91 19.56 57.07 19.88C55.88 17.57 56.63 14.45 58.74 12.93C58.12 14.73 59.15 16.82 60.77 17.82C62.39 18.83 64.44 18.93 66.31 18.58C67.73 18.32 69.12 17.81 70.57 17.79C72.02 17.77 73.75 18.34 74.26 19.69C74.6 20.57 75.82 20.67 76.72 20.39C77.64 20.09 78.52 19.5 78.94 18.62C79.35 17.74 79.17 16.55 78.37 15.99C80.08 16.9 81.31 18.66 81.56 20.58C81.82 22.49 81.08 24.52 79.66 25.83Z" fill="#FF8E0F"/>
<path d="M29.7205 40.39C29.1405 37.97 30.4505 35.55 31.7005 33.4C32.9505 31.25 34.2605 28.82 33.6605 26.41C33.6305 26.29 33.6005 26.16 33.6605 26.06C33.7205 25.96 33.5005 25.88 33.5305 26C35.0205 27.18 36.4805 28.47 37.3905 30.14C38.3005 31.81 38.5505 33.94 37.6105 35.59C38.8505 34.52 40.1405 33.38 40.7205 31.84C41.9305 28.62 39.6105 25.2 39.4505 21.77C39.2905 18.32 41.3005 15.18 43.2405 12.31C43.6005 18.55 48.5605 23.85 54.4605 25.93C56.4905 26.65 58.7405 25.64 60.4105 24.29C61.0005 23.82 61.5705 23.27 61.8305 22.56C62.0905 21.85 61.9405 20.94 61.3205 20.52C62.3305 20.77 63.3105 21.12 64.2505 21.56C65.7805 22.28 67.3705 23.26 67.4005 24.95C67.8605 24 68.8905 23.43 69.9305 23.26C70.9705 23.09 72.0305 23.25 73.0805 23.41C71.3005 24.09 69.7105 25.44 69.0305 27.23C68.1605 29.51 68.7405 32.42 67.0305 34.16C65.6705 35.54 63.4405 35.52 61.5305 35.18C59.6205 34.84 57.6905 34.37 55.7705 34.68C53.4905 35.05 51.5205 36.87 50.9705 39.11C50.4205 41.35 51.3105 43.88 53.1505 45.27C54.6905 46.43 56.6705 46.77 58.4805 47.44C60.2905 48.11 62.1305 49.39 62.4005 51.3C62.6205 52.87 61.7005 54.37 61.5905 55.95C61.4705 57.6 62.3305 59.29 63.7605 60.12C65.1905 60.95 67.1305 60.83 68.4105 59.79C67.9505 61.77 66.5705 63.51 64.7505 64.41C62.9305 65.31 60.7405 64.69 58.7105 64.69C56.4705 64.69 53.9705 66.12 53.8605 68.35C53.7805 70.09 55.1605 71.77 54.6805 73.45C52.9305 74.11 50.9305 74.75 49.2505 73.93C47.6005 73.12 46.7405 71.1 45.0105 70.48C43.2605 69.86 41.3205 70.97 40.2005 72.44C39.4405 73.45 38.9005 74.64 37.9505 75.47C36.0305 77.15 32.6205 76.6 31.3305 74.4C30.2905 72.63 30.4105 70.06 28.6505 69.01C27.1605 68.12 25.3005 68.92 23.6105 69.32C22.0305 69.69 20.3705 69.67 18.8005 69.27C20.4505 69.47 22.1705 68.65 23.0605 67.25C23.8305 66.04 24.0105 64.44 25.0705 63.47C25.5505 63.03 26.1605 62.76 26.6705 62.34C28.3705 60.96 28.4405 58.34 27.7705 56.25C27.3805 55.03 26.7605 53.86 25.7905 53.03C24.9905 52.35 23.9905 51.94 23.0205 51.51C21.1005 50.65 19.0305 49.34 18.7305 47.26C18.4905 45.57 19.5405 43.93 19.4805 42.23C19.4005 39.9 17.3805 38.17 15.5205 36.76C15.7105 36.98 15.8305 36.87 16.1205 36.83C20.0605 36.33 24.1505 37.14 27.5905 39.12C28.2605 39.5 29.0005 40.12 29.7205 40.41V40.39Z" fill="#FFC51A"/>
<path d="M42.9403 68.62C49.9322 68.62 55.6003 62.9519 55.6003 55.96C55.6003 48.9681 49.9322 43.3 42.9403 43.3C35.9483 43.3 30.2803 48.9681 30.2803 55.96C30.2803 62.9519 35.9483 68.62 42.9403 68.62Z" fill="#FFD751"/>
<path d="M18.7001 25.5C19.7801 26.81 21.3101 27.7 22.3301 29.06C22.9501 26.54 23.5801 23.96 23.3601 21.37C23.3101 20.81 23.2201 20.24 22.9501 19.74C22.6901 19.27 22.2901 18.89 21.9001 18.52C20.7501 17.44 19.6301 16.25 18.4001 15.27C17.5401 18.61 16.2001 22.48 18.7001 25.49V25.5Z" fill="#FFC51A"/>
<path d="M14.6605 13.29C14.9805 13.86 15.5205 14.31 15.7605 14.92C15.6505 14.33 15.9605 13.75 16.3005 13.26C16.6405 12.77 17.0305 12.27 17.1105 11.68C17.1805 11.18 17.0205 10.69 16.9605 10.19C16.8805 9.51002 17.0205 8.87002 17.2605 8.24002C15.5505 9.24002 13.4205 11.07 14.6605 13.29Z" fill="#FF8E0F"/>
<path d="M17.12 49.46C16.54 49.11 15.87 48.87 15.23 48.72C13.62 48.35 11.71 47.97 11.04 46.46C10.15 44.45 12.23 42.12 11.58 40.02C11.33 39.21 10.7 38.58 10.18 37.91C9.78996 37.4 9.45996 36.84 9.20996 36.26C10.36 36.73 11.54 37.13 12.52 37.87C13.67 38.74 14.34 40.21 14.23 41.65C14.17 42.56 13.82 43.44 13.9 44.35C14.06 46.35 16.17 47.77 17.12 49.46Z" fill="#E27100"/>
<path d="M67.2903 49.17C66.9803 48.31 66.5503 47.5 65.8303 46.96C65.0203 46.35 63.9803 46.18 63.0503 45.79C61.7203 45.24 60.5803 44.18 60.1103 42.82C59.6303 41.47 59.9003 39.83 60.9203 38.82C61.4703 38.27 62.2003 37.93 62.9503 37.7C64.1903 37.32 65.5903 37.27 66.7403 37.83C66.4403 37.76 66.1403 37.74 65.8303 37.77C64.3503 37.92 63.2103 39.35 63.0803 40.84C62.9603 42.32 63.6703 43.78 64.6903 44.87C65.5603 45.8 66.6903 46.58 67.1203 47.79C67.2803 48.25 67.3203 48.71 67.2903 49.17Z" fill="#E27100"/>
<path d="M47.0205 78.95C46.4705 79.17 45.9005 79.34 45.3005 79.38C42.5205 79.54 40.0605 76.86 37.3305 77.37C35.4305 77.72 34.1205 79.51 32.2905 80.12C30.5005 80.72 28.4805 80.06 26.9605 78.94C26.3305 78.47 25.7505 77.91 25.4905 77.17C24.8705 75.43 26.2605 73.48 25.3205 71.89C24.6905 70.83 23.2705 70.56 22.0605 70.71C20.8405 70.86 19.6705 71.33 18.4405 71.34C18.0305 71.34 17.6205 71.29 17.2305 71.19C17.9905 71.07 18.7505 70.87 19.4805 70.65C21.1805 70.13 22.9105 69.5 24.6905 69.58C26.4705 69.65 28.3605 70.65 28.8405 72.36C29.2905 73.99 28.4505 75.99 29.5305 77.29C30.0405 77.91 30.8605 78.17 31.6605 78.24C32.8505 78.35 34.0805 78.08 35.1305 77.47C35.7105 77.13 36.2405 76.69 36.8705 76.45C38.1805 75.95 39.6605 76.4 40.9005 77.05C42.1505 77.69 43.3105 78.53 44.6705 78.88C45.4305 79.07 46.2405 79.1 47.0205 78.95Z" fill="#E27100"/>
<path d="M68.1007 67.89C68.3807 67.91 68.6507 67.9 68.9307 67.87C67.6007 68.4 66.1307 68.59 64.7107 68.36C63.1807 68.11 61.6907 67.41 60.1407 67.52C58.6107 67.62 57.1607 68.57 56.4507 69.93C55.7407 71.29 55.3007 73.17 56.5007 74.14C56.9807 74.53 57.4907 74.92 58.0207 75.24C56.8507 74.84 55.7707 74.2 55.2307 73.12C54.9207 72.5 54.8208 71.79 54.8308 71.09C54.8308 69.91 55.1608 68.72 55.7408 67.69C55.9608 67.3 56.2207 66.92 56.5707 66.64C57.1007 66.22 57.7807 66.05 58.4407 65.97C60.7207 65.67 63.0207 66.3 65.1807 67.09C66.1307 67.44 67.0907 67.82 68.1007 67.89Z" fill="#E27100"/>
<path d="M71.4505 66.9L71.3505 67.01C71.3105 66.95 71.3805 66.9 71.4505 66.9Z" fill="#E27100"/>
<path d="M32.3604 53.55C32.8904 52.57 33.8704 51.87 34.9104 51.33C39.7804 48.81 46.2103 49.5 50.7603 52.48C51.9403 53.25 53.0804 54.28 53.2704 55.6C53.7804 53.37 53.0204 51 51.5404 49.17C50.0604 47.34 47.9204 46.03 45.6203 45.15C45.2604 45.01 44.8904 44.88 44.5004 44.86C41.6704 44.65 38.6803 45.36 36.5103 47.01C35.4103 47.84 34.4803 48.85 33.7603 49.98C33.0403 51.11 32.9503 52.4 32.3703 53.55H32.3604Z" fill="#FFE49F"/>
</g>
</g>
<defs>
<filter id="filter0_d_262_2" x="2.31934" y="2.79001" width="83.292" height="85.5565" filterUnits="userSpaceOnUse" color-interpolation-filters="sRGB">
<feFlood flood-opacity="0" result="BackgroundImageFix"/>
<feColorMatrix in="SourceAlpha" type="matrix" values="0 0 0 0 0 0 0 0 0 0 0 0 0 0 0 0 0 0 127 0" result="hardAlpha"/>
<feOffset dy="4"/>
<feGaussianBlur stdDeviation="2"/>
<feComposite in2="hardAlpha" operator="out"/>
<feColorMatrix type="matrix" values="0 0 0 0 0 0 0 0 0 0 0 0 0 0 0 0 0 0 0.25 0"/>
<feBlend mode="normal" in2="BackgroundImageFix" result="effect1_dropShadow_262_2"/>
<feBlend mode="normal" in="SourceGraphic" in2="effect1_dropShadow_262_2" result="shape"/>
</filter>
<radialGradient id="paint0_radial_262_2" cx="0" cy="0" r="1" gradientUnits="userSpaceOnUse" gradientTransform="translate(43.5 43.5) scale(53.01)">
<stop offset="0.32" stop-color="#FFC51A"/>
<stop offset="0.63" stop-color="#E1554F"/>
<stop offset="1" stop-color="#951F2A"/>
</radialGradient>
<clipPath id="clip0_262_2">
<rect width="87" height="87" rx="7" fill="white"/>
</clipPath>
</defs>
</svg>
