<svg width="81" height="81" viewBox="0 0 81 81" fill="none" xmlns="http://www.w3.org/2000/svg">
<g filter="url(#filter0_d_318_2711)">
<path d="M16.3624 68.4672L8.53809 60.6422C14.3905 58.1203 19.9671 51.9431 23.0834 47.5106C23.704 46.6401 24.2166 45.8386 24.6229 45.1452L26.1121 45.2067L31.5768 45.4267L31.8266 51.6486L31.8583 52.3811C31.3084 52.7055 30.6822 53.095 30.0112 53.5517C25.5548 56.5806 18.983 62.3776 16.3606 68.4672H16.3624Z" fill="#6B3F00"/>
<path d="M16.362 68.4672L15.0723 67.1774C20.2295 58.0271 29.5859 52.0363 31.6268 51.4473L31.8262 51.6486L31.8579 52.3812C31.3081 52.7055 30.6818 53.0951 30.0108 53.5517C25.5544 56.5807 18.9826 62.3776 16.3602 68.4672H16.362Z" fill="#643A00"/>
<path d="M10.2975 62.4018L8.53809 60.6422C15.5349 57.6263 22.1459 49.3764 24.6229 45.1452L26.1121 45.2067L26.4308 45.5255C24.8857 49.587 18.1815 58.0569 10.2957 62.4L10.2975 62.4018Z" fill="#643A00"/>
<path d="M31.9406 45.0632C31.5454 45.1955 31.0832 45.3074 30.5632 45.4006C27.7898 45.9318 23.49 45.7883 20.1929 42.489C16.2807 38.5766 17.796 32.267 22.3344 30.9585C22.9159 30.7889 23.449 30.7088 23.9373 30.6827L23.9429 30.6883C27.1356 30.5391 28.4869 33.0425 28.4869 33.0425C28.4869 33.0425 24.1125 31.1207 23.5366 35.2904C23.024 38.9587 29.2697 40.7108 34.5406 38.996C39.804 37.2755 31.9424 45.0613 31.9424 45.0613L31.9406 45.0632Z" fill="#A02289"/>
<path d="M31.8598 52.3811C31.3099 52.7055 30.6837 53.095 30.0127 53.5517C30.0314 53.4697 30.05 53.3895 30.0873 53.3131C30.7135 51.9729 28.8609 49.2814 27.3083 49.6075C26.7193 48.2431 24.6859 47.2217 23.083 47.5106C23.7037 46.6401 24.2162 45.8386 24.6225 45.1452L26.1117 45.2067L31.5765 45.4267L31.8579 52.3811H31.8598Z" fill="#4E2D00"/>
<path d="M31.9415 45.0596C31.1196 47.5779 30.5977 52.8976 34.5099 56.8101C38.422 60.7226 44.733 59.209 46.0358 54.6721C47.2901 50.3086 43.9483 48.5173 43.9483 48.5173C43.9483 48.5173 45.8755 52.8958 41.7061 53.4717C38.0381 53.9787 36.2824 47.7344 38.0027 42.465C39.7249 37.1974 31.9397 45.0596 31.9397 45.0596H31.9415Z" fill="#A02289"/>
<path d="M31.6012 46.4389C31.07 49.2125 31.2135 53.5127 34.5125 56.8101C38.4246 60.7225 44.7337 59.2071 46.0421 54.6684C46.2117 54.0868 46.2918 53.5537 46.3179 53.0654L46.3124 53.0598C44.2547 57.7476 39.3845 59.0245 35.8414 55.4811C32.2982 51.9377 32.9301 45.41 32.9301 45.41L31.603 46.4371L31.6012 46.4389Z" fill="#96177F"/>
<path d="M44.7405 49.8667C45.3462 50.7464 46.2036 52.6999 44.0956 54.7763C41.9578 56.8808 38.7949 56.2041 36.9571 54.3663C35.3524 52.7614 34.0626 48.8881 35.4698 48.7725C37.0857 48.6383 36.2619 51.1099 38.6588 53.5088C40.299 55.1473 42.6679 54.6794 44.0751 53.2721C45.8774 51.4697 44.7405 49.8685 44.7405 49.8685V49.8667Z" fill="#AA2D93"/>
<path d="M30.5642 45.4006C27.7908 45.9318 23.4909 45.7883 20.1938 42.4891C16.2817 38.5766 17.797 32.2671 22.3354 30.9586C22.9169 30.789 23.4499 30.7088 23.9383 30.6827L23.9439 30.6883C19.2563 32.7461 17.9796 37.6167 21.5227 41.1601C25.0659 44.7035 31.593 44.0716 31.593 44.0716L30.566 45.3987L30.5642 45.4006Z" fill="#96177F"/>
<path d="M27.3125 49.6113C27.3255 49.6244 27.3386 49.6374 27.3535 49.6486C27.3647 49.6635 27.3777 49.6766 27.3908 49.6896L27.3125 49.6113Z" fill="#BBF5F9"/>
<path d="M76.9999 0C76.9272 0.415665 75.1155 10.6451 73.2648 12.524C72.3794 13.4206 67.5689 17.5064 62.4956 21.8271C59.3215 24.5298 56.0449 27.3239 53.5641 29.4898C51.5885 31.2103 50.116 32.5318 49.5998 33.091C47.393 35.475 44.7855 39.5571 44.7855 43.7157C42.4893 43.7157 39.4438 42.4948 32.5327 49.4063C31.6213 50.316 28.3 50.4912 27.3531 49.6487C26.5088 48.7018 26.684 45.3802 27.5954 44.4687C34.5065 37.5571 33.2857 34.5114 33.2857 32.215C37.4439 32.215 41.5257 29.6073 43.9095 27.4003C45.0054 26.3845 49.0481 21.6873 53.2771 16.7273C56.5761 12.8595 59.9887 8.83521 62.2048 6.27598C63.3194 4.98798 64.132 4.07277 64.475 3.73353C66.3574 1.87888 76.6159 0.0652389 76.9999 0Z" fill="#BBF5F9"/>
<path d="M16.6937 71.103L16.593 71.2018L5.7959 60.4038L5.89468 60.3032C6.02515 60.1727 6.17053 60.0646 6.32709 59.9956C6.93283 59.6899 7.69141 59.7943 8.19837 60.3013L16.6974 68.801C17.1988 69.3024 17.305 70.0592 16.9975 70.665C16.9285 70.8216 16.8223 70.967 16.69 71.0974L16.6937 71.103Z" fill="#B4B4B4"/>
<path d="M16.6937 71.103L16.593 71.2018L5.7959 60.4038L5.89468 60.3032C6.02515 60.1727 6.17053 60.0646 6.32709 59.9956L16.9975 70.6668C16.9285 70.8234 16.8223 70.9688 16.69 71.0993L16.6937 71.103Z" fill="#A0A0A0"/>
<path d="M17.2457 72.7413C16.9009 73.0862 16.3381 73.0862 15.9933 72.7413L4.25861 61.0058C3.9138 60.661 3.9138 60.098 4.25861 59.7532C4.33316 59.6787 4.42076 59.6153 4.52141 59.578C4.84757 59.427 5.24084 59.4829 5.5111 59.7532L17.2476 71.4888C17.516 71.759 17.5738 72.1523 17.4228 72.4785C17.3855 72.5792 17.3222 72.6668 17.2476 72.7413H17.2457Z" fill="#B4B4B4"/>
<path d="M27.1369 32.2598C26.2571 31.654 24.3039 30.7965 22.2276 32.9047C20.1233 35.0427 20.7999 38.2058 22.6376 40.0437C24.2424 41.6486 28.1154 42.9384 28.2309 41.5311C28.3651 39.9151 25.8937 40.7389 23.495 38.3419C21.8567 36.7035 22.3245 34.3325 23.7317 32.9252C25.534 31.1227 27.135 32.2598 27.135 32.2598H27.1369Z" fill="#AA2D93"/>
<g style="mix-blend-mode:screen" opacity="0.2">
<path d="M28.6604 52.0011C28.6716 51.9713 28.6791 51.9396 28.6828 51.9061C28.7238 51.3245 27.7061 51.6731 27.4508 51.7961C26.8078 52.1055 26.2188 52.5603 25.682 53.0319C24.5358 54.0384 23.4193 55.0767 22.3197 56.1354C20.8379 57.5632 19.3991 59.0395 18.0459 60.5903C17.6322 61.0637 14.2046 64.9389 15.0563 65.3248C15.4533 65.5056 15.8559 64.9408 16.0479 64.678C16.6108 63.9026 17.2109 63.1532 17.8428 62.4338C18.3553 61.8522 18.7393 61.1644 19.2611 60.5959C19.8296 59.9752 20.331 59.3097 20.9088 58.7077C21.563 58.0273 22.2134 57.3265 22.8658 56.6536C23.7977 55.6918 24.8918 54.8586 25.9355 54.0235C26.3996 53.6526 26.9196 53.3618 27.4117 53.03C27.7304 52.8157 28.5169 52.3702 28.6586 51.9993L28.6604 52.0011Z" fill="#6B3F00"/>
</g>
<path d="M17.4207 72.4804C17.102 72.6239 16.7013 72.5605 16.4385 72.2977L4.70197 60.5603C4.43917 60.2975 4.3758 59.8967 4.51932 59.578C4.84549 59.427 5.23875 59.4829 5.50901 59.7532L17.2455 71.4888C17.5139 71.759 17.5717 72.1523 17.4207 72.4785V72.4804Z" fill="#C8C8C8"/>
<path d="M62.4958 21.827C59.3217 24.5298 56.0451 27.3239 53.5644 29.4898L53.2773 16.7272C56.5763 12.8595 59.989 8.83517 62.2051 6.27594L62.4958 21.827Z" fill="white"/>
<path d="M29.4608 47.5386C29.4534 47.0633 29.513 46.4986 29.6249 46.1929C34.8305 40.9421 35.9115 37.4863 36.0066 34.5897C40.7612 33.6241 44.5317 30.4423 45.7134 29.3482C47.0684 28.0937 51.5024 22.91 58.1134 15.1447C61.7889 10.8278 65.5892 6.36358 66.3385 5.62359C67.0169 5.0849 70.0233 4.17528 73.6186 3.37564C72.819 6.97496 71.9002 9.989 71.3373 10.6954C70.6328 11.4075 66.1689 15.2081 61.8523 18.8839C54.0894 25.4954 48.9061 29.9297 47.6499 31.2867C46.5559 32.4685 43.3743 36.2374 42.4088 40.9924C39.5106 41.0875 36.0551 42.1686 30.8047 47.3746C30.499 47.4846 29.9343 47.5461 29.459 47.5386H29.4608Z" fill="url(#paint0_linear_318_2711)"/>
<path d="M69.5525 7.50817C69.5525 7.50817 69.1126 8.00585 68.3448 8.87445C67.9608 9.31062 67.4855 9.83067 66.9357 10.4215C66.384 11.0124 65.7764 11.6909 65.0886 12.4085C64.4028 13.1262 63.6591 13.9053 62.8726 14.7292C62.0916 15.5568 61.2361 16.3993 60.3657 17.2865C58.5858 19.0182 56.6884 20.8654 54.7891 22.7126C47.1885 30.0957 39.5878 37.4771 39.5878 37.4771L39.5244 37.4137C39.5244 37.4137 46.9052 29.8124 54.2878 22.2112C56.1348 20.3136 57.9819 18.4142 59.7134 16.6342C60.6006 15.7655 61.4411 14.91 62.2705 14.129C63.0944 13.3424 63.8716 12.5987 64.591 11.9127C65.3067 11.2249 65.987 10.6173 66.5778 10.0655C67.1687 9.51566 67.6887 9.04035 68.1248 8.65637C68.9952 7.88655 69.491 7.44666 69.491 7.44666L69.5525 7.50817Z" fill="#64B4D2"/>
<path d="M40.9636 38.8526C40.1864 39.6299 38.9246 39.6299 38.1474 38.8526C37.3701 38.0754 37.3701 36.8134 38.1474 36.0362C38.9246 35.2589 40.1864 35.2589 40.9636 36.0362C41.7408 36.8134 41.7408 38.0754 40.9636 38.8526Z" fill="#0064A0"/>
</g>
<defs>
<filter id="filter0_d_318_2711" x="0" y="0" width="81" height="81" filterUnits="userSpaceOnUse" color-interpolation-filters="sRGB">
<feFlood flood-opacity="0" result="BackgroundImageFix"/>
<feColorMatrix in="SourceAlpha" type="matrix" values="0 0 0 0 0 0 0 0 0 0 0 0 0 0 0 0 0 0 127 0" result="hardAlpha"/>
<feOffset dy="4"/>
<feGaussianBlur stdDeviation="2"/>
<feComposite in2="hardAlpha" operator="out"/>
<feColorMatrix type="matrix" values="0 0 0 0 0 0 0 0 0 0 0 0 0 0 0 0 0 0 0.25 0"/>
<feBlend mode="normal" in2="BackgroundImageFix" result="effect1_dropShadow_318_2711"/>
<feBlend mode="normal" in="SourceGraphic" in2="effect1_dropShadow_318_2711" result="shape"/>
</filter>
<linearGradient id="paint0_linear_318_2711" x1="77.6771" y1="18.5215" x2="25.4367" y2="32.5196" gradientUnits="userSpaceOnUse">
<stop stop-color="#8CD7F0"/>
<stop offset="0.3" stop-color="#86D3ED"/>
<stop offset="0.67" stop-color="#77CAE5"/>
<stop offset="1" stop-color="#64BEDC"/>
</linearGradient>
</defs>
</svg>
