<svg width="87" height="87" viewBox="0 0 87 87" fill="none" xmlns="http://www.w3.org/2000/svg">
<g clip-path="url(#clip0_371_731)">
<path d="M87 0H0V87H87V0Z" fill="url(#paint0_linear_371_731)"/>
<g filter="url(#filter0_d_371_731)">
<path d="M47.5605 40.5L44.7405 46.36L34.6705 43.07L34.0205 45.07L43.8305 48.27L44.9005 48.62L45.9805 48.97L49.7005 41.2L47.5605 40.5Z" fill="#8B6E80"/>
<path d="M27.2609 25.58L23.4209 24.33L26.3009 19.11L29.0709 20.01L27.2609 25.58Z" fill="#78586C"/>
<path d="M71.3506 43.82L23.3506 28.13L27.7206 21.9L73.6106 36.9L71.3506 43.82Z" fill="#8B6E80"/>
<path d="M74.3607 37.14L27.7207 21.9L29.1807 20.05L75.0507 35.04L74.3607 37.14Z" fill="white"/>
<path d="M73.1847 38.199L71.3486 43.8165L75.4739 45.1649L77.31 39.5473L73.1847 38.199Z" fill="#78586C"/>
<path d="M66.9837 30.2996L66.3623 32.2006L72.7973 34.3039L73.4186 32.4029L66.9837 30.2996Z" fill="#78586C"/>
<path d="M57.6707 42.12L56.0107 41.58L59.7807 35.66L61.4307 36.2L57.6707 42.12Z" fill="#78586C"/>
<path d="M59.3203 42.66L63.0803 36.74L64.7303 37.28L60.9703 43.2" fill="#78586C"/>
<path d="M62.6201 43.74L66.3801 37.82L68.0401 38.36L64.2701 44.28" fill="#78586C"/>
<path d="M34.2908 21.72L26.3008 19.11L27.2708 17.32L34.9108 19.81L34.2908 21.72Z" fill="#78586C"/>
<path d="M28.9099 24.6559L28.3662 26.3193L36.341 28.9259L36.8847 27.2625L28.9099 24.6559Z" fill="#78586C"/>
<path d="M27.7007 61.84L12.4307 56.85L24.6207 31.32L39.8907 36.31L27.7007 61.84Z" fill="#78586C"/>
<path d="M26.9304 59.58L15.1904 55.74L24.5604 36.13L36.2904 39.97L26.9304 59.58Z" fill="#8B6E80"/>
<path d="M19.7402 32.49C19.7402 32.49 24.4902 34.04 22.7902 39.25L31.2602 37.55L30.8002 32.37L20.5602 29.98L19.7402 32.48V32.49Z" fill="#78586C"/>
<path d="M28.1002 47.21C28.4502 46.14 27.8602 44.98 26.7902 44.63C25.7202 44.28 24.5702 44.86 24.2102 45.94C23.8502 47.02 24.4402 48.17 25.5202 48.52C26.6002 48.87 27.7502 48.29 28.1002 47.21Z" fill="#78586C"/>
<path d="M24.9605 54.22C25.3105 53.15 24.7205 52 23.6505 51.64C22.5805 51.28 21.4305 51.87 21.0705 52.95C20.7105 54.03 21.3005 55.18 22.3805 55.53C23.4605 55.88 24.6105 55.3 24.9605 54.22Z" fill="#78586C"/>
<path d="M27.8906 64.33L10.3906 58.61L12.4306 56.85L27.7006 61.84L27.8906 64.33Z" fill="#8B6E80"/>
<path d="M10.3896 58.6172L9.6875 60.7654L27.1865 66.4849L27.8886 64.3368L10.3896 58.6172Z" fill="#78586C"/>
<path d="M17.9505 26.37L16.3105 31.38L39.8205 39.06C39.9105 40.5 40.8405 41.8 42.2905 42.28L42.6905 41.06C42.1805 40.69 41.7805 40.19 41.5205 39.62L47.7705 41.66L44.9605 47.53L34.8905 44.24L34.2405 46.23L44.0505 49.44L45.1205 49.79L46.1905 50.14L49.9205 42.37L69.7005 48.83L71.3405 43.82L17.9505 26.37Z" fill="#78586C"/>
<path d="M28.9805 20.29L29.1805 20.05L29.0705 20.01L28.9805 20.29Z" fill="#78586C"/>
<g style="mix-blend-mode:multiply" opacity="0.25">
<path d="M36.3904 43.64L38.7404 38.71L39.8204 39.06C39.9104 40.5 40.8404 41.8 42.2904 42.28L42.6904 41.06C42.1804 40.69 41.7804 40.19 41.5204 39.62L45.7004 40.99L50.2904 26.96L34.2804 21.73L34.9004 19.83L27.2704 17.34L26.3004 19.13L23.4204 24.35L25.5304 25.04L23.3504 28.16L17.9504 26.39L16.3104 31.4L19.7304 32.52C19.7304 32.52 21.8504 33.22 22.7504 35.23L12.4204 56.87L10.3904 58.64L9.69043 60.79L27.1904 66.51L27.8904 64.36L27.7004 61.87L35.0304 46.51L43.0504 49.13L44.0204 46.16L36.3804 43.66L36.3904 43.64ZM28.9804 20.29L29.0704 20.01L29.1704 20.04L28.9804 20.29Z" fill="#78586C"/>
</g>
</g>
</g>
<defs>
<filter id="filter0_d_371_731" x="5.6875" y="17.32" width="75.6221" height="57.19" filterUnits="userSpaceOnUse" color-interpolation-filters="sRGB">
<feFlood flood-opacity="0" result="BackgroundImageFix"/>
<feColorMatrix in="SourceAlpha" type="matrix" values="0 0 0 0 0 0 0 0 0 0 0 0 0 0 0 0 0 0 127 0" result="hardAlpha"/>
<feOffset dy="4"/>
<feGaussianBlur stdDeviation="2"/>
<feComposite in2="hardAlpha" operator="out"/>
<feColorMatrix type="matrix" values="0 0 0 0 0 0 0 0 0 0 0 0 0 0 0 0 0 0 0.25 0"/>
<feBlend mode="normal" in2="BackgroundImageFix" result="effect1_dropShadow_371_731"/>
<feBlend mode="normal" in="SourceGraphic" in2="effect1_dropShadow_371_731" result="shape"/>
</filter>
<linearGradient id="paint0_linear_371_731" x1="53.37" y1="-15.49" x2="36.9" y2="82.98" gradientUnits="userSpaceOnUse">
<stop offset="0.06" stop-color="#4F3947"/>
<stop offset="0.99" stop-color="#331F2D"/>
</linearGradient>
<clipPath id="clip0_371_731">
<rect width="87" height="87" rx="7" fill="white"/>
</clipPath>
</defs>
</svg>
