<svg width="87" height="81" viewBox="0 0 87 81" fill="none" xmlns="http://www.w3.org/2000/svg">
<g filter="url(#filter0_d_263_78)">
<path d="M36.3304 10.8599C36.1904 11.0699 36.0704 11.2899 35.9804 11.5199C36.2004 10.7299 36.1404 9.49992 35.4104 9.13992C35.3904 9.11992 35.3604 9.10992 35.3304 9.09992C34.6504 8.82992 32.7204 9.88992 32.0704 10.1599C29.8804 11.0599 27.7904 12.2099 25.8704 13.5899C22.0204 16.3299 18.7904 19.9599 16.5804 24.1499C15.6704 25.8899 14.9104 27.8099 15.1104 29.7599C15.1804 30.3999 15.6804 31.2099 16.2604 30.9199C16.4204 30.8499 16.5304 30.6999 16.6304 30.5699C17.5204 29.3999 18.4004 28.2299 19.2804 27.0599C16.4104 31.3899 15.0104 36.6699 15.3704 41.8499C15.3804 42.0199 15.4004 42.1899 15.4204 42.3599C17.6104 47.6299 20.5404 37.2699 20.1504 33.0099C19.9104 30.3599 20.0704 27.4799 20.2404 25.6699C20.1504 28.3999 21.0004 31.1599 22.8704 33.1299C23.4104 33.6999 24.0604 34.1999 24.8104 34.4299C25.5304 34.6399 26.2904 34.5899 27.0404 34.5199C28.6604 34.3799 30.3004 34.2099 31.7804 33.5399C32.6604 33.1399 33.4404 32.5899 34.2104 31.9999L34.2304 32.5899C34.4204 32.3699 34.6204 32.1699 34.8304 31.9799C35.8404 31.0399 37.1104 30.3999 38.4704 30.1699C38.5004 29.8399 38.5304 29.5099 38.5404 29.1799C38.9604 23.0099 38.2104 16.7499 36.3304 10.8599ZM33.8104 30.1299C33.7104 30.2299 33.6004 30.3399 33.4904 30.4199C33.2604 30.6399 33.0104 30.8299 32.7504 31.0099C31.4404 31.9399 29.8404 32.4299 28.2504 32.4199C27.7504 32.4199 27.2404 32.3699 26.7504 32.2599C26.3504 32.1699 25.9604 32.0499 25.6304 31.8099C24.9204 31.2899 24.7004 30.2899 24.8604 29.4199C25.0204 28.5599 25.4904 27.7999 25.9504 27.0599C25.9604 27.0499 25.9604 27.0399 25.9704 27.0299C25.9604 27.0399 25.9404 27.0499 25.9304 27.0499C24.8804 27.7299 23.4104 28.3499 22.5404 27.4799C21.9104 26.8399 22.0404 25.8299 22.3404 24.9699C22.3704 24.8799 22.4104 24.7999 22.4404 24.7199C24.4604 19.7099 29.1804 16.3499 33.8504 13.6199C34.6104 13.1699 35.4004 12.6999 35.8204 11.9299C35.5504 12.7299 35.4504 13.5999 35.3604 14.4499C34.9904 17.9099 34.6204 21.3799 34.2604 24.8399C34.1304 26.0299 34.0104 27.2399 34.2204 28.4099C34.2804 28.7499 34.3704 29.1099 34.2704 29.4399C34.1904 29.7099 34.0004 29.9299 33.8104 30.1299Z" fill="#A9EFFF"/>
<path d="M68.0305 47.5499C65.6905 52.1599 61.5505 55.8099 56.7205 57.6699C51.8905 59.5199 46.4205 59.5899 41.5105 57.9799C36.5305 56.3399 32.2505 53.0899 27.4205 51.0499C23.5205 49.3999 18.7705 48.6099 14.7705 50.3799C16.5305 49.5999 18.1905 48.7899 20.1205 48.4899C25.6905 47.6399 31.2505 50.1599 36.8905 50.1299C39.7905 50.1199 42.6405 49.4299 45.3905 48.5299C46.5305 48.1599 47.6705 47.7499 48.7005 47.1399C51.8505 45.2799 53.7305 41.5099 53.4305 37.8599C53.1205 34.2099 50.6905 30.8399 47.3705 29.2999C44.6205 28.0299 41.3405 28.0299 38.5405 29.1799C37.9505 29.4099 37.3905 29.6999 36.8505 30.0399C35.9205 30.6199 35.0805 31.3299 34.2105 31.9999C33.4405 32.5899 32.6605 33.1399 31.7805 33.5399C30.3005 34.2099 28.6605 34.3799 27.0405 34.5199C26.2905 34.5899 25.5305 34.6399 24.8105 34.4299C24.0605 34.1999 23.4105 33.6999 22.8705 33.1299C21.0005 31.1599 20.1505 28.3999 20.2405 25.6699C20.2405 25.1099 20.3105 24.5499 20.4105 23.9899C20.4205 23.9099 20.4305 23.8599 20.4305 23.8599C21.0405 20.5999 22.8805 17.6699 25.1805 15.2699C27.9605 12.3599 31.5205 10.1299 35.4105 9.13993C36.2105 8.92993 37.0305 8.77993 37.8605 8.67993C42.2305 8.16993 46.6105 9.24993 50.8305 10.4899C53.5305 11.2899 56.2405 12.1599 58.6805 13.5699C65.2505 17.3799 69.1405 24.7999 70.1905 32.3199C70.9105 37.4799 70.4005 42.9099 68.0305 47.5499Z" fill="#6EB4D3"/>
<path d="M36.1304 7.94992C36.1304 7.94992 23.2104 15.2399 22.1504 25.6899C22.1504 25.6899 25.3404 18.5699 31.2004 15.7199C31.2004 15.7199 33.7504 10.0799 36.1304 7.95992V7.94992Z" fill="#7BCCE4"/>
<path d="M32.2809 36.3899C32.1309 36.7399 31.9809 37.0999 31.8109 37.4399C31.5009 38.0799 30.7409 38.7699 30.2009 38.3099C30.0409 38.1799 29.9609 37.9799 29.9009 37.7799C29.6309 36.9099 29.6209 35.9599 29.8809 35.0799C28.0709 37.1199 27.3409 39.8599 26.2509 42.3599C26.0909 42.7199 25.9209 43.0999 25.6009 43.3299C25.1709 43.6499 24.5609 43.6199 24.0809 43.3699C24.0109 43.3299 23.9309 43.2799 23.8609 43.2299C23.3509 42.8699 23.0409 42.2999 22.8109 41.7199C22.0909 39.8999 22.0409 37.8199 22.6709 35.9699C21.2109 37.8199 20.1209 39.9499 19.4809 42.2199C19.1709 43.3399 18.7109 44.7299 17.5609 44.8599C16.8609 44.9499 16.2009 44.4699 15.8509 43.8699C15.5909 43.4099 15.4809 42.8999 15.4209 42.3799C17.6109 47.6199 20.5409 37.2699 20.1509 33.0099C19.9109 30.3599 20.0709 27.4799 20.2409 25.6699C20.1509 28.3999 21.0009 31.1599 22.8709 33.1299C23.4109 33.6999 24.0609 34.1999 24.8109 34.4299C25.5309 34.6399 26.2909 34.5899 27.0409 34.5199C28.6609 34.3799 30.3009 34.2099 31.7809 33.5399C31.8809 33.4999 31.9709 33.4499 32.0709 33.3899C32.0709 34.3899 32.1409 35.3899 32.2809 36.3899Z" fill="#7BCCE4"/>
<path d="M62.33 45.4499C59.85 50.8099 54.2 54.0799 48.84 53.3999C51.9 52.1399 54.56 49.9299 56.3 47.1099C58.63 43.3399 59.25 38.5499 57.96 34.3099C57.26 31.9999 55.89 29.7399 53.68 28.7699C50.56 27.3999 49.25 29.4799 47.29 31.0099C48.58 27.3699 52.03 24.4899 55.49 25.2099C57.07 25.5299 58.48 26.5499 59.64 27.7799C63.82 32.1899 64.97 39.7599 62.33 45.4499Z" fill="#429CBC"/>
<path d="M24.5003 21.6599C22.2403 24.8999 20.7303 28.7499 20.7703 32.6999C22.7703 28.1399 26.3503 24.2799 30.7603 21.9599C31.0103 21.8299 31.2803 21.6899 31.4603 21.4699C31.6103 21.2899 31.6803 21.0599 31.7503 20.8399C32.2703 19.2299 32.6303 17.5599 32.8103 15.8699C33.0203 13.9399 32.3503 13.6899 30.9103 14.8899C28.5203 16.8899 26.2903 19.0999 24.5003 21.6599Z" fill="#429CBC"/>
<path d="M79.1606 41.7499C78.7406 46.4299 77.9206 51.1099 76.1206 55.3499C71.6806 65.7799 60.9906 72.4399 50.6906 71.1799C44.1506 70.3799 38.3706 66.8399 32.5606 63.2099C28.2106 60.4999 23.8506 57.7299 19.1506 56.0499C16.5206 55.0999 12.9806 54.2799 10.4906 56.0599C10.4006 56.1099 10.3106 56.1799 10.2206 56.2499C8.8006 57.3899 4.7106 61.5799 4.7106 63.8099C4.2306 58.3399 7.2306 52.9499 11.4006 49.9899C15.6106 46.9999 20.7906 46.1699 25.7806 46.3999C30.7806 46.6399 35.7406 47.8799 40.3506 50.0499C42.8106 51.2099 45.2106 52.6499 47.8406 53.2299C48.1706 53.3099 48.5106 53.3599 48.8406 53.3999C54.2006 54.0799 59.8506 50.8099 62.3306 45.4499C64.9706 39.7599 63.8206 32.1899 59.6406 27.7799C58.4806 26.5499 57.0706 25.5299 55.4906 25.2099C52.0306 24.4899 48.5806 27.3699 47.2906 31.0099C47.2206 30.9499 47.1506 30.8899 47.0706 30.8399C46.9606 30.7399 46.8506 30.6499 46.7306 30.5599C42.6806 27.1799 37.5206 26.0099 32.7906 23.8999C32.4106 23.7399 32.0506 23.5699 31.6806 23.3899C31.3906 23.2499 31.0806 23.0799 30.9206 22.7899C30.7406 22.4799 30.7506 22.0899 30.7706 21.7299C31.0306 17.4499 32.4906 13.2699 34.9006 9.91992C39.3006 3.81992 46.6906 0.839917 53.6806 1.59992C60.6706 2.34992 67.1706 6.54992 71.8306 12.3999C74.4106 15.6399 76.4906 19.3999 77.7706 23.4899C79.5706 29.3099 79.7106 35.6299 79.1606 41.7499Z" fill="#7BCCE4"/>
<path d="M75.6402 36.9199C75.6402 36.9199 75.6502 36.9299 75.6402 36.9399C75.8402 44.7299 74.1202 52.4999 70.2102 59.2299C69.4002 60.6299 68.4902 61.9799 67.3502 63.1299C66.2102 64.2699 64.8602 65.1699 63.5102 66.0599C61.8302 67.1799 60.0202 67.9999 58.0502 68.4299C56.5402 68.7599 53.9002 69.1199 52.3602 68.9599C46.1002 68.2999 41.0902 66.6199 35.2402 64.3099C34.3402 63.9599 33.4502 63.5799 32.5602 63.2099C29.0802 61.0399 25.6002 58.8399 21.9402 57.1799C21.0202 56.7699 20.0902 56.3899 19.1502 56.0499C16.5202 55.0999 12.9802 54.2799 10.4902 56.0599C12.9602 53.5999 16.2902 52.0199 19.7402 51.4599C24.1402 50.7399 28.7002 51.5899 32.7902 53.3599C36.3602 54.8999 39.5902 57.1199 43.0502 58.8899C46.5102 60.6699 50.3502 62.0199 54.2202 61.6199C54.6102 61.5799 54.9902 61.5199 55.3702 61.4399C59.3002 60.6799 62.8002 58.1199 65.1802 54.8599C67.7902 51.2899 69.1602 46.9499 69.8802 42.5899C70.8602 36.6999 70.6402 30.4099 67.9102 25.1099C65.1802 19.7999 59.5502 15.7299 53.5902 16.0899C52.1302 16.1799 50.6302 16.5499 49.5102 17.4899C48.7502 18.1299 48.2002 18.9899 47.7702 19.8899C46.1202 23.2599 45.8802 27.2999 47.1102 30.8399H47.0702C43.6502 30.4899 40.2802 29.6999 37.0802 28.4599C35.6502 27.9099 34.1902 27.2199 33.2902 25.9899C32.8902 25.4399 32.7802 24.6999 32.7902 23.8999C32.8202 22.5999 33.1902 21.1199 33.2502 20.0199C33.3102 18.7799 33.6702 17.5999 34.2202 16.4999C35.0502 14.8099 36.3302 13.3099 37.7302 12.0399C43.5802 6.72991 52.3902 4.52991 59.7602 7.38991C61.3602 8.00991 62.8702 8.84991 64.3102 9.76991C65.7602 10.6899 66.8602 11.7199 68.0002 12.9999C69.2802 14.4499 70.4902 16.1799 71.2902 17.9499C73.9802 23.8799 75.4802 30.4099 75.6402 36.9199Z" fill="#6EB4D3"/>
<path d="M75.6406 36.9199C75.0706 33.8499 74.2906 30.8099 73.3306 27.8399C72.4106 24.9899 71.3106 22.1799 69.6506 19.6899C68.0005 17.1999 65.7505 15.0299 63.0006 13.8499C61.3006 13.1199 59.4606 12.7799 57.6106 12.6099C53.4006 12.2299 49.0405 12.7399 45.2605 14.6199C42.4205 16.0299 39.3906 18.4899 38.1206 21.4899C37.7406 22.3899 37.9406 24.2299 37.1306 24.8499C35.9406 25.7699 34.3406 24.3299 33.9206 23.2699C33.5706 22.3699 33.5806 21.3599 33.6406 20.3999C33.7306 19.0899 33.9206 17.7799 34.2206 16.4999C35.0506 14.8099 36.3306 13.3099 37.7306 12.0399C43.5806 6.72991 52.3905 4.52991 59.7605 7.38991C61.3605 8.00991 62.8706 8.84991 64.3106 9.76991C65.7606 10.6899 66.8606 11.7199 68.0006 12.9999C69.2806 14.4499 70.4906 16.1799 71.2906 17.9499C73.9805 23.8799 75.4806 30.4099 75.6406 36.9199Z" fill="#429CBC"/>
<path d="M54.2202 61.6199C54.6102 61.5799 54.9902 61.5199 55.3702 61.4399C54.3902 61.8399 53.3402 62.0699 52.2902 62.1599C49.6502 62.3699 47.0102 61.6999 44.4902 60.8899C38.5402 58.9699 32.6302 56.1499 26.3902 56.4799C24.8902 56.5599 23.4102 56.8299 21.9402 57.1799C21.0202 56.7699 20.0902 56.3899 19.1502 56.0499C16.5202 55.0999 12.9802 54.2799 10.4902 56.0599C12.9602 53.5999 16.2902 52.0199 19.7402 51.4599C24.1402 50.7399 28.7002 51.5899 32.7902 53.3599C36.3602 54.8999 39.5902 57.1199 43.0502 58.8899C46.5102 60.6699 50.3502 62.0199 54.2202 61.6199Z" fill="#429CBC"/>
<path d="M60.4604 28.7199C59.6904 27.7799 58.7304 27.1099 57.7004 26.7999C57.0004 26.5699 56.2704 26.5099 55.5404 26.6299C52.8404 27.1099 51.0704 29.7899 50.3404 32.4299C49.6104 35.0799 49.5904 37.8999 48.6904 40.4799C48.4804 41.0699 48.1704 41.7099 47.5804 41.9199C46.9404 42.1399 46.2404 41.7599 45.7504 41.2899C45.5304 41.0699 45.3304 40.8399 45.1704 40.5899C43.9904 38.9199 43.8904 36.6099 43.8604 34.5099C43.3304 34.9899 43.1504 35.7499 42.7804 36.3599C42.4104 36.9799 41.5704 37.4799 40.9904 37.0599C40.7404 36.8699 40.6104 36.5699 40.5104 36.2799C39.8704 34.4099 39.8704 32.3099 40.5204 30.4399C38.0104 32.5799 37.2404 36.0699 36.4904 39.2899C36.3704 39.7899 36.2404 40.3099 35.8604 40.6599C35.2204 41.2399 34.1304 41.0199 33.5304 40.3999C32.9204 39.7699 32.6904 38.8899 32.5304 38.0399C32.4304 37.4899 32.3404 36.9399 32.2804 36.3899C32.1404 35.3899 32.0704 34.3899 32.0704 33.3899C32.0304 30.9399 32.3504 28.4999 33.0104 26.1399C32.3404 27.6299 31.6704 29.1099 31.0004 30.5999C30.9104 30.7999 30.8104 31.0099 30.6204 31.1199C30.1004 31.4399 29.5204 30.7899 29.3104 30.2199C28.2804 27.4699 28.6204 24.3899 29.3204 21.5399C31.3404 13.3099 35.5004 5.56992 44.7504 2.63992C39.2504 6.07992 35.4504 12.6699 35.5504 19.1599C36.7604 15.8599 39.3304 13.0899 42.5304 11.6399C43.2604 11.3199 44.3104 11.1499 44.6904 11.8499C44.9004 12.2399 44.7904 12.7199 44.6504 13.1399C43.3304 17.3099 40.7904 21.3799 41.4204 25.6999C41.5004 26.2499 41.6804 26.8499 42.1704 27.0899C42.8404 27.4099 43.5904 26.8599 44.1104 26.3299C46.1704 24.2399 47.9004 21.7699 50.3204 20.0999C52.7404 18.4299 56.1804 17.7299 58.5604 19.4599C55.4804 19.0599 50.0704 22.9899 53.1704 23.0799C58.3804 23.2299 60.3504 28.3999 60.4604 28.7199Z" fill="#A9EFFF"/>
<path d="M57.7009 26.7899C57.0009 26.5699 56.2709 26.5099 55.5409 26.6299C52.8409 27.1099 51.0709 29.7899 50.3409 32.4299C49.6109 35.0799 49.5909 37.8999 48.6909 40.4799C48.4809 41.0699 48.1709 41.7099 47.5809 41.9199C46.9409 42.1399 46.2409 41.7599 45.7509 41.2899C45.5309 41.0699 45.3309 40.8399 45.1709 40.5899C48.6609 43.2999 46.4509 38.1199 49.0909 30.9399C51.7409 23.7299 57.7009 26.7899 57.7009 26.7899Z" fill="#7BCCE4"/>
<path d="M4.72053 26.3799C4.22053 27.2799 3.80053 28.3499 4.10053 29.3399C4.36053 30.1799 5.10053 30.8099 5.92053 31.1099C6.47053 31.3099 7.09053 31.3899 7.64053 31.1799C8.19053 30.9699 8.60053 30.4999 8.96053 30.0299C10.5805 27.8999 11.5705 25.3499 13.1505 23.1899C14.4605 21.4099 16.1105 20.0699 17.9705 18.9099C16.1005 18.9099 13.8305 19.4499 12.0805 20.1199C10.1305 20.8599 8.34053 22.0199 6.88053 23.5099C6.03053 24.3699 5.30053 25.3399 4.71053 26.3899L4.72053 26.3799Z" fill="#A9EFFF"/>
<path d="M18.2109 3.83992C16.9409 4.73992 15.6909 5.91992 15.4609 7.45992C15.2609 8.76992 15.8709 10.0999 16.7909 11.0499C17.4109 11.6799 18.2109 12.1799 19.0909 12.2499C19.9809 12.3199 20.8409 11.9499 21.6309 11.5399C25.2109 9.67992 28.2009 6.85992 31.7509 4.94992C34.6809 3.36992 37.7909 2.62992 41.0709 2.24992C38.5209 1.03992 35.0909 0.30992 32.2809 0.0799197C29.1509 -0.18008 25.9609 0.249919 23.0109 1.31992C21.3009 1.93992 19.6809 2.77992 18.2009 3.82992L18.2109 3.83992Z" fill="#A9EFFF"/>
<path d="M80.8602 67.7599C81.6802 66.8899 82.3902 65.8099 82.1202 64.5399C81.8902 63.4699 80.9702 62.4699 79.8902 61.8199C79.1702 61.3799 78.3302 61.0699 77.5502 61.1199C76.7702 61.1699 76.1402 61.5599 75.5902 61.9799C73.0802 63.8799 71.3602 66.4799 68.8902 68.4199C66.8502 70.0199 64.4102 70.9699 61.7002 71.6499C64.2502 72.3299 67.4202 72.5199 69.9002 72.3899C72.6702 72.2399 75.2702 71.5399 77.4802 70.3299C78.7602 69.6399 79.9002 68.7799 80.8502 67.7599H80.8602Z" fill="#A9EFFF"/>
<path d="M30.921 18.0799C30.111 20.8799 29.301 23.7599 29.601 26.6599C29.641 26.9999 29.691 27.3499 29.881 27.6299C30.071 27.9099 30.421 28.1099 30.751 28.0099C31.051 27.9199 31.241 27.6199 31.361 27.3399C32.031 25.8099 31.801 24.0599 31.691 22.3999C31.551 20.1799 31.821 18.0599 32.001 15.8599C31.281 16.0399 31.101 17.4299 30.921 18.0799Z" fill="#CFF8FF"/>
<path d="M17.3403 6.21992C17.0503 6.64992 16.7803 7.15992 16.8903 7.66992C17.0403 8.38992 17.8903 8.76992 18.6103 8.64992C19.3303 8.52992 19.9303 8.03992 20.4703 7.54992C22.7403 5.45992 24.6503 3.16992 27.2203 1.41992C26.4303 1.18992 25.3303 1.65992 24.5103 1.74992C23.5603 1.84992 22.7303 2.03992 21.8403 2.43992C20.0303 3.24992 18.4503 4.56992 17.3403 6.21992Z" fill="#CFF8FF"/>
<path d="M77.5304 64.7199C77.9604 64.1299 78.6204 63.5599 79.3404 63.6799C79.9604 63.7799 80.4204 64.3799 80.4804 65.0099C80.5404 65.6399 80.2604 66.2499 79.8604 66.7399C79.4604 67.2299 78.9404 67.5899 78.4304 67.9499C77.1404 68.8499 75.8804 69.8799 74.5304 70.6699C74.4104 70.0899 75.6804 68.5499 75.9504 67.9099C76.4304 66.8199 76.8304 65.6899 77.5304 64.7199Z" fill="#CFF8FF"/>
</g>
<defs>
<filter id="filter0_d_263_78" x="0" y="0.00610352" width="86.1787" height="80.4221" filterUnits="userSpaceOnUse" color-interpolation-filters="sRGB">
<feFlood flood-opacity="0" result="BackgroundImageFix"/>
<feColorMatrix in="SourceAlpha" type="matrix" values="0 0 0 0 0 0 0 0 0 0 0 0 0 0 0 0 0 0 127 0" result="hardAlpha"/>
<feOffset dy="4"/>
<feGaussianBlur stdDeviation="2"/>
<feComposite in2="hardAlpha" operator="out"/>
<feColorMatrix type="matrix" values="0 0 0 0 0 0 0 0 0 0 0 0 0 0 0 0 0 0 0.25 0"/>
<feBlend mode="normal" in2="BackgroundImageFix" result="effect1_dropShadow_263_78"/>
<feBlend mode="normal" in="SourceGraphic" in2="effect1_dropShadow_263_78" result="shape"/>
</filter>
</defs>
</svg>
