<svg width="87" height="87" viewBox="0 0 87 87" fill="none" xmlns="http://www.w3.org/2000/svg">
<g clip-path="url(#clip0_371_653)">
<path d="M87 0H0V87H87V0Z" fill="url(#paint0_linear_371_653)"/>
<g filter="url(#filter0_d_371_653)">
<path fill-rule="evenodd" clip-rule="evenodd" d="M62.1996 46.1C62.1996 46.1 58.1596 35.28 49.8596 28.28C47.0896 24.78 45.1997 23.83 41.5597 21.28L39.8896 18.52L44.7996 10.35C44.7996 10.35 69.1196 23.53 81.9896 18.58C82.2996 18.46 82.6097 18.33 82.9097 18.19C82.9097 18.19 82.8396 18.5 82.6696 19.06C81.5496 22.9 76.2596 38.48 62.2096 46.1" fill="#6B8385"/>
<path fill-rule="evenodd" clip-rule="evenodd" d="M39.8896 18.52C39.8896 18.52 59.5797 28.68 63.0797 43.12C63.0797 43.12 76.6796 32.77 78.5996 19.45C79.7896 19.27 80.9197 18.99 81.9797 18.58C82.2897 18.46 82.5997 18.33 82.8997 18.19C82.8997 18.19 82.8297 18.5 82.6597 19.06C81.5397 22.9 76.2496 38.48 62.1996 46.1C62.1996 46.1 58.1596 35.28 49.8596 28.28C47.0896 24.78 45.1997 23.83 41.5597 21.28L39.8896 18.52Z" fill="#C3E3E5"/>
<path fill-rule="evenodd" clip-rule="evenodd" d="M28.4296 44.09C28.4296 44.09 30.0296 48.94 34.6996 50.13C33.8296 51.04 32.9396 51.88 32.0596 52.62C32.0596 52.62 17.6496 62.94 15.7296 75.99C15.7296 75.99 10.0696 77.23 4.09961 71.46C4.09961 71.46 10.1496 56.5 28.4296 44.08" fill="#403B3B"/>
<path fill-rule="evenodd" clip-rule="evenodd" d="M34.6899 50.13C30.0199 48.94 28.4199 44.09 28.4199 44.09C28.4199 44.09 36.7699 40.73 41.5499 21.29C45.1999 23.84 47.0799 24.79 49.8499 28.29C49.8499 28.29 42.5499 41.98 34.6799 50.14" fill="#8D5631"/>
<path fill-rule="evenodd" clip-rule="evenodd" d="M34.7094 43.68C38.9994 39.93 44.9794 31.27 44.9794 31.27C47.1794 27.04 45.2694 24.19 43.5494 22.65C45.9894 24.31 47.6494 25.48 49.8694 28.29C49.8694 28.29 42.5694 41.98 34.6994 50.14C32.6094 49.61 31.1394 48.34 30.1494 47.11C33.4994 50.07 39.4094 40.98 39.4094 40.98C38.2794 42.59 34.7094 43.7 34.7094 43.7" fill="#6E3915"/>
<path fill-rule="evenodd" clip-rule="evenodd" d="M30.1398 47.1C31.1298 48.34 32.6098 49.6 34.6898 50.13C33.8198 51.04 32.9298 51.88 32.0498 52.62C32.0498 52.62 17.6398 62.94 15.7198 75.99C15.7198 75.99 10.0598 77.23 4.08984 71.46C14.3798 75.05 14.7698 69.33 14.7698 69.33C17.5498 59.52 31.0898 50.28 30.1298 47.09" fill="#302C2C"/>
<path fill-rule="evenodd" clip-rule="evenodd" d="M39.8896 18.52C39.8896 18.52 59.7296 21.59 65.2496 35.44C65.2496 35.44 68.7597 35.67 73.6497 31.62C69.0597 38.57 63.0797 43.12 63.0797 43.12C59.5797 28.68 39.8896 18.52 39.8896 18.52Z" fill="#4D6566"/>
<path fill-rule="evenodd" clip-rule="evenodd" d="M39.8899 18.52C39.8899 18.52 59.5799 28.68 63.0799 43.12C63.0799 43.12 69.0599 38.57 73.6499 31.62C76.1099 29.59 78.9099 26.47 81.7899 21.7C79.6299 27.65 74.0099 39.68 62.1999 46.1C62.1999 46.1 58.1599 35.28 49.8599 28.28C47.6399 25.47 45.9899 24.31 43.5399 22.64C42.9299 22.23 42.2799 21.78 41.5499 21.28L39.8799 18.52H39.8899Z" fill="white"/>
<path fill-rule="evenodd" clip-rule="evenodd" d="M44.8797 14.81L43.3997 19.3C41.2697 18.73 39.8896 18.52 39.8896 18.52L44.7996 10.35C44.7996 10.35 58.6797 17.87 71.0097 19.42C71.0097 19.42 55.9996 17.78 44.8896 14.81" fill="#B4D3D5"/>
<path fill-rule="evenodd" clip-rule="evenodd" d="M41.5597 21.29C41.5597 21.29 42.0997 35.59 29.2697 45.85C28.6797 44.86 28.4297 44.1 28.4297 44.1C28.4297 44.1 36.7797 40.74 41.5597 21.3" fill="#F4A62A"/>
<path fill-rule="evenodd" clip-rule="evenodd" d="M4.09961 71.47C4.09961 71.47 10.1496 56.51 28.4296 44.09C28.4296 44.09 28.6796 44.85 29.2696 45.84C29.2696 45.84 9.34961 59.94 4.09961 71.46" fill="#605959"/>
</g>
</g>
<defs>
<filter id="filter0_d_371_653" x="0.0898438" y="10.35" width="86.8193" height="73.752" filterUnits="userSpaceOnUse" color-interpolation-filters="sRGB">
<feFlood flood-opacity="0" result="BackgroundImageFix"/>
<feColorMatrix in="SourceAlpha" type="matrix" values="0 0 0 0 0 0 0 0 0 0 0 0 0 0 0 0 0 0 127 0" result="hardAlpha"/>
<feOffset dy="4"/>
<feGaussianBlur stdDeviation="2"/>
<feComposite in2="hardAlpha" operator="out"/>
<feColorMatrix type="matrix" values="0 0 0 0 0 0 0 0 0 0 0 0 0 0 0 0 0 0 0.25 0"/>
<feBlend mode="normal" in2="BackgroundImageFix" result="effect1_dropShadow_371_653"/>
<feBlend mode="normal" in="SourceGraphic" in2="effect1_dropShadow_371_653" result="shape"/>
</filter>
<linearGradient id="paint0_linear_371_653" x1="53.37" y1="-15.49" x2="36.9" y2="82.98" gradientUnits="userSpaceOnUse">
<stop offset="0.06" stop-color="#C3E3E5"/>
<stop offset="0.99" stop-color="#356A6B"/>
</linearGradient>
<clipPath id="clip0_371_653">
<rect width="87" height="87" rx="7" fill="white"/>
</clipPath>
</defs>
</svg>
