<svg width="87" height="87" viewBox="0 0 87 87" fill="none" xmlns="http://www.w3.org/2000/svg">
<g clip-path="url(#clip0_290_969)">
<path d="M87 0H0V87H87V0Z" fill="url(#paint0_linear_290_969)"/>
<g filter="url(#filter0_d_290_969)">
<path d="M19.3624 75.4672L11.5381 67.6422C17.3905 65.1203 22.9671 58.9431 26.0834 54.5106C26.704 53.6401 27.2166 52.8386 27.6229 52.1452L29.1121 52.2067L34.5768 52.4267L34.8266 58.6486L34.8583 59.3811C34.3084 59.7055 33.6822 60.095 33.0112 60.5517C28.5548 63.5806 21.983 69.3776 19.3606 75.4672H19.3624Z" fill="#6B3F00"/>
<path d="M19.362 75.4672L18.0723 74.1774C23.2295 65.0271 32.5859 59.0363 34.6268 58.4473L34.8262 58.6486L34.8579 59.3812C34.3081 59.7055 33.6818 60.0951 33.0108 60.5517C28.5544 63.5807 21.9826 69.3776 19.3602 75.4672H19.362Z" fill="#643A00"/>
<path d="M13.2975 69.4018L11.5381 67.6422C18.5349 64.6263 25.1459 56.3764 27.6229 52.1452L29.1121 52.2067L29.4308 52.5255C27.8857 56.587 21.1815 65.0569 13.2957 69.4L13.2975 69.4018Z" fill="#643A00"/>
<path d="M34.9406 52.0632C34.5454 52.1955 34.0832 52.3074 33.5632 52.4006C30.7898 52.9318 26.49 52.7883 23.1929 49.489C19.2807 45.5766 20.796 39.267 25.3344 37.9585C25.9159 37.7889 26.449 37.7088 26.9373 37.6827L26.9429 37.6883C30.1356 37.5391 31.4869 40.0425 31.4869 40.0425C31.4869 40.0425 27.1125 38.1207 26.5366 42.2904C26.024 45.9587 32.2697 47.7108 37.5406 45.996C42.804 44.2755 34.9424 52.0613 34.9424 52.0613L34.9406 52.0632Z" fill="#A02289"/>
<path d="M34.8598 59.3811C34.3099 59.7055 33.6837 60.095 33.0127 60.5517C33.0314 60.4697 33.05 60.3895 33.0873 60.3131C33.7135 58.9729 31.8609 56.2814 30.3083 56.6075C29.7193 55.2431 27.6859 54.2217 26.083 54.5106C26.7037 53.6401 27.2162 52.8386 27.6225 52.1452L29.1117 52.2067L34.5765 52.4267L34.8579 59.3811H34.8598Z" fill="#4E2D00"/>
<path d="M34.9415 52.0596C34.1196 54.5779 33.5977 59.8976 37.5099 63.8101C41.422 67.7226 47.733 66.209 49.0358 61.6721C50.2901 57.3086 46.9483 55.5173 46.9483 55.5173C46.9483 55.5173 48.8755 59.8958 44.7061 60.4717C41.0381 60.9787 39.2824 54.7344 41.0027 49.465C42.7249 44.1974 34.9397 52.0596 34.9397 52.0596H34.9415Z" fill="#A02289"/>
<path d="M34.6012 53.4389C34.07 56.2125 34.2135 60.5127 37.5125 63.8101C41.4246 67.7225 47.7337 66.2071 49.0421 61.6684C49.2117 61.0868 49.2918 60.5537 49.3179 60.0654L49.3124 60.0598C47.2547 64.7476 42.3845 66.0245 38.8414 62.4811C35.2982 58.9377 35.9301 52.41 35.9301 52.41L34.603 53.4371L34.6012 53.4389Z" fill="#96177F"/>
<path d="M47.7405 56.8667C48.3462 57.7464 49.2036 59.6999 47.0956 61.7763C44.9578 63.8808 41.7949 63.2041 39.9571 61.3663C38.3524 59.7614 37.0626 55.8881 38.4698 55.7725C40.0857 55.6383 39.2619 58.1099 41.6588 60.5088C43.299 62.1473 45.6679 61.6794 47.0751 60.2721C48.8774 58.4697 47.7405 56.8685 47.7405 56.8685V56.8667Z" fill="#AA2D93"/>
<path d="M33.5642 52.4006C30.7908 52.9318 26.4909 52.7883 23.1938 49.4891C19.2817 45.5766 20.797 39.2671 25.3354 37.9586C25.9169 37.789 26.4499 37.7088 26.9383 37.6827L26.9439 37.6883C22.2563 39.7461 20.9796 44.6167 24.5227 48.1601C28.0659 51.7035 34.593 51.0716 34.593 51.0716L33.566 52.3987L33.5642 52.4006Z" fill="#96177F"/>
<path d="M30.3125 56.6113C30.3255 56.6244 30.3386 56.6374 30.3535 56.6486C30.3647 56.6635 30.3777 56.6766 30.3908 56.6896L30.3125 56.6113Z" fill="#BBF5F9"/>
<path d="M79.9999 7C79.9272 7.41566 78.1155 17.6451 76.2648 19.524C75.3794 20.4206 70.5689 24.5064 65.4956 28.8271C62.3215 31.5298 59.0449 34.3239 56.5641 36.4898C54.5885 38.2103 53.116 39.5318 52.5998 40.091C50.393 42.475 47.7855 46.5571 47.7855 50.7157C45.4893 50.7157 42.4438 49.4948 35.5327 56.4063C34.6213 57.316 31.3 57.4912 30.3531 56.6487C29.5088 55.7018 29.684 52.3802 30.5954 51.4687C37.5065 44.5571 36.2857 41.5114 36.2857 39.215C40.4439 39.215 44.5257 36.6073 46.9095 34.4003C48.0054 33.3845 52.0481 28.6873 56.2771 23.7273C59.5761 19.8595 62.9887 15.8352 65.2048 13.276C66.3194 11.988 67.132 11.0728 67.475 10.7335C69.3574 8.87888 79.6159 7.06524 79.9999 7Z" fill="#BBF5F9"/>
<path d="M19.6937 78.103L19.593 78.2018L8.7959 67.4038L8.89468 67.3032C9.02515 67.1727 9.17053 67.0646 9.32709 66.9956C9.93283 66.6899 10.6914 66.7943 11.1984 67.3013L19.6974 75.801C20.1988 76.3024 20.305 77.0592 19.9975 77.665C19.9285 77.8216 19.8223 77.967 19.69 78.0974L19.6937 78.103Z" fill="#B4B4B4"/>
<path d="M19.6937 78.103L19.593 78.2018L8.7959 67.4038L8.89468 67.3032C9.02515 67.1727 9.17053 67.0646 9.32709 66.9956L19.9975 77.6668C19.9285 77.8234 19.8223 77.9688 19.69 78.0993L19.6937 78.103Z" fill="#A0A0A0"/>
<path d="M20.2457 79.7413C19.9009 80.0862 19.3381 80.0862 18.9933 79.7413L7.25861 68.0058C6.9138 67.661 6.9138 67.098 7.25861 66.7532C7.33316 66.6787 7.42076 66.6153 7.52141 66.578C7.84757 66.427 8.24084 66.4829 8.5111 66.7532L20.2476 78.4888C20.516 78.759 20.5738 79.1523 20.4228 79.4785C20.3855 79.5792 20.3222 79.6668 20.2476 79.7413H20.2457Z" fill="#B4B4B4"/>
<path d="M30.1369 39.2598C29.2571 38.654 27.3039 37.7965 25.2276 39.9047C23.1233 42.0427 23.7999 45.2058 25.6376 47.0437C27.2424 48.6486 31.1154 49.9384 31.2309 48.5311C31.3651 46.9151 28.8937 47.7389 26.495 45.3419C24.8567 43.7035 25.3245 41.3325 26.7317 39.9252C28.534 38.1227 30.135 39.2598 30.135 39.2598H30.1369Z" fill="#AA2D93"/>
<g style="mix-blend-mode:screen" opacity="0.2">
<path d="M31.6604 59.0011C31.6716 58.9713 31.6791 58.9396 31.6828 58.9061C31.7238 58.3245 30.7061 58.6731 30.4508 58.7961C29.8078 59.1055 29.2188 59.5603 28.682 60.0319C27.5358 61.0384 26.4193 62.0767 25.3197 63.1354C23.8379 64.5632 22.3991 66.0395 21.0459 67.5903C20.6322 68.0637 17.2046 71.9389 18.0563 72.3248C18.4533 72.5056 18.8559 71.9408 19.0479 71.678C19.6108 70.9026 20.2109 70.1532 20.8428 69.4338C21.3553 68.8522 21.7393 68.1644 22.2611 67.5959C22.8296 66.9752 23.331 66.3097 23.9088 65.7077C24.563 65.0273 25.2134 64.3265 25.8658 63.6536C26.7977 62.6918 27.8918 61.8586 28.9355 61.0235C29.3996 60.6526 29.9196 60.3618 30.4117 60.03C30.7304 59.8157 31.5169 59.3702 31.6586 58.9993L31.6604 59.0011Z" fill="#6B3F00"/>
</g>
<path d="M20.4207 79.4804C20.102 79.6239 19.7013 79.5605 19.4385 79.2977L7.70197 67.5603C7.43917 67.2975 7.3758 66.8967 7.51932 66.578C7.84549 66.427 8.23875 66.4829 8.50901 66.7532L20.2455 78.4888C20.5139 78.759 20.5717 79.1523 20.4207 79.4785V79.4804Z" fill="#C8C8C8"/>
<path d="M65.4958 28.827C62.3217 31.5298 59.0451 34.3239 56.5644 36.4898L56.2773 23.7272C59.5763 19.8595 62.989 15.8352 65.2051 13.2759L65.4958 28.827Z" fill="white"/>
<path d="M32.4608 54.5386C32.4534 54.0633 32.513 53.4986 32.6249 53.1929C37.8305 47.9421 38.9115 44.4863 39.0066 41.5897C43.7612 40.6241 47.5317 37.4423 48.7134 36.3482C50.0684 35.0937 54.5024 29.91 61.1134 22.1447C64.7889 17.8278 68.5892 13.3636 69.3385 12.6236C70.0169 12.0849 73.0233 11.1753 76.6186 10.3756C75.819 13.975 74.9002 16.989 74.3373 17.6954C73.6328 18.4075 69.1689 22.2081 64.8523 25.8839C57.0894 32.4954 51.9061 36.9297 50.6499 38.2867C49.5559 39.4685 46.3743 43.2374 45.4088 47.9924C42.5106 48.0875 39.0551 49.1686 33.8047 54.3746C33.499 54.4846 32.9343 54.5461 32.459 54.5386H32.4608Z" fill="url(#paint1_linear_290_969)"/>
<path d="M72.5525 14.5082C72.5525 14.5082 72.1126 15.0058 71.3448 15.8745C70.9608 16.3106 70.4855 16.8307 69.9357 17.4215C69.384 18.0124 68.7764 18.6909 68.0886 19.4085C67.4028 20.1262 66.6591 20.9053 65.8726 21.7292C65.0916 22.5568 64.2361 23.3993 63.3657 24.2865C61.5858 26.0182 59.6884 27.8654 57.7891 29.7126C50.1885 37.0957 42.5878 44.4771 42.5878 44.4771L42.5244 44.4137C42.5244 44.4137 49.9052 36.8124 57.2878 29.2112C59.1348 27.3136 60.9819 25.4142 62.7134 23.6342C63.6006 22.7655 64.4411 21.91 65.2705 21.129C66.0944 20.3424 66.8716 19.5987 67.591 18.9127C68.3067 18.2249 68.987 17.6173 69.5778 17.0655C70.1687 16.5157 70.6887 16.0403 71.1248 15.6564C71.9952 14.8866 72.491 14.4467 72.491 14.4467L72.5525 14.5082Z" fill="#64B4D2"/>
<path d="M43.9636 45.8526C43.1864 46.6299 41.9246 46.6299 41.1474 45.8526C40.3701 45.0754 40.3701 43.8134 41.1474 43.0362C41.9246 42.2589 43.1864 42.2589 43.9636 43.0362C44.7408 43.8134 44.7408 45.0754 43.9636 45.8526Z" fill="#0064A0"/>
</g>
</g>
<defs>
<filter id="filter0_d_290_969" x="3" y="7" width="81" height="81" filterUnits="userSpaceOnUse" color-interpolation-filters="sRGB">
<feFlood flood-opacity="0" result="BackgroundImageFix"/>
<feColorMatrix in="SourceAlpha" type="matrix" values="0 0 0 0 0 0 0 0 0 0 0 0 0 0 0 0 0 0 127 0" result="hardAlpha"/>
<feOffset dy="4"/>
<feGaussianBlur stdDeviation="2"/>
<feComposite in2="hardAlpha" operator="out"/>
<feColorMatrix type="matrix" values="0 0 0 0 0 0 0 0 0 0 0 0 0 0 0 0 0 0 0.25 0"/>
<feBlend mode="normal" in2="BackgroundImageFix" result="effect1_dropShadow_290_969"/>
<feBlend mode="normal" in="SourceGraphic" in2="effect1_dropShadow_290_969" result="shape"/>
</filter>
<linearGradient id="paint0_linear_290_969" x1="43.5" y1="0" x2="43.5" y2="87" gradientUnits="userSpaceOnUse">
<stop stop-color="#C649F2"/>
<stop offset="1" stop-color="#BBF5F9"/>
</linearGradient>
<linearGradient id="paint1_linear_290_969" x1="80.6771" y1="25.5215" x2="28.4367" y2="39.5196" gradientUnits="userSpaceOnUse">
<stop stop-color="#8CD7F0"/>
<stop offset="0.3" stop-color="#86D3ED"/>
<stop offset="0.67" stop-color="#77CAE5"/>
<stop offset="1" stop-color="#64BEDC"/>
</linearGradient>
<clipPath id="clip0_290_969">
<rect width="87" height="87" rx="7" fill="white"/>
</clipPath>
</defs>
</svg>
